<svg xmlns="http://www.w3.org/2000/svg" width="568.464" height="568.464" viewBox="0 0 568.464 568.464">
  <g id="Group_309" data-name="Group 309" transform="translate(-675.768 -255.768)">
    <rect id="Rectangle_117" data-name="Rectangle 117" width="401.965" height="401.965" transform="translate(675.768 540) rotate(-45)" fill="#beccd6"/>
    <g id="Group_309-2" data-name="Group 309">
      <path id="Path_320" data-name="Path 320" d="M1126.458,704.09a234.946,234.946,0,0,0,1.753-329.933L962.368,540Z" fill="#3d1152"/>
      <path id="Path_321" data-name="Path 321" d="M960,537.632l165.864-165.864a234.967,234.967,0,0,0-331.713.015Z" fill="#3d1152"/>
      <path id="Path_322" data-name="Path 322" d="M960,542.368,795.946,706.422a234.922,234.922,0,0,0,328.123.015Z" fill="#3d1152"/>
      <path id="Path_323" data-name="Path 323" d="M791.8,374.172a234.944,234.944,0,0,0,1.753,329.9L957.632,540Z" fill="#3d1152"/>
    </g>
    <circle id="Ellipse_109" data-name="Ellipse 109" cx="79.157" cy="79.157" r="79.157" transform="translate(880.857 459.069)" fill="#beccd6"/>
    <circle id="Ellipse_110" data-name="Ellipse 110" cx="66.151" cy="66.151" r="66.151" transform="translate(893.864 472.075)" fill="#f9f6f4"/>
    <path id="Path_324" data-name="Path 324" d="M-83.23.16A5.668,5.668,0,0,1-86.8-.86a3.273,3.273,0,0,1-1.31-2.72V-4.2a.177.177,0,0,1,.2-.2h.98a.177.177,0,0,1,.2.2v.54a2.217,2.217,0,0,0,.96,1.87,4.394,4.394,0,0,0,2.66.71,3.639,3.639,0,0,0,2.34-.65,2.117,2.117,0,0,0,.8-1.73,1.961,1.961,0,0,0-.37-1.2,3.637,3.637,0,0,0-1.14-.94,20.011,20.011,0,0,0-2.17-1.02,23.187,23.187,0,0,1-2.33-1.05,3.917,3.917,0,0,1-1.34-1.16,2.991,2.991,0,0,1-.51-1.79,3.145,3.145,0,0,1,1.17-2.61,5.026,5.026,0,0,1,3.21-.93,5.4,5.4,0,0,1,3.5,1.04,3.378,3.378,0,0,1,1.28,2.76v.44a.177.177,0,0,1-.2.2h-1a.177.177,0,0,1-.2-.2v-.36a2.34,2.34,0,0,0-.91-1.9,3.9,3.9,0,0,0-2.53-.74,3.537,3.537,0,0,0-2.18.58,1.985,1.985,0,0,0-.76,1.68,1.865,1.865,0,0,0,.37,1.19,3.112,3.112,0,0,0,1.06.82q.69.35,2.13.91a19.389,19.389,0,0,1,2.35,1.12A4.685,4.685,0,0,1-79.1-5.35a3.01,3.01,0,0,1,.55,1.83A3.266,3.266,0,0,1-79.79-.84,5.338,5.338,0,0,1-83.23.16Zm10.82-10.44a3.907,3.907,0,0,1,2.78.92,3.189,3.189,0,0,1,.98,2.44V-.2a.177.177,0,0,1-.2.2h-1.02a.177.177,0,0,1-.2-.2v-.82a.067.067,0,0,0-.03-.06q-.03-.02-.07.02a3.123,3.123,0,0,1-1.3.91,4.89,4.89,0,0,1-1.78.31,3.854,3.854,0,0,1-2.38-.72,2.572,2.572,0,0,1-.96-2.2A2.87,2.87,0,0,1-75.5-5.13,4.738,4.738,0,0,1-72.47-6h2.32a.071.071,0,0,0,.08-.08v-.76a2.22,2.22,0,0,0-.57-1.61,2.363,2.363,0,0,0-1.77-.59,2.937,2.937,0,0,0-1.56.37,1.549,1.549,0,0,0-.74,1.03.212.212,0,0,1-.24.18l-1.08-.14q-.22-.04-.18-.16a2.579,2.579,0,0,1,1.2-1.82A4.555,4.555,0,0,1-72.41-10.28Zm-.56,9.22a3.517,3.517,0,0,0,2.04-.59,1.836,1.836,0,0,0,.86-1.59V-4.8a.071.071,0,0,0-.08-.08h-2.1a3.729,3.729,0,0,0-2.12.54,1.712,1.712,0,0,0-.8,1.5,1.548,1.548,0,0,0,.61,1.33A2.613,2.613,0,0,0-72.97-1.06Zm11.2-11.7a1.864,1.864,0,0,0-1.5.49,2.679,2.679,0,0,0-.4,1.67v.4a.071.071,0,0,0,.08.08h2.24a.177.177,0,0,1,.2.2v.9a.177.177,0,0,1-.2.2h-2.24a.071.071,0,0,0-.08.08V-.2a.177.177,0,0,1-.2.2h-1a.177.177,0,0,1-.2-.2V-8.74a.071.071,0,0,0-.08-.08h-1.34a.177.177,0,0,1-.2-.2v-.9a.177.177,0,0,1,.2-.2h1.34a.071.071,0,0,0,.08-.08v-.48a5.467,5.467,0,0,1,.28-1.95,1.879,1.879,0,0,1,.97-1.04A4.569,4.569,0,0,1-61.89-14h.58a.177.177,0,0,1,.2.2v.84a.177.177,0,0,1-.2.2Zm9.94,6a10.172,10.172,0,0,1,.08,1.4v.64a.177.177,0,0,1-.2.2h-6.46a.071.071,0,0,0-.08.08,8.927,8.927,0,0,0,.12,1.42,2.392,2.392,0,0,0,.94,1.42,3.065,3.065,0,0,0,1.84.52,2.844,2.844,0,0,0,1.48-.38,2.614,2.614,0,0,0,1-1.08q.12-.18.28-.08l.78.46a.2.2,0,0,1,.08.28,3.6,3.6,0,0,1-1.5,1.51,4.694,4.694,0,0,1-2.3.55A4.211,4.211,0,0,1-58.15-.5a3.647,3.647,0,0,1-1.38-1.84,8.214,8.214,0,0,1-.36-2.76q0-.84.03-1.37a4.364,4.364,0,0,1,.15-.95A3.7,3.7,0,0,1-58.34-9.5a4,4,0,0,1,2.49-.78,3.938,3.938,0,0,1,2.8.92A4.262,4.262,0,0,1-51.83-6.76Zm-4.02-2.28a2.56,2.56,0,0,0-1.63.51,2.363,2.363,0,0,0-.85,1.37,6.476,6.476,0,0,0-.16,1.36.071.071,0,0,0,.08.08h5.18a.071.071,0,0,0,.08-.08,8.991,8.991,0,0,0-.12-1.28,2.527,2.527,0,0,0-.89-1.43A2.64,2.64,0,0,0-55.85-9.04Zm11.32-.1a.177.177,0,0,1-.2.2h-2.26a.071.071,0,0,0-.08.08v5.9a1.762,1.762,0,0,0,.43,1.35,1.967,1.967,0,0,0,1.35.39h.5a.177.177,0,0,1,.2.2V-.2a.177.177,0,0,1-.2.2q-.24.02-.74.02a3.677,3.677,0,0,1-2.18-.54,2.33,2.33,0,0,1-.74-2V-8.86a.071.071,0,0,0-.08-.08h-1.22a.177.177,0,0,1-.2-.2v-.78a.177.177,0,0,1,.2-.2h1.22a.071.071,0,0,0,.08-.08v-2.32a.177.177,0,0,1,.2-.2h.98a.177.177,0,0,1,.2.2v2.32a.071.071,0,0,0,.08.08h2.26a.177.177,0,0,1,.2.2ZM-42.25,4q-.14,0-.14-.2V3a.177.177,0,0,1,.2-.2h.08a3,3,0,0,0,1.21-.23,1.757,1.757,0,0,0,.74-.78A10.118,10.118,0,0,0-39.49.06q.04-.08,0-.12L-42.87-9.9l-.02-.08q0-.14.18-.14h1.06a.233.233,0,0,1,.24.16l2.6,8.08a.064.064,0,0,0,.06.04.064.064,0,0,0,.06-.04l2.56-8.08a.233.233,0,0,1,.24-.16h1.04q.22,0,.16.22L-38.39.88a9.86,9.86,0,0,1-.9,1.98,2.238,2.238,0,0,1-1.05.89A4.965,4.965,0,0,1-42.11,4ZM-18.29-.24a.163.163,0,0,1,.04.12.115.115,0,0,1-.04.08.163.163,0,0,1-.12.04h-1.18a.346.346,0,0,1-.24-.12q-.76-.86-1.16-1.36a.075.075,0,0,0-.12,0A6.642,6.642,0,0,1-23.04-.23a5.659,5.659,0,0,1-2.13.39,4.614,4.614,0,0,1-2.87-.83,2.844,2.844,0,0,1-1.09-2.41,3.642,3.642,0,0,1,.79-2.36,10.033,10.033,0,0,1,2.21-1.94q.1-.04.02-.1a14.529,14.529,0,0,1-1.54-2.15,3.193,3.193,0,0,1-.38-1.49,2.847,2.847,0,0,1,.92-2.19,3.453,3.453,0,0,1,2.44-.85,3.678,3.678,0,0,1,2.5.85,2.788,2.788,0,0,1,.98,2.21,3.235,3.235,0,0,1-.74,2.12,10.027,10.027,0,0,1-2.08,1.82q-.08.02-.02.1.92,1.14,2.3,2.72.5.62.68.82a.075.075,0,0,0,.12,0q.78-.98,1.3-1.72a.189.189,0,0,1,.28-.06l.76.44q.18.12.06.28a19.009,19.009,0,0,1-1.6,2.08v.04a.293.293,0,0,0,.08.16q-.08-.1,1.4,1.66Zm-6.34-12.6a2.061,2.061,0,0,0-1.44.49,1.707,1.707,0,0,0-.54,1.33,2.111,2.111,0,0,0,.3,1.02,15.172,15.172,0,0,0,1.3,1.78.087.087,0,0,0,.12.02A9.615,9.615,0,0,0-23.2-9.62a2.165,2.165,0,0,0,.59-1.48,1.579,1.579,0,0,0-.56-1.26A2.165,2.165,0,0,0-24.63-12.84Zm-.5,11.78a3.894,3.894,0,0,0,1.63-.35,6.185,6.185,0,0,0,1.55-1.05.075.075,0,0,0,0-.12l-.7-.84q-.54-.66-.82-.96l-1.68-1.94q-.02-.06-.1-.02A8.412,8.412,0,0,0-27.04-4.8a2.623,2.623,0,0,0-.63,1.72,1.781,1.781,0,0,0,.68,1.49A2.952,2.952,0,0,0-25.13-1.06ZM-6.87.18A5.268,5.268,0,0,1-9.33-.37a4.005,4.005,0,0,1-1.65-1.56,4.534,4.534,0,0,1-.59-2.33v-5.5a4.44,4.44,0,0,1,.59-2.3,4.025,4.025,0,0,1,1.65-1.55,5.268,5.268,0,0,1,2.46-.55,5.349,5.349,0,0,1,2.46.54A4,4,0,0,1-2.76-12.1a4.3,4.3,0,0,1,.59,2.26.216.216,0,0,1-.06.16.192.192,0,0,1-.14.06l-1.02.06q-.2,0-.2-.18V-9.8a2.975,2.975,0,0,0-.9-2.27,3.324,3.324,0,0,0-2.38-.85,3.3,3.3,0,0,0-2.38.86,2.983,2.983,0,0,0-.9,2.26v5.6a2.983,2.983,0,0,0,.9,2.26,3.3,3.3,0,0,0,2.38.86,3.324,3.324,0,0,0,2.38-.85,2.975,2.975,0,0,0,.9-2.27v-.04q0-.18.2-.18l1.02.06q.2,0,.2.18a4.387,4.387,0,0,1-.59,2.29A3.979,3.979,0,0,1-4.41-.36,5.349,5.349,0,0,1-6.87.18ZM4.57.16A4.166,4.166,0,0,1,2.09-.58,3.791,3.791,0,0,1,.65-2.62,8.722,8.722,0,0,1,.37-5.08,8.5,8.5,0,0,1,.65-7.52,3.69,3.69,0,0,1,2.07-9.54a4.233,4.233,0,0,1,2.52-.74,4.087,4.087,0,0,1,2.45.74,3.707,3.707,0,0,1,1.41,2,8.346,8.346,0,0,1,.28,2.46,8.224,8.224,0,0,1-.28,2.46A3.71,3.71,0,0,1,7.04-.58,4.121,4.121,0,0,1,4.57.16Zm0-1.24a2.587,2.587,0,0,0,1.64-.53,2.605,2.605,0,0,0,.92-1.43,8.77,8.77,0,0,0,.18-2.02,9.656,9.656,0,0,0-.16-2.02,2.584,2.584,0,0,0-.93-1.43,2.66,2.66,0,0,0-1.67-.53,2.618,2.618,0,0,0-1.66.53,2.605,2.605,0,0,0-.92,1.43,9.656,9.656,0,0,0-.16,2.02,9.656,9.656,0,0,0,.16,2.02,2.487,2.487,0,0,0,.91,1.43A2.692,2.692,0,0,0,4.57-1.08Zm17.28-9.18a3.143,3.143,0,0,1,2.37.9,3.39,3.39,0,0,1,.87,2.46V-.2a.177.177,0,0,1-.2.2h-1a.177.177,0,0,1-.2-.2V-6.62a2.407,2.407,0,0,0-.63-1.75,2.194,2.194,0,0,0-1.65-.65,2.332,2.332,0,0,0-1.71.64,2.3,2.3,0,0,0-.65,1.72V-.2a.177.177,0,0,1-.2.2H17.83a.177.177,0,0,1-.2-.2V-6.62a2.43,2.43,0,0,0-.62-1.75,2.187,2.187,0,0,0-1.66-.65,2.264,2.264,0,0,0-1.69.64,2.345,2.345,0,0,0-.63,1.72V-.2a.177.177,0,0,1-.2.2H11.81a.177.177,0,0,1-.2-.2V-9.92a.177.177,0,0,1,.2-.2h1.02a.177.177,0,0,1,.2.2v.8a.046.046,0,0,0,.03.05q.03.01.07-.03a2.708,2.708,0,0,1,1.13-.87,3.911,3.911,0,0,1,1.53-.29,3.551,3.551,0,0,1,1.78.42,2.691,2.691,0,0,1,1.12,1.22q.04.1.1,0a2.868,2.868,0,0,1,1.24-1.23A3.934,3.934,0,0,1,21.85-10.26ZM36.01-7.6a8.758,8.758,0,0,1,.3,2.54,9.183,9.183,0,0,1-.26,2.48A3.719,3.719,0,0,1,34.74-.57a3.808,3.808,0,0,1-2.39.73,3.344,3.344,0,0,1-1.44-.31,2.918,2.918,0,0,1-1.1-.89q-.04-.04-.07-.03a.046.046,0,0,0-.03.05v4.7a.177.177,0,0,1-.2.2H28.49a.177.177,0,0,1-.2-.2V-9.92a.177.177,0,0,1,.2-.2h1.02a.177.177,0,0,1,.2.2v.84a.046.046,0,0,0,.03.05q.03.01.07-.03a3.031,3.031,0,0,1,1.09-.9,3.238,3.238,0,0,1,1.45-.32,3.778,3.778,0,0,1,2.35.72A3.661,3.661,0,0,1,36.01-7.6ZM34.43-2.54a3.927,3.927,0,0,0,.33-.99,8.231,8.231,0,0,0,.11-1.53,10.42,10.42,0,0,0-.08-1.47,3.368,3.368,0,0,0-.28-.95,2.184,2.184,0,0,0-.85-1.14,2.493,2.493,0,0,0-1.45-.42,2.117,2.117,0,0,0-1.34.42,2.473,2.473,0,0,0-.8,1.12,3.563,3.563,0,0,0-.26.94,10.836,10.836,0,0,0-.08,1.5,11.066,11.066,0,0,0,.08,1.51,3.38,3.38,0,0,0,.28.97,2.264,2.264,0,0,0,.79,1.09,2.13,2.13,0,0,0,1.31.41,2.417,2.417,0,0,0,1.39-.4A2.25,2.25,0,0,0,34.43-2.54ZM39.39,0a.177.177,0,0,1-.2-.2V-13.8a.177.177,0,0,1,.2-.2h1.02a.177.177,0,0,1,.2.2V-.2a.177.177,0,0,1-.2.2Zm5.36-11.96a1.085,1.085,0,0,1-.8-.32,1.085,1.085,0,0,1-.32-.8,1.077,1.077,0,0,1,.32-.81,1.1,1.1,0,0,1,.8-.31,1.1,1.1,0,0,1,.8.31,1.077,1.077,0,0,1,.32.81,1.085,1.085,0,0,1-.32.8A1.085,1.085,0,0,1,44.75-11.96ZM44.19-.02a.177.177,0,0,1-.2-.2V-9.94a.177.177,0,0,1,.2-.2h1.02a.177.177,0,0,1,.2.2V-.22a.177.177,0,0,1-.2.2Zm8.2-10.26a3.907,3.907,0,0,1,2.78.92,3.189,3.189,0,0,1,.98,2.44V-.2a.177.177,0,0,1-.2.2H54.93a.177.177,0,0,1-.2-.2v-.82a.067.067,0,0,0-.03-.06q-.03-.02-.07.02a3.123,3.123,0,0,1-1.3.91,4.89,4.89,0,0,1-1.78.31,3.854,3.854,0,0,1-2.38-.72,2.572,2.572,0,0,1-.96-2.2A2.87,2.87,0,0,1,49.3-5.13,4.738,4.738,0,0,1,52.33-6h2.32a.071.071,0,0,0,.08-.08v-.76a2.22,2.22,0,0,0-.57-1.61,2.363,2.363,0,0,0-1.77-.59,2.937,2.937,0,0,0-1.56.37,1.549,1.549,0,0,0-.74,1.03.212.212,0,0,1-.24.18L48.77-7.6q-.22-.04-.18-.16a2.579,2.579,0,0,1,1.2-1.82A4.555,4.555,0,0,1,52.39-10.28Zm-.56,9.22a3.517,3.517,0,0,0,2.04-.59,1.836,1.836,0,0,0,.86-1.59V-4.8a.071.071,0,0,0-.08-.08h-2.1a3.729,3.729,0,0,0-2.12.54,1.712,1.712,0,0,0-.8,1.5,1.548,1.548,0,0,0,.61,1.33A2.613,2.613,0,0,0,51.83-1.06Zm11.48-9.2a3.467,3.467,0,0,1,2.55.94,3.385,3.385,0,0,1,.95,2.52V-.2a.177.177,0,0,1-.2.2H65.59a.177.177,0,0,1-.2-.2V-6.52a2.5,2.5,0,0,0-.67-1.8,2.288,2.288,0,0,0-1.73-.7,2.407,2.407,0,0,0-1.78.68,2.407,2.407,0,0,0-.68,1.78V-.2a.177.177,0,0,1-.2.2H59.31a.177.177,0,0,1-.2-.2V-9.92a.177.177,0,0,1,.2-.2h1.02a.177.177,0,0,1,.2.2v.86a.067.067,0,0,0,.03.06q.03.02.05-.02A3.087,3.087,0,0,1,63.31-10.26ZM73.57.16A4.082,4.082,0,0,1,71.1-.59a3.757,3.757,0,0,1-1.41-2.03,9.184,9.184,0,0,1-.26-2.48,9.836,9.836,0,0,1,.26-2.44,3.637,3.637,0,0,1,1.4-1.99,4.126,4.126,0,0,1,2.48-.75,4.337,4.337,0,0,1,2.53.74A3.359,3.359,0,0,1,77.49-7.7a3.375,3.375,0,0,1,.12.6v.04q0,.14-.18.18l-1,.14h-.04q-.14,0-.18-.18l-.06-.3a2.248,2.248,0,0,0-.88-1.29,2.735,2.735,0,0,0-1.7-.53,2.608,2.608,0,0,0-1.67.53,2.424,2.424,0,0,0-.87,1.41,9.093,9.093,0,0,0-.18,2.02,8.885,8.885,0,0,0,.18,2.04,2.432,2.432,0,0,0,.87,1.43,2.608,2.608,0,0,0,1.67.53,2.82,2.82,0,0,0,1.69-.51,2.16,2.16,0,0,0,.89-1.31v-.08l.02-.08q.02-.2.24-.16l.98.16q.2.04.18.22l-.08.4A3.168,3.168,0,0,1,76.11-.56,4.472,4.472,0,0,1,73.57.16ZM87.85-6.76a10.171,10.171,0,0,1,.08,1.4v.64a.177.177,0,0,1-.2.2H81.27a.071.071,0,0,0-.08.08,8.926,8.926,0,0,0,.12,1.42,2.392,2.392,0,0,0,.94,1.42,3.065,3.065,0,0,0,1.84.52,2.844,2.844,0,0,0,1.48-.38,2.614,2.614,0,0,0,1-1.08q.12-.18.28-.08l.78.46a.2.2,0,0,1,.08.28,3.6,3.6,0,0,1-1.5,1.51,4.694,4.694,0,0,1-2.3.55A4.211,4.211,0,0,1,81.53-.5a3.647,3.647,0,0,1-1.38-1.84,8.214,8.214,0,0,1-.36-2.76q0-.84.03-1.37a4.363,4.363,0,0,1,.15-.95A3.7,3.7,0,0,1,81.34-9.5a4,4,0,0,1,2.49-.78,3.938,3.938,0,0,1,2.8.92A4.262,4.262,0,0,1,87.85-6.76ZM83.83-9.04a2.56,2.56,0,0,0-1.63.51,2.363,2.363,0,0,0-.85,1.37,6.476,6.476,0,0,0-.16,1.36.071.071,0,0,0,.08.08h5.18a.071.071,0,0,0,.08-.08,8.99,8.99,0,0,0-.12-1.28,2.527,2.527,0,0,0-.89-1.43A2.64,2.64,0,0,0,83.83-9.04Z" transform="translate(960.858 390.991)" fill="#fff"/>
    <path id="Path_328" data-name="Path 328" d="M-89,0a.235.235,0,0,1-.24-.14l-2.94-6.2a.078.078,0,0,0-.08-.06h-3.4a.071.071,0,0,0-.08.08V-.2a.177.177,0,0,1-.2.2h-1.02a.177.177,0,0,1-.2-.2V-13.8a.177.177,0,0,1,.2-.2h5.18A3.74,3.74,0,0,1-89-12.93a3.793,3.793,0,0,1,1.06,2.79,3.767,3.767,0,0,1-.76,2.38A3.426,3.426,0,0,1-90.76-6.5q-.08.04-.04.1l3,6.16a.223.223,0,0,1,.02.1q0,.14-.16.14Zm-6.66-12.76a.071.071,0,0,0-.08.08v5.06a.071.071,0,0,0,.08.08h3.72a2.543,2.543,0,0,0,1.88-.72,2.543,2.543,0,0,0,.72-1.88,2.577,2.577,0,0,0-.72-1.89,2.524,2.524,0,0,0-1.88-.73Zm18.16,6a10.171,10.171,0,0,1,.08,1.4v.64a.177.177,0,0,1-.2.2h-6.46a.071.071,0,0,0-.08.08,8.926,8.926,0,0,0,.12,1.42A2.392,2.392,0,0,0-83.1-1.6a3.065,3.065,0,0,0,1.84.52,2.844,2.844,0,0,0,1.48-.38,2.614,2.614,0,0,0,1-1.08q.12-.18.28-.08l.78.46a.2.2,0,0,1,.08.28,3.6,3.6,0,0,1-1.5,1.51,4.694,4.694,0,0,1-2.3.55A4.211,4.211,0,0,1-83.82-.5,3.647,3.647,0,0,1-85.2-2.34a8.214,8.214,0,0,1-.36-2.76q0-.84.03-1.37a4.363,4.363,0,0,1,.15-.95A3.7,3.7,0,0,1-84.01-9.5a4,4,0,0,1,2.49-.78,3.938,3.938,0,0,1,2.8.92A4.262,4.262,0,0,1-77.5-6.76Zm-4.02-2.28a2.56,2.56,0,0,0-1.63.51A2.363,2.363,0,0,0-84-7.16a6.476,6.476,0,0,0-.16,1.36.071.071,0,0,0,.08.08h5.18a.071.071,0,0,0,.08-.08,8.99,8.99,0,0,0-.12-1.28,2.527,2.527,0,0,0-.89-1.43A2.64,2.64,0,0,0-81.52-9.04ZM-71.46.1a5.168,5.168,0,0,1-1.99-.36,3.218,3.218,0,0,1-1.34-.96,2.119,2.119,0,0,1-.47-1.34V-2.8a.177.177,0,0,1,.2-.2h.96a.177.177,0,0,1,.2.2v.16a1.4,1.4,0,0,0,.69,1.15A2.914,2.914,0,0,0-71.48-1a2.771,2.771,0,0,0,1.68-.47,1.423,1.423,0,0,0,.64-1.19,1.092,1.092,0,0,0-.33-.82,2.373,2.373,0,0,0-.78-.5q-.45-.18-1.39-.46a14.322,14.322,0,0,1-1.84-.64,3.383,3.383,0,0,1-1.21-.89,2.145,2.145,0,0,1-.49-1.45,2.431,2.431,0,0,1,1-2.04,4.251,4.251,0,0,1,2.64-.76,4.962,4.962,0,0,1,1.95.36,3.043,3.043,0,0,1,1.31.99,2.334,2.334,0,0,1,.46,1.41v.06a.177.177,0,0,1-.2.2h-.94a.177.177,0,0,1-.2-.2v-.06a1.36,1.36,0,0,0-.65-1.14,2.975,2.975,0,0,0-1.75-.46,2.93,2.93,0,0,0-1.64.41,1.286,1.286,0,0,0-.62,1.13,1.145,1.145,0,0,0,.6,1.04,8.181,8.181,0,0,0,1.86.72,18.765,18.765,0,0,1,1.88.64,3.458,3.458,0,0,1,1.24.87,2.125,2.125,0,0,1,.52,1.49A2.487,2.487,0,0,1-68.76-.68,4.329,4.329,0,0,1-71.46.1ZM-61.3.16a4.166,4.166,0,0,1-2.48-.74,3.791,3.791,0,0,1-1.44-2.04,8.722,8.722,0,0,1-.28-2.46,8.5,8.5,0,0,1,.28-2.44A3.69,3.69,0,0,1-63.8-9.54a4.233,4.233,0,0,1,2.52-.74,4.087,4.087,0,0,1,2.45.74,3.707,3.707,0,0,1,1.41,2,8.346,8.346,0,0,1,.28,2.46,8.224,8.224,0,0,1-.28,2.46A3.71,3.71,0,0,1-58.83-.58,4.121,4.121,0,0,1-61.3.16Zm0-1.24a2.587,2.587,0,0,0,1.64-.53,2.605,2.605,0,0,0,.92-1.43,8.77,8.77,0,0,0,.18-2.02,9.656,9.656,0,0,0-.16-2.02,2.584,2.584,0,0,0-.93-1.43,2.66,2.66,0,0,0-1.67-.53,2.618,2.618,0,0,0-1.66.53,2.605,2.605,0,0,0-.92,1.43,9.656,9.656,0,0,0-.16,2.02,9.656,9.656,0,0,0,.16,2.02,2.487,2.487,0,0,0,.91,1.43A2.692,2.692,0,0,0-61.3-1.08Zm13.16-8.84a.177.177,0,0,1,.2-.2h1.02a.177.177,0,0,1,.2.2V-.2a.177.177,0,0,1-.2.2h-1.02a.177.177,0,0,1-.2-.2v-.86a.064.064,0,0,0-.04-.06.04.04,0,0,0-.06.02A2.983,2.983,0,0,1-50.9.14a4.026,4.026,0,0,1-1.77-.39,3.051,3.051,0,0,1-1.28-1.13,3.251,3.251,0,0,1-.47-1.78V-9.92a.177.177,0,0,1,.2-.2h1.02a.177.177,0,0,1,.2.2v6.34a2.512,2.512,0,0,0,.64,1.81,2.292,2.292,0,0,0,1.74.67,2.426,2.426,0,0,0,1.81-.68,2.453,2.453,0,0,0,.67-1.8Zm8.68-.3a2.36,2.36,0,0,1,1.14.26.211.211,0,0,1,.12.26l-.22.98a.17.17,0,0,1-.26.12,2.035,2.035,0,0,0-.78-.14l-.26.02a2.382,2.382,0,0,0-1.72.77,2.608,2.608,0,0,0-.68,1.85V-.2a.177.177,0,0,1-.2.2h-1.02a.177.177,0,0,1-.2-.2V-9.92a.177.177,0,0,1,.2-.2h1.02a.177.177,0,0,1,.2.2V-8.7q0,.06.03.07t.05-.03a3.185,3.185,0,0,1,1.07-1.15A2.77,2.77,0,0,1-39.46-10.22ZM-32.54.16a4.082,4.082,0,0,1-2.47-.75,3.757,3.757,0,0,1-1.41-2.03,9.183,9.183,0,0,1-.26-2.48,9.835,9.835,0,0,1,.26-2.44,3.637,3.637,0,0,1,1.4-1.99,4.126,4.126,0,0,1,2.48-.75,4.337,4.337,0,0,1,2.53.74A3.359,3.359,0,0,1-28.62-7.7a3.375,3.375,0,0,1,.12.6v.04q0,.14-.18.18l-1,.14h-.04q-.14,0-.18-.18l-.06-.3a2.248,2.248,0,0,0-.88-1.29,2.735,2.735,0,0,0-1.7-.53,2.608,2.608,0,0,0-1.67.53,2.424,2.424,0,0,0-.87,1.41,9.093,9.093,0,0,0-.18,2.02,8.885,8.885,0,0,0,.18,2.04,2.432,2.432,0,0,0,.87,1.43,2.608,2.608,0,0,0,1.67.53,2.82,2.82,0,0,0,1.69-.51,2.16,2.16,0,0,0,.89-1.31v-.08l.02-.08q.02-.2.24-.16l.98.16q.2.04.18.22l-.08.4A3.168,3.168,0,0,1-30-.56,4.472,4.472,0,0,1-32.54.16Zm14.28-6.92a10.172,10.172,0,0,1,.08,1.4v.64a.177.177,0,0,1-.2.2h-6.46a.071.071,0,0,0-.08.08,8.927,8.927,0,0,0,.12,1.42,2.392,2.392,0,0,0,.94,1.42,3.065,3.065,0,0,0,1.84.52,2.844,2.844,0,0,0,1.48-.38,2.614,2.614,0,0,0,1-1.08q.12-.18.28-.08l.78.46a.2.2,0,0,1,.08.28A3.6,3.6,0,0,1-19.9-.37a4.694,4.694,0,0,1-2.3.55A4.211,4.211,0,0,1-24.58-.5a3.647,3.647,0,0,1-1.38-1.84,8.214,8.214,0,0,1-.36-2.76q0-.84.03-1.37a4.364,4.364,0,0,1,.15-.95A3.7,3.7,0,0,1-24.77-9.5a4,4,0,0,1,2.49-.78,3.938,3.938,0,0,1,2.8.92A4.262,4.262,0,0,1-18.26-6.76Zm-4.02-2.28a2.56,2.56,0,0,0-1.63.51,2.363,2.363,0,0,0-.85,1.37,6.477,6.477,0,0,0-.16,1.36.071.071,0,0,0,.08.08h5.18a.071.071,0,0,0,.08-.08,8.991,8.991,0,0,0-.12-1.28,2.527,2.527,0,0,0-.89-1.43A2.64,2.64,0,0,0-22.28-9.04ZM-2-13.86A.29.29,0,0,1-1.76-14H-.72a.177.177,0,0,1,.2.2V-.2a.177.177,0,0,1-.2.2H-1.74a.177.177,0,0,1-.2-.2V-11.32a.081.081,0,0,0-.04-.08q-.04-.02-.06.04l-3.26,5a.29.29,0,0,1-.24.14h-.52a.3.3,0,0,1-.24-.12L-9.56-11.3q-.02-.06-.06-.04a.081.081,0,0,0-.04.08V-.2a.177.177,0,0,1-.2.2h-1.02a.177.177,0,0,1-.2-.2V-13.8a.177.177,0,0,1,.2-.2h1.04a.269.269,0,0,1,.24.12l3.76,5.7a.081.081,0,0,0,.06.02.081.081,0,0,0,.06-.02Zm8.44,3.58a3.907,3.907,0,0,1,2.78.92,3.189,3.189,0,0,1,.98,2.44V-.2A.177.177,0,0,1,10,0H8.98a.177.177,0,0,1-.2-.2v-.82a.067.067,0,0,0-.03-.06q-.03-.02-.07.02a3.123,3.123,0,0,1-1.3.91A4.89,4.89,0,0,1,5.6.16,3.854,3.854,0,0,1,3.22-.56a2.572,2.572,0,0,1-.96-2.2A2.87,2.87,0,0,1,3.35-5.13,4.738,4.738,0,0,1,6.38-6H8.7a.071.071,0,0,0,.08-.08v-.76a2.22,2.22,0,0,0-.57-1.61,2.363,2.363,0,0,0-1.77-.59,2.937,2.937,0,0,0-1.56.37,1.549,1.549,0,0,0-.74,1.03.212.212,0,0,1-.24.18L2.82-7.6q-.22-.04-.18-.16a2.579,2.579,0,0,1,1.2-1.82A4.555,4.555,0,0,1,6.44-10.28ZM5.88-1.06a3.517,3.517,0,0,0,2.04-.59,1.836,1.836,0,0,0,.86-1.59V-4.8a.071.071,0,0,0-.08-.08H6.6a3.728,3.728,0,0,0-2.12.54,1.712,1.712,0,0,0-.8,1.5,1.548,1.548,0,0,0,.61,1.33A2.613,2.613,0,0,0,5.88-1.06Zm11.48-9.2a3.467,3.467,0,0,1,2.55.94,3.385,3.385,0,0,1,.95,2.52V-.2a.177.177,0,0,1-.2.2H19.64a.177.177,0,0,1-.2-.2V-6.52a2.5,2.5,0,0,0-.67-1.8,2.288,2.288,0,0,0-1.73-.7,2.407,2.407,0,0,0-1.78.68,2.407,2.407,0,0,0-.68,1.78V-.2a.177.177,0,0,1-.2.2H13.36a.177.177,0,0,1-.2-.2V-9.92a.177.177,0,0,1,.2-.2h1.02a.177.177,0,0,1,.2.2v.86a.067.067,0,0,0,.03.06q.03.02.05-.02A3.087,3.087,0,0,1,17.36-10.26Zm10.08-.02a3.907,3.907,0,0,1,2.78.92,3.189,3.189,0,0,1,.98,2.44V-.2A.177.177,0,0,1,31,0H29.98a.177.177,0,0,1-.2-.2v-.82a.067.067,0,0,0-.03-.06q-.03-.02-.07.02a3.123,3.123,0,0,1-1.3.91A4.89,4.89,0,0,1,26.6.16a3.854,3.854,0,0,1-2.38-.72,2.572,2.572,0,0,1-.96-2.2,2.87,2.87,0,0,1,1.09-2.37A4.738,4.738,0,0,1,27.38-6H29.7a.071.071,0,0,0,.08-.08v-.76a2.22,2.22,0,0,0-.57-1.61,2.363,2.363,0,0,0-1.77-.59,2.937,2.937,0,0,0-1.56.37,1.549,1.549,0,0,0-.74,1.03.212.212,0,0,1-.24.18L23.82-7.6q-.22-.04-.18-.16a2.579,2.579,0,0,1,1.2-1.82A4.555,4.555,0,0,1,27.44-10.28Zm-.56,9.22a3.517,3.517,0,0,0,2.04-.59,1.836,1.836,0,0,0,.86-1.59V-4.8a.071.071,0,0,0-.08-.08H27.6a3.729,3.729,0,0,0-2.12.54,1.712,1.712,0,0,0-.8,1.5,1.548,1.548,0,0,0,.61,1.33A2.613,2.613,0,0,0,26.88-1.06ZM40.4-9.92a.177.177,0,0,1,.2-.2h1.02a.177.177,0,0,1,.2.2V-.34a3.965,3.965,0,0,1-1.29,3.28,5.505,5.505,0,0,1-3.55,1.04q-.46,0-.7-.02a.2.2,0,0,1-.2-.22l.04-.92a.184.184,0,0,1,.06-.15.15.15,0,0,1,.14-.03l.54.02a4.074,4.074,0,0,0,2.7-.73A2.9,2.9,0,0,0,40.4-.38v-.74a.046.046,0,0,0-.03-.05q-.03-.01-.07.03A3.106,3.106,0,0,1,37.68.06a3.957,3.957,0,0,1-2.31-.7,3.371,3.371,0,0,1-1.35-1.98,9.283,9.283,0,0,1-.24-2.44q0-.88.05-1.48a4.632,4.632,0,0,1,.21-1.08,3.733,3.733,0,0,1,1.3-1.93,3.574,3.574,0,0,1,2.26-.73A3.216,3.216,0,0,1,40.3-9.1q.04.04.07.02a.067.067,0,0,0,.03-.06Zm-.1,6.86a5.018,5.018,0,0,0,.08-.74q.02-.44.02-1.28,0-1.02-.02-1.37a3.237,3.237,0,0,0-.1-.65,2.385,2.385,0,0,0-.79-1.39,2.33,2.33,0,0,0-1.59-.55,2.406,2.406,0,0,0-1.59.54,2.842,2.842,0,0,0-.91,1.4,7.275,7.275,0,0,0-.2,2,6.867,6.867,0,0,0,.2,2.02,2.5,2.5,0,0,0,.87,1.39,2.485,2.485,0,0,0,1.63.55,2.386,2.386,0,0,0,1.61-.54A2.339,2.339,0,0,0,40.3-3.06Zm12.32-3.7a10.172,10.172,0,0,1,.08,1.4v.64a.177.177,0,0,1-.2.2H46.04a.071.071,0,0,0-.08.08,8.927,8.927,0,0,0,.12,1.42,2.392,2.392,0,0,0,.94,1.42,3.065,3.065,0,0,0,1.84.52,2.844,2.844,0,0,0,1.48-.38,2.614,2.614,0,0,0,1-1.08q.12-.18.28-.08l.78.46a.2.2,0,0,1,.08.28,3.6,3.6,0,0,1-1.5,1.51,4.694,4.694,0,0,1-2.3.55A4.211,4.211,0,0,1,46.3-.5a3.647,3.647,0,0,1-1.38-1.84,8.214,8.214,0,0,1-.36-2.76q0-.84.03-1.37a4.364,4.364,0,0,1,.15-.95A3.7,3.7,0,0,1,46.11-9.5a4,4,0,0,1,2.49-.78,3.938,3.938,0,0,1,2.8.92A4.262,4.262,0,0,1,52.62-6.76ZM48.6-9.04a2.56,2.56,0,0,0-1.63.51,2.363,2.363,0,0,0-.85,1.37,6.476,6.476,0,0,0-.16,1.36.071.071,0,0,0,.08.08h5.18a.071.071,0,0,0,.08-.08,8.991,8.991,0,0,0-.12-1.28,2.527,2.527,0,0,0-.89-1.43A2.64,2.64,0,0,0,48.6-9.04Zm17.16-1.22a3.143,3.143,0,0,1,2.37.9A3.39,3.39,0,0,1,69-6.9V-.2a.177.177,0,0,1-.2.2h-1a.177.177,0,0,1-.2-.2V-6.62a2.407,2.407,0,0,0-.63-1.75,2.194,2.194,0,0,0-1.65-.65,2.332,2.332,0,0,0-1.71.64,2.3,2.3,0,0,0-.65,1.72V-.2a.177.177,0,0,1-.2.2H61.74a.177.177,0,0,1-.2-.2V-6.62a2.43,2.43,0,0,0-.62-1.75,2.187,2.187,0,0,0-1.66-.65,2.264,2.264,0,0,0-1.69.64,2.345,2.345,0,0,0-.63,1.72V-.2a.177.177,0,0,1-.2.2H55.72a.177.177,0,0,1-.2-.2V-9.92a.177.177,0,0,1,.2-.2h1.02a.177.177,0,0,1,.2.2v.8a.046.046,0,0,0,.03.05q.03.01.07-.03a2.708,2.708,0,0,1,1.13-.87,3.911,3.911,0,0,1,1.53-.29,3.551,3.551,0,0,1,1.78.42A2.691,2.691,0,0,1,62.6-8.62q.04.1.1,0a2.868,2.868,0,0,1,1.24-1.23A3.934,3.934,0,0,1,65.76-10.26Zm13.92,3.5a10.171,10.171,0,0,1,.08,1.4v.64a.177.177,0,0,1-.2.2H73.1a.071.071,0,0,0-.08.08,8.926,8.926,0,0,0,.12,1.42,2.392,2.392,0,0,0,.94,1.42,3.065,3.065,0,0,0,1.84.52,2.844,2.844,0,0,0,1.48-.38,2.614,2.614,0,0,0,1-1.08q.12-.18.28-.08l.78.46a.2.2,0,0,1,.08.28,3.6,3.6,0,0,1-1.5,1.51,4.694,4.694,0,0,1-2.3.55A4.211,4.211,0,0,1,73.36-.5a3.647,3.647,0,0,1-1.38-1.84,8.214,8.214,0,0,1-.36-2.76q0-.84.03-1.37a4.363,4.363,0,0,1,.15-.95A3.7,3.7,0,0,1,73.17-9.5a4,4,0,0,1,2.49-.78,3.938,3.938,0,0,1,2.8.92A4.262,4.262,0,0,1,79.68-6.76ZM75.66-9.04a2.56,2.56,0,0,0-1.63.51,2.363,2.363,0,0,0-.85,1.37,6.476,6.476,0,0,0-.16,1.36.071.071,0,0,0,.08.08h5.18a.071.071,0,0,0,.08-.08,8.99,8.99,0,0,0-.12-1.28,2.527,2.527,0,0,0-.89-1.43A2.64,2.64,0,0,0,75.66-9.04Zm11.12-1.22a3.467,3.467,0,0,1,2.55.94,3.385,3.385,0,0,1,.95,2.52V-.2a.177.177,0,0,1-.2.2H89.06a.177.177,0,0,1-.2-.2V-6.52a2.5,2.5,0,0,0-.67-1.8,2.288,2.288,0,0,0-1.73-.7,2.407,2.407,0,0,0-1.78.68A2.407,2.407,0,0,0,84-6.56V-.2a.177.177,0,0,1-.2.2H82.78a.177.177,0,0,1-.2-.2V-9.92a.177.177,0,0,1,.2-.2H83.8a.177.177,0,0,1,.2.2v.86a.067.067,0,0,0,.03.06q.03.02.05-.02A3.087,3.087,0,0,1,86.78-10.26ZM97.9-9.14a.177.177,0,0,1-.2.2H95.44a.071.071,0,0,0-.08.08v5.9a1.762,1.762,0,0,0,.43,1.35,1.967,1.967,0,0,0,1.35.39h.5a.177.177,0,0,1,.2.2V-.2a.177.177,0,0,1-.2.2q-.24.02-.74.02a3.677,3.677,0,0,1-2.18-.54,2.33,2.33,0,0,1-.74-2V-8.86a.071.071,0,0,0-.08-.08H92.68a.177.177,0,0,1-.2-.2v-.78a.177.177,0,0,1,.2-.2H93.9a.071.071,0,0,0,.08-.08v-2.32a.177.177,0,0,1,.2-.2h.98a.177.177,0,0,1,.2.2v2.32a.071.071,0,0,0,.08.08H97.7a.177.177,0,0,1,.2.2Z" transform="translate(960.858 701.991)" fill="#fff"/>
    <path id="Path_326" data-name="Path 326" d="M-19.712,0a.513.513,0,0,1-.528-.352L-22-5.9a.173.173,0,0,0-.176-.132H-35.332a.173.173,0,0,0-.176.132l-1.76,5.544A.513.513,0,0,1-37.8,0h-2.376q-.484,0-.352-.484L-30.8-30.448a.513.513,0,0,1,.528-.352h2.992a.513.513,0,0,1,.528.352L-16.984-.484l.044.176q0,.308-.4.308ZM-34.628-8.8a.122.122,0,0,0,.022.154.211.211,0,0,0,.154.066H-23.1a.211.211,0,0,0,.154-.066.122.122,0,0,0,.022-.154l-5.72-17.952a.141.141,0,0,0-.132-.088.141.141,0,0,0-.132.088ZM.44-30.844a8.373,8.373,0,0,1,6.226,2.376A8.491,8.491,0,0,1,9.02-22.22a8.2,8.2,0,0,1-2.4,6.16A8.671,8.671,0,0,1,.308-13.728h-8.58a.156.156,0,0,0-.176.176V-.44a.389.389,0,0,1-.44.44h-2.244a.389.389,0,0,1-.44-.44V-30.4a.389.389,0,0,1,.44-.44ZM.088-16.324A5.757,5.757,0,0,0,4.312-17.93,5.7,5.7,0,0,0,5.94-22.176a5.829,5.829,0,0,0-1.628-4.312A5.715,5.715,0,0,0,.088-28.116h-8.36a.156.156,0,0,0-.176.176V-16.5a.156.156,0,0,0,.176.176ZM34.76-30.492a.638.638,0,0,1,.528-.308h2.288a.389.389,0,0,1,.44.44V-.44a.389.389,0,0,1-.44.44H35.332a.389.389,0,0,1-.44-.44V-24.9a.177.177,0,0,0-.088-.176q-.088-.044-.132.088l-7.172,11a.638.638,0,0,1-.528.308H25.828a.666.666,0,0,1-.528-.264L18.128-24.86q-.044-.132-.132-.088a.177.177,0,0,0-.088.176V-.44a.389.389,0,0,1-.44.44H15.224a.389.389,0,0,1-.44-.44V-30.36a.389.389,0,0,1,.44-.44h2.288a.592.592,0,0,1,.528.264L26.312-18a.179.179,0,0,0,.132.044A.179.179,0,0,0,26.576-18Z" transform="translate(961.368 555.849)" fill="#38174d"/>
    <path id="Path_327" data-name="Path 327" d="M-16.26,0a.233.233,0,0,1-.24-.16l-.8-2.52a.078.078,0,0,0-.08-.06h-5.98a.078.078,0,0,0-.08.06l-.8,2.52a.233.233,0,0,1-.24.16h-1.08q-.22,0-.16-.22l4.42-13.62a.233.233,0,0,1,.24-.16h1.36a.233.233,0,0,1,.24.16L-15.02-.22l.02.08q0,.14-.18.14Zm-6.78-4a.055.055,0,0,0,.01.07.1.1,0,0,0,.07.03h5.16a.1.1,0,0,0,.07-.03A.055.055,0,0,0-17.72-4l-2.6-8.16a.064.064,0,0,0-.06-.04.064.064,0,0,0-.06.04ZM-9.38.1a5.168,5.168,0,0,1-1.99-.36,3.218,3.218,0,0,1-1.34-.96,2.119,2.119,0,0,1-.47-1.34V-2.8a.177.177,0,0,1,.2-.2h.96a.177.177,0,0,1,.2.2v.16a1.4,1.4,0,0,0,.69,1.15A2.914,2.914,0,0,0-9.4-1a2.771,2.771,0,0,0,1.68-.47,1.423,1.423,0,0,0,.64-1.19,1.092,1.092,0,0,0-.33-.82,2.373,2.373,0,0,0-.78-.5q-.45-.18-1.39-.46a14.322,14.322,0,0,1-1.84-.64,3.383,3.383,0,0,1-1.21-.89,2.145,2.145,0,0,1-.49-1.45,2.431,2.431,0,0,1,1-2.04,4.251,4.251,0,0,1,2.64-.76,4.962,4.962,0,0,1,1.95.36,3.043,3.043,0,0,1,1.31.99,2.334,2.334,0,0,1,.46,1.41v.06a.177.177,0,0,1-.2.2H-6.9a.177.177,0,0,1-.2-.2v-.06A1.36,1.36,0,0,0-7.75-8.6,2.975,2.975,0,0,0-9.5-9.06a2.93,2.93,0,0,0-1.64.41,1.286,1.286,0,0,0-.62,1.13,1.145,1.145,0,0,0,.6,1.04,8.181,8.181,0,0,0,1.86.72,18.766,18.766,0,0,1,1.88.64,3.457,3.457,0,0,1,1.24.87,2.125,2.125,0,0,1,.52,1.49A2.487,2.487,0,0,1-6.68-.68,4.329,4.329,0,0,1-9.38.1ZM-.06.1A5.168,5.168,0,0,1-2.05-.26a3.218,3.218,0,0,1-1.34-.96,2.119,2.119,0,0,1-.47-1.34V-2.8a.177.177,0,0,1,.2-.2h.96a.177.177,0,0,1,.2.2v.16a1.4,1.4,0,0,0,.69,1.15A2.914,2.914,0,0,0-.08-1,2.771,2.771,0,0,0,1.6-1.47a1.423,1.423,0,0,0,.64-1.19,1.092,1.092,0,0,0-.33-.82,2.373,2.373,0,0,0-.78-.5Q.68-4.16-.26-4.44A14.322,14.322,0,0,1-2.1-5.08a3.383,3.383,0,0,1-1.21-.89A2.145,2.145,0,0,1-3.8-7.42a2.431,2.431,0,0,1,1-2.04,4.251,4.251,0,0,1,2.64-.76,4.962,4.962,0,0,1,1.95.36,3.043,3.043,0,0,1,1.31.99,2.334,2.334,0,0,1,.46,1.41v.06a.177.177,0,0,1-.2.2H2.42a.177.177,0,0,1-.2-.2v-.06A1.36,1.36,0,0,0,1.57-8.6,2.975,2.975,0,0,0-.18-9.06a2.93,2.93,0,0,0-1.64.41,1.286,1.286,0,0,0-.62,1.13,1.145,1.145,0,0,0,.6,1.04,8.181,8.181,0,0,0,1.86.72,18.766,18.766,0,0,1,1.88.64,3.457,3.457,0,0,1,1.24.87,2.125,2.125,0,0,1,.52,1.49A2.487,2.487,0,0,1,2.64-.68,4.329,4.329,0,0,1-.06.1ZM14-6.76a10.172,10.172,0,0,1,.08,1.4v.64a.177.177,0,0,1-.2.2H7.42a.071.071,0,0,0-.08.08,8.927,8.927,0,0,0,.12,1.42A2.392,2.392,0,0,0,8.4-1.6a3.065,3.065,0,0,0,1.84.52,2.844,2.844,0,0,0,1.48-.38,2.614,2.614,0,0,0,1-1.08q.12-.18.28-.08l.78.46a.2.2,0,0,1,.08.28,3.6,3.6,0,0,1-1.5,1.51,4.694,4.694,0,0,1-2.3.55A4.211,4.211,0,0,1,7.68-.5,3.647,3.647,0,0,1,6.3-2.34,8.214,8.214,0,0,1,5.94-5.1q0-.84.03-1.37a4.364,4.364,0,0,1,.15-.95A3.7,3.7,0,0,1,7.49-9.5a4,4,0,0,1,2.49-.78,3.938,3.938,0,0,1,2.8.92A4.262,4.262,0,0,1,14-6.76ZM9.98-9.04a2.56,2.56,0,0,0-1.63.51A2.363,2.363,0,0,0,7.5-7.16,6.477,6.477,0,0,0,7.34-5.8a.071.071,0,0,0,.08.08H12.6a.071.071,0,0,0,.08-.08,8.991,8.991,0,0,0-.12-1.28,2.527,2.527,0,0,0-.89-1.43A2.64,2.64,0,0,0,9.98-9.04Zm11.32-.1a.177.177,0,0,1-.2.2H18.84a.071.071,0,0,0-.08.08v5.9a1.762,1.762,0,0,0,.43,1.35,1.967,1.967,0,0,0,1.35.39h.5a.177.177,0,0,1,.2.2V-.2a.177.177,0,0,1-.2.2q-.24.02-.74.02a3.677,3.677,0,0,1-2.18-.54,2.33,2.33,0,0,1-.74-2V-8.86a.071.071,0,0,0-.08-.08H16.08a.177.177,0,0,1-.2-.2v-.78a.177.177,0,0,1,.2-.2H17.3a.071.071,0,0,0,.08-.08v-2.32a.177.177,0,0,1,.2-.2h.98a.177.177,0,0,1,.2.2v2.32a.071.071,0,0,0,.08.08H21.1a.177.177,0,0,1,.2.2Zm-70.33,19.8a3.806,3.806,0,0,1,2.83,1.08,3.86,3.86,0,0,1,1.07,2.84,3.728,3.728,0,0,1-1.09,2.8,3.941,3.941,0,0,1-2.87,1.06h-3.9a.071.071,0,0,0-.08.08v5.96a.177.177,0,0,1-.2.2h-1.02a.177.177,0,0,1-.2-.2V10.863a.177.177,0,0,1,.2-.2Zm-.16,6.6a2.617,2.617,0,0,0,1.92-.73,2.59,2.59,0,0,0,.74-1.93,2.649,2.649,0,0,0-.74-1.96,2.6,2.6,0,0,0-1.92-.74h-3.8a.071.071,0,0,0-.08.08v5.2a.071.071,0,0,0,.08.08Zm13.8.66a10.172,10.172,0,0,1,.08,1.4v.64a.177.177,0,0,1-.2.2h-6.46a.071.071,0,0,0-.08.08,8.927,8.927,0,0,0,.12,1.42,2.392,2.392,0,0,0,.94,1.42,3.065,3.065,0,0,0,1.84.52,2.844,2.844,0,0,0,1.48-.38,2.614,2.614,0,0,0,1-1.08q.12-.18.28-.08l.78.46a.2.2,0,0,1,.08.28,3.6,3.6,0,0,1-1.5,1.51,4.694,4.694,0,0,1-2.3.55,4.211,4.211,0,0,1-2.38-.68,3.647,3.647,0,0,1-1.38-1.84,8.214,8.214,0,0,1-.36-2.76q0-.84.03-1.37a4.364,4.364,0,0,1,.15-.95,3.7,3.7,0,0,1,1.37-2.08,4,4,0,0,1,2.49-.78,3.938,3.938,0,0,1,2.8.92A4.262,4.262,0,0,1-35.39,17.923Zm-4.02-2.28a2.56,2.56,0,0,0-1.63.51,2.363,2.363,0,0,0-.85,1.37,6.477,6.477,0,0,0-.16,1.36.071.071,0,0,0,.08.08h5.18a.071.071,0,0,0,.08-.08,8.991,8.991,0,0,0-.12-1.28,2.527,2.527,0,0,0-.89-1.43A2.64,2.64,0,0,0-39.41,15.643Zm11-1.18a2.36,2.36,0,0,1,1.14.26.211.211,0,0,1,.12.26l-.22.98a.17.17,0,0,1-.26.12,2.035,2.035,0,0,0-.78-.14l-.26.02a2.382,2.382,0,0,0-1.72.77,2.608,2.608,0,0,0-.68,1.85v5.9a.177.177,0,0,1-.2.2h-1.02a.177.177,0,0,1-.2-.2v-9.72a.177.177,0,0,1,.2-.2h1.02a.177.177,0,0,1,.2.2v1.22q0,.06.03.07t.05-.03a3.185,3.185,0,0,1,1.07-1.15A2.77,2.77,0,0,1-28.41,14.463Zm7.48-2.54a1.864,1.864,0,0,0-1.5.49,2.679,2.679,0,0,0-.4,1.67v.4a.071.071,0,0,0,.08.08h2.24a.177.177,0,0,1,.2.2v.9a.177.177,0,0,1-.2.2h-2.24a.071.071,0,0,0-.08.08v8.54a.177.177,0,0,1-.2.2h-1a.177.177,0,0,1-.2-.2v-8.54a.071.071,0,0,0-.08-.08h-1.34a.177.177,0,0,1-.2-.2v-.9a.177.177,0,0,1,.2-.2h1.34a.071.071,0,0,0,.08-.08V14a5.467,5.467,0,0,1,.28-1.95,1.879,1.879,0,0,1,.97-1.04,4.569,4.569,0,0,1,1.93-.33h.58a.177.177,0,0,1,.2.2v.84a.177.177,0,0,1-.2.2Zm6.04,12.92a4.166,4.166,0,0,1-2.48-.74,3.791,3.791,0,0,1-1.44-2.04,8.722,8.722,0,0,1-.28-2.46,8.5,8.5,0,0,1,.28-2.44,3.69,3.69,0,0,1,1.42-2.02,4.233,4.233,0,0,1,2.52-.74,4.087,4.087,0,0,1,2.45.74,3.707,3.707,0,0,1,1.41,2,8.345,8.345,0,0,1,.28,2.46,8.224,8.224,0,0,1-.28,2.46,3.71,3.71,0,0,1-1.41,2.04A4.121,4.121,0,0,1-14.89,24.843Zm0-1.24a2.587,2.587,0,0,0,1.64-.53,2.605,2.605,0,0,0,.92-1.43,8.77,8.77,0,0,0,.18-2.02,9.656,9.656,0,0,0-.16-2.02,2.584,2.584,0,0,0-.93-1.43,2.66,2.66,0,0,0-1.67-.53,2.618,2.618,0,0,0-1.66.53,2.605,2.605,0,0,0-.92,1.43,9.656,9.656,0,0,0-.16,2.02,9.656,9.656,0,0,0,.16,2.02,2.487,2.487,0,0,0,.91,1.43A2.692,2.692,0,0,0-14.89,23.6Zm11.12-9.14a2.36,2.36,0,0,1,1.14.26.211.211,0,0,1,.12.26l-.22.98a.17.17,0,0,1-.26.12,2.035,2.035,0,0,0-.78-.14l-.26.02a2.382,2.382,0,0,0-1.72.77,2.608,2.608,0,0,0-.68,1.85v5.9a.177.177,0,0,1-.2.2H-7.65a.177.177,0,0,1-.2-.2v-9.72a.177.177,0,0,1,.2-.2h1.02a.177.177,0,0,1,.2.2v1.22q0,.06.03.07t.05-.03a3.185,3.185,0,0,1,1.07-1.15A2.77,2.77,0,0,1-3.77,14.463Zm13.44-.04a3.143,3.143,0,0,1,2.37.9,3.39,3.39,0,0,1,.87,2.46v6.7a.177.177,0,0,1-.2.2h-1a.177.177,0,0,1-.2-.2v-6.42a2.407,2.407,0,0,0-.63-1.75,2.194,2.194,0,0,0-1.65-.65,2.332,2.332,0,0,0-1.71.64,2.3,2.3,0,0,0-.65,1.72v6.46a.177.177,0,0,1-.2.2H5.65a.177.177,0,0,1-.2-.2v-6.42a2.43,2.43,0,0,0-.62-1.75,2.187,2.187,0,0,0-1.66-.65,2.264,2.264,0,0,0-1.69.64,2.345,2.345,0,0,0-.63,1.72v6.46a.177.177,0,0,1-.2.2H-.37a.177.177,0,0,1-.2-.2v-9.72a.177.177,0,0,1,.2-.2H.65a.177.177,0,0,1,.2.2v.8a.046.046,0,0,0,.03.05q.03.01.07-.03a2.708,2.708,0,0,1,1.13-.87,3.911,3.911,0,0,1,1.53-.29,3.551,3.551,0,0,1,1.78.42,2.691,2.691,0,0,1,1.12,1.22q.04.1.1,0a2.868,2.868,0,0,1,1.24-1.23A3.934,3.934,0,0,1,9.67,14.423Zm9.8-.02a3.907,3.907,0,0,1,2.78.92,3.189,3.189,0,0,1,.98,2.44v6.72a.177.177,0,0,1-.2.2H22.01a.177.177,0,0,1-.2-.2v-.82a.067.067,0,0,0-.03-.06q-.03-.02-.07.02a3.123,3.123,0,0,1-1.3.91,4.89,4.89,0,0,1-1.78.31,3.854,3.854,0,0,1-2.38-.72,2.572,2.572,0,0,1-.96-2.2,2.87,2.87,0,0,1,1.09-2.37,4.738,4.738,0,0,1,3.03-.87h2.32a.071.071,0,0,0,.08-.08v-.76a2.22,2.22,0,0,0-.57-1.61,2.363,2.363,0,0,0-1.77-.59,2.937,2.937,0,0,0-1.56.37,1.549,1.549,0,0,0-.74,1.03.212.212,0,0,1-.24.18l-1.08-.14q-.22-.04-.18-.16a2.579,2.579,0,0,1,1.2-1.82A4.555,4.555,0,0,1,19.47,14.4Zm-.56,9.22a3.517,3.517,0,0,0,2.04-.59,1.836,1.836,0,0,0,.86-1.59v-1.56a.071.071,0,0,0-.08-.08h-2.1a3.729,3.729,0,0,0-2.12.54,1.712,1.712,0,0,0-.8,1.5,1.548,1.548,0,0,0,.61,1.33A2.613,2.613,0,0,0,18.91,23.623Zm11.48-9.2a3.467,3.467,0,0,1,2.55.94,3.385,3.385,0,0,1,.95,2.52v6.6a.177.177,0,0,1-.2.2H32.67a.177.177,0,0,1-.2-.2v-6.32a2.5,2.5,0,0,0-.67-1.8,2.288,2.288,0,0,0-1.73-.7,2.334,2.334,0,0,0-2.46,2.46v6.36a.177.177,0,0,1-.2.2H26.39a.177.177,0,0,1-.2-.2v-9.72a.177.177,0,0,1,.2-.2h1.02a.177.177,0,0,1,.2.2v.86a.067.067,0,0,0,.03.06q.03.02.05-.02A3.087,3.087,0,0,1,30.39,14.423Zm10.26,10.42a4.082,4.082,0,0,1-2.47-.75,3.757,3.757,0,0,1-1.41-2.03,9.183,9.183,0,0,1-.26-2.48,9.835,9.835,0,0,1,.26-2.44,3.637,3.637,0,0,1,1.4-1.99,4.126,4.126,0,0,1,2.48-.75,4.337,4.337,0,0,1,2.53.74,3.3,3.3,0,0,1,1.51,2.44v.04q0,.14-.18.18l-1,.14h-.04q-.14,0-.18-.18l-.06-.3a2.248,2.248,0,0,0-.88-1.29,2.735,2.735,0,0,0-1.7-.53,2.608,2.608,0,0,0-1.67.53,2.424,2.424,0,0,0-.87,1.41,9.093,9.093,0,0,0-.18,2.02,8.885,8.885,0,0,0,.18,2.04,2.432,2.432,0,0,0,.87,1.43,2.608,2.608,0,0,0,1.67.53,2.82,2.82,0,0,0,1.69-.51,2.16,2.16,0,0,0,.89-1.31V21.7l.02-.08q.02-.2.24-.16l.98.16q.2.04.18.22l-.08.4a3.168,3.168,0,0,1-1.38,1.88A4.472,4.472,0,0,1,40.65,24.843Zm14.28-6.92a10.172,10.172,0,0,1,.08,1.4v.64a.177.177,0,0,1-.2.2H48.35a.071.071,0,0,0-.08.08,8.927,8.927,0,0,0,.12,1.42,2.392,2.392,0,0,0,.94,1.42,3.065,3.065,0,0,0,1.84.52,2.844,2.844,0,0,0,1.48-.38,2.614,2.614,0,0,0,1-1.08q.12-.18.28-.08l.78.46a.2.2,0,0,1,.08.28,3.6,3.6,0,0,1-1.5,1.51,4.694,4.694,0,0,1-2.3.55,4.211,4.211,0,0,1-2.38-.68,3.647,3.647,0,0,1-1.38-1.84,8.214,8.214,0,0,1-.36-2.76q0-.84.03-1.37a4.364,4.364,0,0,1,.15-.95,3.7,3.7,0,0,1,1.37-2.08,4,4,0,0,1,2.49-.78,3.938,3.938,0,0,1,2.8.92A4.262,4.262,0,0,1,54.93,17.923Zm-4.02-2.28a2.56,2.56,0,0,0-1.63.51,2.363,2.363,0,0,0-.85,1.37,6.476,6.476,0,0,0-.16,1.36.071.071,0,0,0,.08.08h5.18a.071.071,0,0,0,.08-.08,8.991,8.991,0,0,0-.12-1.28,2.527,2.527,0,0,0-.89-1.43A2.64,2.64,0,0,0,50.91,15.643Z" transform="translate(804.858 534.991)" fill="#fff"/>
    <path id="Path_325" data-name="Path 325" d="M-15.81.18a5.268,5.268,0,0,1-2.46-.55,4.005,4.005,0,0,1-1.65-1.56,4.534,4.534,0,0,1-.59-2.33v-5.5a4.44,4.44,0,0,1,.59-2.3,4.025,4.025,0,0,1,1.65-1.55,5.268,5.268,0,0,1,2.46-.55,5.349,5.349,0,0,1,2.46.54A4,4,0,0,1-11.7-12.1a4.3,4.3,0,0,1,.59,2.26.216.216,0,0,1-.06.16.192.192,0,0,1-.14.06l-1.02.06q-.2,0-.2-.18V-9.8a2.975,2.975,0,0,0-.9-2.27,3.324,3.324,0,0,0-2.38-.85,3.3,3.3,0,0,0-2.38.86,2.983,2.983,0,0,0-.9,2.26v5.6a2.983,2.983,0,0,0,.9,2.26,3.3,3.3,0,0,0,2.38.86,3.324,3.324,0,0,0,2.38-.85,2.975,2.975,0,0,0,.9-2.27v-.04q0-.18.2-.18l1.02.06q.2,0,.2.18a4.387,4.387,0,0,1-.59,2.29A3.979,3.979,0,0,1-13.35-.36,5.349,5.349,0,0,1-15.81.18ZM-4.37.16A4.166,4.166,0,0,1-6.85-.58,3.791,3.791,0,0,1-8.29-2.62a8.722,8.722,0,0,1-.28-2.46,8.5,8.5,0,0,1,.28-2.44A3.69,3.69,0,0,1-6.87-9.54a4.233,4.233,0,0,1,2.52-.74,4.087,4.087,0,0,1,2.45.74,3.707,3.707,0,0,1,1.41,2A8.346,8.346,0,0,1-.21-5.08,8.224,8.224,0,0,1-.49-2.62,3.71,3.71,0,0,1-1.9-.58,4.121,4.121,0,0,1-4.37.16Zm0-1.24a2.587,2.587,0,0,0,1.64-.53,2.605,2.605,0,0,0,.92-1.43,8.77,8.77,0,0,0,.18-2.02,9.656,9.656,0,0,0-.16-2.02,2.584,2.584,0,0,0-.93-1.43,2.66,2.66,0,0,0-1.67-.53,2.618,2.618,0,0,0-1.66.53,2.605,2.605,0,0,0-.92,1.43,9.656,9.656,0,0,0-.16,2.02,9.656,9.656,0,0,0,.16,2.02,2.487,2.487,0,0,0,.91,1.43A2.692,2.692,0,0,0-4.37-1.08ZM5.99.1A5.168,5.168,0,0,1,4-.26a3.218,3.218,0,0,1-1.34-.96,2.119,2.119,0,0,1-.47-1.34V-2.8a.177.177,0,0,1,.2-.2h.96a.177.177,0,0,1,.2.2v.16a1.4,1.4,0,0,0,.69,1.15A2.914,2.914,0,0,0,5.97-1a2.771,2.771,0,0,0,1.68-.47,1.423,1.423,0,0,0,.64-1.19,1.092,1.092,0,0,0-.33-.82,2.373,2.373,0,0,0-.78-.5q-.45-.18-1.39-.46a14.322,14.322,0,0,1-1.84-.64,3.383,3.383,0,0,1-1.21-.89,2.145,2.145,0,0,1-.49-1.45,2.431,2.431,0,0,1,1-2.04,4.251,4.251,0,0,1,2.64-.76,4.962,4.962,0,0,1,1.95.36,3.043,3.043,0,0,1,1.31.99,2.334,2.334,0,0,1,.46,1.41v.06a.177.177,0,0,1-.2.2H8.47a.177.177,0,0,1-.2-.2v-.06A1.36,1.36,0,0,0,7.62-8.6a2.975,2.975,0,0,0-1.75-.46,2.93,2.93,0,0,0-1.64.41,1.286,1.286,0,0,0-.62,1.13,1.145,1.145,0,0,0,.6,1.04,8.181,8.181,0,0,0,1.86.72,18.766,18.766,0,0,1,1.88.64,3.457,3.457,0,0,1,1.24.87,2.125,2.125,0,0,1,.52,1.49A2.487,2.487,0,0,1,8.69-.68,4.329,4.329,0,0,1,5.99.1ZM16.81-9.14a.177.177,0,0,1-.2.2H14.35a.071.071,0,0,0-.08.08v5.9a1.762,1.762,0,0,0,.43,1.35,1.967,1.967,0,0,0,1.35.39h.5a.177.177,0,0,1,.2.2V-.2a.177.177,0,0,1-.2.2q-.24.02-.74.02a3.677,3.677,0,0,1-2.18-.54,2.33,2.33,0,0,1-.74-2V-8.86a.071.071,0,0,0-.08-.08H11.59a.177.177,0,0,1-.2-.2v-.78a.177.177,0,0,1,.2-.2h1.22a.071.071,0,0,0,.08-.08v-2.32a.177.177,0,0,1,.2-.2h.98a.177.177,0,0,1,.2.2v2.32a.071.071,0,0,0,.08.08h2.26a.177.177,0,0,1,.2.2Zm-42.55,34a5.268,5.268,0,0,1-2.46-.55,4.005,4.005,0,0,1-1.65-1.56,4.534,4.534,0,0,1-.59-2.33v-5.5a4.44,4.44,0,0,1,.59-2.3,4.025,4.025,0,0,1,1.65-1.55,5.268,5.268,0,0,1,2.46-.55,5.349,5.349,0,0,1,2.46.54,4,4,0,0,1,1.65,1.52,4.3,4.3,0,0,1,.59,2.26.216.216,0,0,1-.06.16.192.192,0,0,1-.14.06l-1.02.06q-.2,0-.2-.18v-.06a2.975,2.975,0,0,0-.9-2.27,3.324,3.324,0,0,0-2.38-.85,3.3,3.3,0,0,0-2.38.86,2.983,2.983,0,0,0-.9,2.26v5.6a2.983,2.983,0,0,0,.9,2.26,3.3,3.3,0,0,0,2.38.86,3.324,3.324,0,0,0,2.38-.85,2.975,2.975,0,0,0,.9-2.27v-.04q0-.18.2-.18l1.02.06q.2,0,.2.18a4.387,4.387,0,0,1-.59,2.29,3.979,3.979,0,0,1-1.65,1.53A5.349,5.349,0,0,1-25.74,24.863Zm11.44-.02a4.166,4.166,0,0,1-2.48-.74,3.791,3.791,0,0,1-1.44-2.04,8.722,8.722,0,0,1-.28-2.46,8.5,8.5,0,0,1,.28-2.44,3.69,3.69,0,0,1,1.42-2.02,4.233,4.233,0,0,1,2.52-.74,4.087,4.087,0,0,1,2.45.74,3.707,3.707,0,0,1,1.41,2,8.345,8.345,0,0,1,.28,2.46,8.224,8.224,0,0,1-.28,2.46,3.71,3.71,0,0,1-1.41,2.04A4.121,4.121,0,0,1-14.3,24.843Zm0-1.24a2.587,2.587,0,0,0,1.64-.53,2.605,2.605,0,0,0,.92-1.43,8.77,8.77,0,0,0,.18-2.02,9.656,9.656,0,0,0-.16-2.02,2.584,2.584,0,0,0-.93-1.43,2.66,2.66,0,0,0-1.67-.53,2.618,2.618,0,0,0-1.66.53,2.605,2.605,0,0,0-.92,1.43,9.656,9.656,0,0,0-.16,2.02,9.656,9.656,0,0,0,.16,2.02,2.487,2.487,0,0,0,.91,1.43A2.692,2.692,0,0,0-14.3,23.6Zm11.24-9.18a3.467,3.467,0,0,1,2.55.94,3.385,3.385,0,0,1,.95,2.52v6.6a.177.177,0,0,1-.2.2H-.78a.177.177,0,0,1-.2-.2v-6.32a2.5,2.5,0,0,0-.67-1.8,2.288,2.288,0,0,0-1.73-.7,2.407,2.407,0,0,0-1.78.68,2.407,2.407,0,0,0-.68,1.78v6.36a.177.177,0,0,1-.2.2H-7.06a.177.177,0,0,1-.2-.2v-9.72a.177.177,0,0,1,.2-.2h1.02a.177.177,0,0,1,.2.2v.86a.067.067,0,0,0,.03.06q.03.02.05-.02A3.087,3.087,0,0,1-3.06,14.423Zm11.12,1.12a.177.177,0,0,1-.2.2H5.6a.071.071,0,0,0-.08.08v5.9a1.762,1.762,0,0,0,.43,1.35,1.967,1.967,0,0,0,1.35.39h.5a.177.177,0,0,1,.2.2v.82a.177.177,0,0,1-.2.2q-.24.02-.74.02a3.677,3.677,0,0,1-2.18-.54,2.33,2.33,0,0,1-.74-2v-6.34a.071.071,0,0,0-.08-.08H2.84a.177.177,0,0,1-.2-.2v-.78a.177.177,0,0,1,.2-.2H4.06a.071.071,0,0,0,.08-.08v-2.32a.177.177,0,0,1,.2-.2h.98a.177.177,0,0,1,.2.2v2.32a.071.071,0,0,0,.08.08H7.86a.177.177,0,0,1,.2.2Zm6.82-1.08a2.36,2.36,0,0,1,1.14.26.211.211,0,0,1,.12.26l-.22.98a.17.17,0,0,1-.26.12,2.035,2.035,0,0,0-.78-.14l-.26.02a2.382,2.382,0,0,0-1.72.77,2.608,2.608,0,0,0-.68,1.85v5.9a.177.177,0,0,1-.2.2H11a.177.177,0,0,1-.2-.2v-9.72a.177.177,0,0,1,.2-.2h1.02a.177.177,0,0,1,.2.2v1.22q0,.06.03.07t.05-.03a3.185,3.185,0,0,1,1.07-1.15A2.77,2.77,0,0,1,14.88,14.463Zm6.96,10.38a4.166,4.166,0,0,1-2.48-.74,3.791,3.791,0,0,1-1.44-2.04,8.722,8.722,0,0,1-.28-2.46,8.5,8.5,0,0,1,.28-2.44,3.69,3.69,0,0,1,1.42-2.02,4.233,4.233,0,0,1,2.52-.74,4.087,4.087,0,0,1,2.45.74,3.707,3.707,0,0,1,1.41,2A8.345,8.345,0,0,1,26,19.6a8.224,8.224,0,0,1-.28,2.46,3.71,3.71,0,0,1-1.41,2.04A4.121,4.121,0,0,1,21.84,24.843Zm0-1.24a2.543,2.543,0,0,0,2.56-1.96,8.77,8.77,0,0,0,.18-2.02,9.656,9.656,0,0,0-.16-2.02,2.584,2.584,0,0,0-.93-1.43,2.66,2.66,0,0,0-1.67-.53,2.545,2.545,0,0,0-2.58,1.96,9.656,9.656,0,0,0-.16,2.02,9.656,9.656,0,0,0,.16,2.02,2.487,2.487,0,0,0,.91,1.43A2.692,2.692,0,0,0,21.84,23.6Zm7.24,1.08a.177.177,0,0,1-.2-.2v-13.6a.177.177,0,0,1,.2-.2H30.1a.177.177,0,0,1,.2.2v13.6a.177.177,0,0,1-.2.2Z" transform="translate(1110.858 534.991)" fill="#fff"/>
  </g>
</svg>
