<svg xmlns="http://www.w3.org/2000/svg" xmlns:xlink="http://www.w3.org/1999/xlink" width="554.029" height="555.59" viewBox="0 0 554.029 555.59">
  <defs>
    <linearGradient id="linear-gradient" x1="-0.134" y1="0.506" x2="0.866" y2="0.506" gradientUnits="objectBoundingBox">
      <stop offset="0.141" stop-color="#fdb616"/>
      <stop offset="0.223" stop-color="#fba91b"/>
      <stop offset="0.373" stop-color="#f8862a"/>
      <stop offset="0.575" stop-color="#f34f43"/>
      <stop offset="0.724" stop-color="#ef2357"/>
    </linearGradient>
  </defs>
  <g id="Group_311" data-name="Group 311" transform="translate(-363.073 -8440)">
    <path id="Path_207" data-name="Path 207" d="M844.848,716.338a274.693,274.693,0,0,1-24.08-548.305A274.689,274.689,0,1,1,869.83,715.215Q857.3,716.339,844.848,716.338Zm.9-546.963q-12.337,0-24.759,1.113a271.6,271.6,0,1,0,24.759-1.113Z" transform="translate(-206.422 8279.252)" fill="url(#linear-gradient)"/>
    <g id="Component_52_1" data-name="Component 52 – 1" transform="translate(388.237 8482.254)">
      <path id="Path_198" data-name="Path 198" d="M811.977,370.85c1.277-.661,2.565-1.284,3.857-1.882l-66.048-150.8q-6.753,3.024-13.412,6.459a260.371,260.371,0,0,0-131.6,161.871L763.633,429.68A96.187,96.187,0,0,1,811.977,370.85Z" transform="translate(-604.773 -218.164)" fill="#3d1152"/>
      <text id="Translate_into_actionable_tasks" data-name="Translate into
actionable tasks" transform="translate(62.2 116.196)" fill="#fff" font-size="12" font-family="Muli-Regular, Muli"><tspan x="0" y="0">Translate into</tspan><tspan x="0" y="16">actionable tasks</tspan></text>
      <text id="_7" data-name="7" transform="translate(101.717 83.475)" fill="#f70656" font-size="30" font-family="Barlow-Light, Barlow" font-weight="300"><tspan x="0" y="0">7</tspan></text>
      <g id="Group_221" data-name="Group 221" transform="translate(32.553 58.434)">
        <ellipse id="Ellipse_78" data-name="Ellipse 78" cx="5.506" cy="5.506" rx="5.506" ry="5.506" transform="translate(1.123 1.126)" fill="#040005"/>
        <path id="Path_216" data-name="Path 216" d="M1263.964,322.246a6.615,6.615,0,1,1,.363-.009C1264.205,322.243,1264.084,322.246,1263.964,322.246Zm.013-11.012c-.081,0-.16,0-.24.006a4.379,4.379,0,1,0,3.492,7.3h0a4.38,4.38,0,0,0-3.252-7.306Z" transform="translate(-1257.342 -308.981)" fill="#fdbb2b"/>
      </g>
      <rect id="Rectangle_87" data-name="Rectangle 87" width="25.375" height="25.375" transform="matrix(0.087, 0.996, -0.996, 0.087, 189.921, 162.997)" fill="#3d1152" opacity="0"/>
      <g id="exam-test-quiz" transform="translate(215.346 201.567)" opacity="0">
        <g id="_Grupo_" data-name="&lt;Grupo&gt;" transform="translate(0 22.065)">
          <g id="Group_269" data-name="Group 269">
            <path id="Path_249" data-name="Path 249" d="M373,1367a4.413,4.413,0,0,1,4.413,4.413v31.994" transform="translate(-313.424 -1367)" fill="none" stroke="#fff" stroke-linejoin="round" stroke-width="2"/>
            <path id="Path_250" data-name="Path 250" d="M323,1403.408v-31.994a4.413,4.413,0,0,1,4.413-4.413" transform="translate(-318.587 -1367)" fill="none" stroke="#fff" stroke-linejoin="round" stroke-width="2"/>
            <path id="Path_251" data-name="Path 251" d="M380.782,1409.62H325.62A6.619,6.619,0,0,1,319,1403h26.478v2.206h15.446V1403H387.4A6.62,6.62,0,0,1,380.782,1409.62Z" transform="translate(-319 -1363.283)" fill="none" stroke="#fff" stroke-linecap="round" stroke-linejoin="round" stroke-width="2"/>
          </g>
        </g>
        <g id="Group_276" data-name="Group 276" transform="translate(12.136)">
          <g id="Group_270" data-name="Group 270">
            <path id="Path_252" data-name="Path 252" d="M374.13,1401.06v-51.853a2.207,2.207,0,0,0-2.207-2.207H332.207a2.207,2.207,0,0,0-2.207,2.207v51.853" transform="translate(-330 -1347)" fill="none" stroke="#fff" stroke-linecap="square" stroke-linejoin="round" stroke-width="2"/>
          </g>
          <g id="Group_275" data-name="Group 275" transform="translate(8.826 9.659)">
            <g id="Group_271" data-name="Group 271" transform="translate(0.125 0)">
              <rect id="Rectangle_100" data-name="Rectangle 100" width="7" height="9" transform="translate(0.33 -0.479)" stroke-width="2" stroke="#fff" stroke-linecap="round" stroke-linejoin="round" fill="none"/>
              <line id="Line_91" data-name="Line 91" x2="13" transform="translate(14.33 5.521)" fill="none" stroke="#fff" stroke-linecap="round" stroke-linejoin="round" stroke-width="2"/>
            </g>
            <g id="Group_272" data-name="Group 272" transform="translate(0.125 32.7)">
              <rect id="Rectangle_101" data-name="Rectangle 101" width="7" height="7" transform="translate(0.33 -0.179)" stroke-width="2" stroke="#fff" stroke-linecap="round" stroke-linejoin="round" fill="none"/>
              <line id="Line_92" data-name="Line 92" x2="13" transform="translate(14.33 2.821)" fill="none" stroke="#fff" stroke-linecap="round" stroke-linejoin="round" stroke-width="2"/>
            </g>
            <g id="Group_274" data-name="Group 274" transform="translate(0 15.715)">
              <g id="Group_273" data-name="Group 273">
                <path id="Path_253" data-name="Path 253" d="M338,1373.31l3.31,3.31,4.413-6.62" transform="translate(-338 -1370)" fill="none" stroke="#fff" stroke-linecap="round" stroke-linejoin="round" stroke-width="2"/>
              </g>
              <line id="Line_93" data-name="Line 93" x2="13" transform="translate(14.455 4.805)" fill="none" stroke="#fff" stroke-linecap="round" stroke-linejoin="round" stroke-width="2"/>
            </g>
          </g>
        </g>
      </g>
    </g>
    <g id="Component_45_2" data-name="Component 45 – 2" transform="translate(535.826 8440)">
      <path id="Path_201" data-name="Path 201" d="M960.04,360.017l74.708-146.72a260.771,260.771,0,0,0-220.38-5.831l66.044,150.793A96.335,96.335,0,0,1,960.04,360.017Z" transform="translate(-814.368 -166.351)" fill="#6b04a8"/>
      <g id="Group_211" data-name="Group 211" transform="translate(102.733)">
        <ellipse id="Ellipse_72" data-name="Ellipse 72" cx="5.506" cy="5.506" rx="5.506" ry="5.506" transform="translate(1.127 1.126)" fill="#fff"/>
        <path id="Path_210" data-name="Path 210" d="M966.892,171.423a6.647,6.647,0,1,1,.181,0Zm0-11.012-.12,0a4.36,4.36,0,1,0,.12,0Z" transform="translate(-960.261 -158.158)" fill="#fff"/>
      </g>
      <text id="Create_a_four-dimensional_plan_of_approach" data-name="Create a 
four-dimensional
plan of approach" transform="translate(57.387 88.479)" fill="#fff" font-size="12" font-family="Muli-Regular, Muli"><tspan x="0" y="0">Create a </tspan><tspan x="0" y="16">four-dimensional</tspan><tspan x="0" y="32">plan of approach</tspan></text>
      <text id="_1" data-name="1" transform="translate(103.274 63.432)" fill="#f70656" font-size="27" font-family="Barlow-Light, Barlow" font-weight="300"><tspan x="0" y="0">1</tspan></text>
      <rect id="Rectangle_88" data-name="Rectangle 88" width="25.375" height="25.375" transform="translate(122.399 184.796) rotate(135)" fill="#6b04a8"/>
      <g id="network" transform="translate(68.407 244.283)">
        <rect id="Rectangle_102" data-name="Rectangle 102" width="15" height="16" rx="2" transform="translate(26.767 49.717)" stroke-width="2" stroke="#fff" stroke-linecap="round" stroke-linejoin="round" fill="none"/>
        <rect id="Rectangle_103" data-name="Rectangle 103" width="16" height="16" rx="2" transform="translate(52.767 49.717)" stroke-width="2" stroke="#fff" stroke-linecap="round" stroke-linejoin="round" fill="none"/>
        <rect id="Rectangle_104" data-name="Rectangle 104" width="17" height="16" rx="2" transform="translate(-0.233 49.717)" stroke-width="2" stroke="#fff" stroke-linecap="round" stroke-linejoin="round" fill="none"/>
        <line id="Line_94" data-name="Line 94" y1="28" transform="translate(34.767 21.717)" fill="none" stroke="#fff" stroke-linecap="round" stroke-linejoin="round" stroke-width="2"/>
        <path id="Path_254" data-name="Path 254" d="M534.956,1395.342v-12.136A2.205,2.205,0,0,0,532.75,1381H484.207a2.205,2.205,0,0,0-2.207,2.206v12.136" transform="translate(-473.823 -1345.055)" fill="none" stroke="#fff" stroke-linecap="round" stroke-linejoin="round" stroke-width="2"/>
        <path id="Rectangle_105" data-name="Rectangle 105" d="M2.065,0h19.87A2.065,2.065,0,0,1,24,2.065V19.936A2.064,2.064,0,0,1,21.936,22H2.065A2.065,2.065,0,0,1,0,19.935V2.065A2.065,2.065,0,0,1,2.065,0Z" transform="translate(22.767 -0.283)" fill="none" stroke="#fff" stroke-linecap="round" stroke-linejoin="round" stroke-width="2"/>
      </g>
    </g>
    <g id="Component_46_2" data-name="Component 46 – 2" transform="translate(606 8488.216)">
      <g id="Group_213" data-name="Group 213" transform="translate(241.572 57.41)">
        <ellipse id="Ellipse_74" data-name="Ellipse 74" cx="5.506" cy="5.506" rx="5.506" ry="5.506" transform="translate(1.128 1.128)" fill="#0a010f"/>
        <path id="Path_212" data-name="Path 212" d="M655.807,315.158a6.631,6.631,0,1,1,5.435-2.817A6.6,6.6,0,0,1,655.807,315.158Zm.018-11.01a4.38,4.38,0,1,0,2.509.8A4.366,4.366,0,0,0,655.825,304.148Z" transform="translate(-649.182 -301.894)" fill="#f65756"/>
      </g>
      <path id="Path_200" data-name="Path 200" d="M1066.236,414.739a96.99,96.99,0,0,1,6.547,16.006l158.387-45.01a261.721,261.721,0,0,0-131.646-159.1l-74.7,146.7A96.021,96.021,0,0,1,1066.236,414.739Z" transform="translate(-946.804 -226.631)" fill="#3d1152"/>
      <text id="Build_APM_framework_including_Process_People_Systems_Data_and_Culture" data-name="Build APM 
framework including 
Process, People, 
Systems, Data and 
Culture" transform="translate(123.706 99.671)" fill="#fff" font-size="12" font-family="Muli-Regular, Muli"><tspan x="0" y="0">Build APM </tspan><tspan x="0" y="16">framework including </tspan><tspan x="0" y="32">Process, People, </tspan><tspan x="0" y="48">Systems, Data and </tspan><tspan x="0" y="64">Culture</tspan></text>
      <text id="_2" data-name="2" transform="translate(164.391 78.512)" fill="#f70656" font-size="31" font-family="Barlow-Light, Barlow" font-weight="300"><tspan x="0" y="0">2</tspan></text>
      <rect id="Rectangle_89" data-name="Rectangle 89" width="25.375" height="25.375" transform="translate(122.6 161.939) rotate(97)" fill="#3d1152" opacity="0"/>
      <g id="Group_264" data-name="Group 264" transform="translate(0.277 200.154)" opacity="0">
        <ellipse id="Ellipse_95" data-name="Ellipse 95" cx="4" cy="5" rx="4" ry="5" transform="translate(29.723 -0.37)" fill="none" stroke="#fff" stroke-linecap="round" stroke-linejoin="round" stroke-width="2"/>
        <ellipse id="Ellipse_96" data-name="Ellipse 96" cx="5" cy="4" rx="5" ry="4" transform="translate(7.723 9.63)" fill="none" stroke="#fff" stroke-linecap="round" stroke-linejoin="round" stroke-width="2"/>
        <ellipse id="Ellipse_97" data-name="Ellipse 97" cx="4" cy="4.5" rx="4" ry="4.5" transform="translate(-0.277 29.63)" fill="none" stroke="#fff" stroke-linecap="round" stroke-linejoin="round" stroke-width="2"/>
        <ellipse id="Ellipse_98" data-name="Ellipse 98" cx="5" cy="4.5" rx="5" ry="4.5" transform="translate(7.723 50.63)" fill="none" stroke="#fff" stroke-linecap="round" stroke-linejoin="round" stroke-width="2"/>
        <ellipse id="Ellipse_99" data-name="Ellipse 99" cx="4" cy="4.5" rx="4" ry="4.5" transform="translate(29.723 59.63)" fill="none" stroke="#fff" stroke-linecap="round" stroke-linejoin="round" stroke-width="2"/>
        <ellipse id="Ellipse_100" data-name="Ellipse 100" cx="5" cy="4.5" rx="5" ry="4.5" transform="translate(49.723 50.63)" fill="none" stroke="#fff" stroke-linecap="round" stroke-linejoin="round" stroke-width="2"/>
        <ellipse id="Ellipse_101" data-name="Ellipse 101" cx="4" cy="4.5" rx="4" ry="4.5" transform="translate(59.723 29.63)" fill="none" stroke="#fff" stroke-linecap="round" stroke-linejoin="round" stroke-width="2"/>
        <ellipse id="Ellipse_102" data-name="Ellipse 102" cx="5" cy="4" rx="5" ry="4" transform="translate(49.723 9.63)" fill="none" stroke="#fff" stroke-linecap="round" stroke-linejoin="round" stroke-width="2"/>
        <ellipse id="Ellipse_103" data-name="Ellipse 103" cx="4" cy="4.5" rx="4" ry="4.5" transform="translate(29.723 29.63)" fill="none" stroke="#fff" stroke-linecap="round" stroke-linejoin="round" stroke-width="2"/>
        <line id="Line_65" data-name="Line 65" x1="6.62" transform="translate(43.092 34.064)" fill="none" stroke="#fff" stroke-linecap="round" stroke-linejoin="round" stroke-width="2"/>
        <line id="Line_66" data-name="Line 66" x1="4.067" y2="1.712" transform="translate(21.2 7.833)" fill="none" stroke="#fff" stroke-linecap="square" stroke-linejoin="round" stroke-width="2"/>
        <line id="Line_67" data-name="Line 67" x1="1.665" y2="4.087" transform="translate(7.507 21.539)" fill="none" stroke="#fff" stroke-linecap="square" stroke-linejoin="round" stroke-width="2"/>
        <line id="Line_68" data-name="Line 68" x2="1.712" y2="4.067" transform="translate(7.483 42.511)" fill="none" stroke="#fff" stroke-linecap="square" stroke-linejoin="round" stroke-width="2"/>
        <line id="Line_69" data-name="Line 69" x2="4.087" y2="1.665" transform="translate(21.19 58.606)" fill="none" stroke="#fff" stroke-linecap="square" stroke-linejoin="round" stroke-width="2"/>
        <line id="Line_70" data-name="Line 70" y1="1.712" x2="4.067" transform="translate(42.162 58.582)" fill="none" stroke="#fff" stroke-linecap="square" stroke-linejoin="round" stroke-width="2"/>
        <line id="Line_71" data-name="Line 71" y1="4.087" x2="1.665" transform="translate(58.257 42.501)" fill="none" stroke="#fff" stroke-linecap="square" stroke-linejoin="round" stroke-width="2"/>
        <line id="Line_72" data-name="Line 72" x1="1.712" y1="4.067" transform="translate(58.233 21.549)" fill="none" stroke="#fff" stroke-linecap="square" stroke-linejoin="round" stroke-width="2"/>
        <line id="Line_73" data-name="Line 73" x1="4.087" y1="1.665" transform="translate(42.152 7.856)" fill="none" stroke="#fff" stroke-linecap="square" stroke-linejoin="round" stroke-width="2"/>
        <line id="Line_74" data-name="Line 74" x2="8.826" y2="3.645" transform="translate(21.163 16.625)" fill="none" stroke="#fff" stroke-linecap="round" stroke-linejoin="round" stroke-width="2"/>
        <line id="Line_75" data-name="Line 75" x2="17.344" y2="7.163" transform="translate(28.782 44.33)" fill="none" stroke="#fff" stroke-linecap="round" stroke-linejoin="round" stroke-width="2"/>
        <line id="Line_76" data-name="Line 76" x2="8.584" y2="3.545" transform="translate(12.476 37.596)" fill="none" stroke="#fff" stroke-linecap="round" stroke-linejoin="round" stroke-width="2"/>
        <line id="Line_77" data-name="Line 77" y1="3.645" x2="8.826" transform="translate(37.539 16.537)" fill="none" stroke="#fff" stroke-linecap="round" stroke-linejoin="round" stroke-width="2"/>
        <line id="Line_78" data-name="Line 78" y2="11.033" transform="translate(33.714 13.653)" fill="none" stroke="#fff" stroke-linecap="square" stroke-linejoin="round" stroke-width="2"/>
        <line id="Line_79" data-name="Line 79" y1="7" x2="8" transform="translate(19.723 40.63)" fill="none" stroke="#fff" stroke-linecap="square" stroke-linejoin="round" stroke-width="2"/>
        <line id="Line_80" data-name="Line 80" x1="8" y1="7" transform="translate(39.723 40.63)" fill="none" stroke="#fff" stroke-linecap="square" stroke-linejoin="round" stroke-width="2"/>
        <line id="Line_81" data-name="Line 81" x2="3.557" y2="8.613" transform="translate(26.625 46.689)" fill="none" stroke="#fff" stroke-linecap="round" stroke-linejoin="round" stroke-width="2"/>
        <line id="Line_82" data-name="Line 82" x2="13.093" y2="5.407" transform="translate(37.624 23.423)" fill="none" stroke="#fff" stroke-linecap="round" stroke-linejoin="round" stroke-width="2"/>
        <line id="Line_83" data-name="Line 83" x2="3.122" y2="7.56" transform="translate(20.337 31.464)" fill="none" stroke="#fff" stroke-linecap="round" stroke-linejoin="round" stroke-width="2"/>
        <line id="Line_84" data-name="Line 84" x2="1.105" y2="2.675" transform="translate(16.285 21.651)" fill="none" stroke="#fff" stroke-linecap="round" stroke-linejoin="round" stroke-width="2"/>
        <line id="Line_85" data-name="Line 85" y2="23.168" transform="translate(54.676 22.479)" fill="none" stroke="#fff" stroke-linecap="round" stroke-linejoin="round" stroke-width="2"/>
        <line id="Line_86" data-name="Line 86" y1="7.29" x2="17.652" transform="translate(12.22 23.348)" fill="none" stroke="#fff" stroke-linecap="round" stroke-linejoin="round" stroke-width="2"/>
      </g>
    </g>
    <g id="Component_49_1" data-name="Component 49 – 1" transform="translate(416.851 8683.82)">
      <path id="Path_203" data-name="Path 203" d="M853.046,673.193l-2.774-.484a96.311,96.311,0,0,1-64.1-44.173L645.408,713.9A260.712,260.712,0,0,0,823.2,835.106l2.776.475a280.158,280.158,0,0,0,40.791,3.464V674.37A119.815,119.815,0,0,1,853.046,673.193Z" transform="translate(-645.408 -541.135)" fill="#3d1152"/>
      <g id="Group_214" data-name="Group 214" transform="translate(67.975 261.527)">
        <ellipse id="Ellipse_75" data-name="Ellipse 75" cx="5.506" cy="5.506" rx="5.506" ry="5.506" transform="translate(1.129 1.128)"/>
        <path id="Path_213" data-name="Path 213" d="M1151.222,898.487a6.655,6.655,0,1,1,1.154-.1A6.684,6.684,0,0,1,1151.222,898.487Zm.022-11.014a4.431,4.431,0,0,0-.762.066,4.379,4.379,0,0,0-1.765,7.9h0a4.379,4.379,0,1,0,2.527-7.963Z" transform="translate(-1144.601 -885.218)" fill="#fc992d"/>
      </g>
      <text id="Prioritize_your_assets_based_on_business_risk" data-name="Prioritize your assets
based on business risk" transform="translate(51.942 186.229)" fill="#fff" font-size="12" font-family="Muli-Regular, Muli"><tspan x="0" y="0">Prioritize your assets</tspan><tspan x="0" y="16">based on business risk</tspan></text>
      <text id="_5" data-name="5" transform="translate(112.776 162.659)" fill="#f70656" font-size="30" font-family="Barlow-Light, Barlow" font-weight="300"><tspan x="0" y="0">5</tspan></text>
      <rect id="Rectangle_90" data-name="Rectangle 90" width="25.375" height="25.375" transform="translate(182.183 103.219) rotate(76)" fill="#3d1152" opacity="0"/>
      <g id="caution-attention_works-constructions_signs" data-name="caution-attention works-constructions signs" transform="translate(186.733)" opacity="0">
        <g id="Group_265" data-name="Group 265" transform="translate(29.948 19.858)">
          <ellipse id="Ellipse_104" data-name="Ellipse 104" cx="4" cy="4.5" rx="4" ry="4.5" transform="translate(0.468 35.321)" fill="none" stroke="#fff" stroke-linecap="round" stroke-linejoin="round" stroke-width="2"/>
          <path id="Path_243" data-name="Path 243" d="M662.393,2771h.011a4.248,4.248,0,0,1,4.245,4.4l-.819,22.079a3.431,3.431,0,0,1-3.429,3.3h-.007a3.431,3.431,0,0,1-3.429-3.3l-.818-22.079A4.246,4.246,0,0,1,662.393,2771Z" transform="translate(-658.145 -2771)" fill="none" stroke="#fff" stroke-linecap="round" stroke-linejoin="round" stroke-width="2"/>
        </g>
        <path id="Path_244" data-name="Path 244" d="M676.234,2812.576h18.32a4.948,4.948,0,0,0,4.192-7.421l-29.351-49.681a4.792,4.792,0,0,0-8.387,0l-29.351,49.681a4.948,4.948,0,0,0,4.192,7.421h18.32" transform="translate(-631 -2753)" fill="none" stroke="#fff" stroke-linecap="square" stroke-linejoin="round" stroke-width="2"/>
      </g>
    </g>
    <g id="Component_48_1" data-name="Component 48 – 1" transform="translate(603.583 8683.82)">
      <path id="Path_204" data-name="Path 204" d="M1006.788,665.483c-14.454,7.473-27.809,10.929-43.021,10.783v164.65c40.713.164,79.953-9.214,118.624-29.207a259.921,259.921,0,0,0,96.05-85.113l-136.7-91.8A96.031,96.031,0,0,1,1006.788,665.483Z" transform="translate(-926.324 -542.987)" fill="#3d1152"/>
      <g id="Group_212" data-name="Group 212" transform="translate(176.22 261.526)">
        <ellipse id="Ellipse_73" data-name="Ellipse 73" cx="5.506" cy="5.506" rx="5.506" ry="5.506" transform="translate(1.127 1.126)"/>
        <path id="Path_211" data-name="Path 211" d="M749.151,889.079a6.641,6.641,0,0,1-6.628-6.454h0a6.632,6.632,0,1,1,6.809,6.452Zm-4.375-6.514a4.379,4.379,0,1,0,7.389-3.3,4.379,4.379,0,0,0-7.389,3.3Z" transform="translate(-742.521 -875.815)" fill="#f76666"/>
      </g>
      <text id="Build_APM_roadmap_to_future_improvements" data-name="Build APM 
roadmap to future 
improvements" transform="translate(64.719 186.23)" fill="#fff" font-size="12" font-family="Muli-Regular, Muli"><tspan x="0" y="0">Build APM </tspan><tspan x="0" y="16">roadmap to future </tspan><tspan x="0" y="32">improvements</tspan></text>
      <text id="_4" data-name="4" transform="translate(90.563 162.661)" fill="#f70656" font-size="30" font-family="Barlow-Light, Barlow" font-weight="300"><tspan x="0" y="0">4</tspan></text>
      <rect id="Rectangle_91" data-name="Rectangle 91" width="25.375" height="25.375" transform="translate(98.989 112.108) rotate(106)" fill="#3d1152" opacity="0"/>
      <g id="construction_tools" data-name="construction tools" opacity="0">
        <g id="Group_266" data-name="Group 266" transform="translate(0.15)">
          <path id="Path_245" data-name="Path 245" d="M224.79,782.349l-4.576,4.577a2.157,2.157,0,0,1-3.053,0l-19.073-19.073,7.629-7.629L224.79,779.3A2.157,2.157,0,0,1,224.79,782.349Z" transform="translate(-159.527 -719.156)" fill="none" stroke="#fff" stroke-linecap="square" stroke-linejoin="round" stroke-width="2"/>
          <path id="Path_246" data-name="Path 246" d="M187.2,754.15l16.021,16.02,4.577-4.576-16.021-16.024.762-.762a1.077,1.077,0,0,0,0-1.526l-2.949-2.949a4.138,4.138,0,0,1-.617-5.2,4.049,4.049,0,0,1,6.236-.626l4.2-4.2a2.159,2.159,0,0,0,0-3.052l-7.63-7.63a2.16,2.16,0,0,0-3.052,0l-4.2,4.2a4.046,4.046,0,1,1-5.721,5.721L166.9,745.462a12.431,12.431,0,0,0-3.258,12.32,10.316,10.316,0,0,0,4.2,5.715,10.233,10.233,0,0,1,2.958-8.2,10.13,10.13,0,0,1,14.171-.276,1.062,1.062,0,0,0,1.439-.081l1.557-1.551" transform="translate(-163.136 -723)" fill="none" stroke="#fff" stroke-linecap="round" stroke-linejoin="round" stroke-width="2"/>
        </g>
        <g id="Group_268" data-name="Group 268" transform="translate(0 0)">
          <path id="Path_247" data-name="Path 247" d="M206.358,739.294a11.005,11.005,0,0,1,13.422-15.628l-7.058,7.056v3.12l3.5,3.5h3.12l7.058-7.056a11.028,11.028,0,0,1-15.644,13.437" transform="translate(-158.663 -723)" fill="none" stroke="#fff" stroke-linecap="round" stroke-linejoin="round" stroke-width="2"/>
          <path id="Path_248" data-name="Path 248" d="M179.309,766.343a11.018,11.018,0,0,0-15.643,13.438l7.056-7.057h3.12l3.5,3.5v3.12l-7.056,7.056a11.028,11.028,0,0,0,13.437-15.643" transform="translate(-163 -718.663)" fill="none" stroke="#fff" stroke-linecap="round" stroke-linejoin="round" stroke-width="2"/>
          <g id="Group_267" data-name="Group 267" transform="translate(14.78 14.78)">
            <line id="Line_87" data-name="Line 87" x1="10.595" y2="10.595" transform="translate(28.247 6.62)" fill="none" stroke="#fff" stroke-linecap="round" stroke-linejoin="round" stroke-width="2"/>
            <line id="Line_88" data-name="Line 88" x1="8.389" y2="8.389" transform="translate(6.62 30.454)" fill="none" stroke="#fff" stroke-linecap="round" stroke-linejoin="round" stroke-width="2"/>
            <line id="Line_89" data-name="Line 89" x1="8.389" y2="8.389" transform="translate(0 23.834)" fill="none" stroke="#fff" stroke-linecap="round" stroke-linejoin="round" stroke-width="2"/>
            <line id="Line_90" data-name="Line 90" x1="10.595" y2="10.595" transform="translate(21.628)" fill="none" stroke="#fff" stroke-linecap="round" stroke-linejoin="round" stroke-width="2"/>
          </g>
        </g>
      </g>
    </g>
    <g id="Component_47_1" data-name="Component 47 – 1" transform="translate(603.583 8650.027)">
      <g id="Group_222" data-name="Group 222" transform="translate(300.254 90.876)">
        <ellipse id="Ellipse_74-2" data-name="Ellipse 74" cx="5.506" cy="5.506" rx="5.506" ry="5.506" transform="translate(1.128 1.128)"/>
        <path id="Path_212-2" data-name="Path 212" d="M655.807,315.158a6.631,6.631,0,1,1,5.435-2.817A6.6,6.6,0,0,1,655.807,315.158Zm.018-11.01a4.38,4.38,0,1,0,2.509.8A4.366,4.366,0,0,0,655.825,304.148Z" transform="translate(-649.182 -301.894)" fill="#f65756"/>
      </g>
      <path id="Path_202" data-name="Path 202" d="M1247.31,456.424l-158.382,45.009a96.6,96.6,0,0,1-12.19,78.259l136.692,91.793A261.454,261.454,0,0,0,1247.31,456.424Z" transform="translate(-959.745 -456.424)" fill="#3d1152"/>
      <text id="Compare_current_state_vs_ambitions" data-name="Compare current
state vs ambitions" transform="translate(154.865 92.141)" fill="#fff" font-size="12" font-family="Muli-Regular, Muli"><tspan x="0" y="0">Compare current</tspan><tspan x="0" y="16">state vs ambitions</tspan></text>
      <text id="_3" data-name="3" transform="translate(202.401 61.904)" fill="#f70656" font-size="30" font-family="Barlow-Light, Barlow" font-weight="300"><tspan x="0" y="0">3</tspan></text>
      <rect id="Rectangle_92" data-name="Rectangle 92" width="25.375" height="25.375" transform="translate(133.233 67.326) rotate(53)" fill="#3d1152" opacity="0"/>
      <g id="Group_263" data-name="Group 263" transform="translate(0 35.999)" opacity="0">
        <path id="Path_239" data-name="Path 239" d="M1320.638,899.708a34.2,34.2,0,1,1-17.944-17.943" transform="translate(-1255 -879)" fill="none" stroke="#fff" stroke-linecap="round" stroke-linejoin="round" stroke-width="2"/>
        <path id="Path_240" data-name="Path 240" d="M1311.366,907.019a23.72,23.72,0,1,1-17.946-17.946" transform="translate(-1254.019 -878.019)" fill="none" stroke="#fff" stroke-linecap="round" stroke-linejoin="round" stroke-width="2"/>
        <path id="Path_241" data-name="Path 241" d="M1300.345,909.356a13.239,13.239,0,1,1-11.223-11.222" transform="translate(-1253.038 -877.038)" fill="none" stroke="#fff" stroke-linecap="round" stroke-linejoin="round" stroke-width="2"/>
        <circle id="Ellipse_94" data-name="Ellipse 94" cx="2" cy="2" r="2" transform="translate(32.417 31.973)" stroke-width="2" stroke="#fff" stroke-linecap="round" stroke-linejoin="round" fill="none"/>
        <line id="Line_64" data-name="Line 64" y1="7.021" x2="7.021" transform="translate(34.201 27.18)" fill="none" stroke="#fff" stroke-linecap="round" stroke-linejoin="round" stroke-width="2"/>
        <path id="Path_242" data-name="Path 242" d="M1292.437,905.972l-.78-10.142,14.822-14.822.78,10.142,10.142.78-14.822,14.822Z" transform="translate(-1251.215 -878.793)" fill="none" stroke="#fff" stroke-linecap="square" stroke-miterlimit="10" stroke-width="2"/>
      </g>
    </g>
    <g id="Component_51_2" data-name="Component 51 – 2" transform="translate(363.073 8653.3)">
      <path id="Union_1" data-name="Union 1" d="M29.218,187.233A260.121,260.121,0,0,1,8.883,0L167.742,43.187a96.818,96.818,0,0,0-3.079,23.041l-2.942-2.2L146.583,84.287,161.721,64.03l2.942,2.2a95.751,95.751,0,0,0,4.467,30.133,97.167,97.167,0,0,0,6.312,15.27q1.021,1.971,2.119,3.868L36.788,200.867Q32.828,194.206,29.218,187.233Z" transform="translate(15.538)" fill="#3d1152" stroke="rgba(0,0,0,0)" stroke-miterlimit="10" stroke-width="1"/>
      <g id="Group_215" data-name="Group 215" transform="translate(0 102.639)">
        <ellipse id="Ellipse_76" data-name="Ellipse 76" cx="5.506" cy="5.506" rx="5.506" ry="5.506" transform="translate(1.128 1.128)" fill="#0b0b0b"/>
        <path id="Path_214" data-name="Path 214" d="M575.67,620.1a6.639,6.639,0,1,1,1.466-.165h0A6.592,6.592,0,0,1,575.67,620.1Zm0-11.012a4.379,4.379,0,1,0,.968,8.65h0a4.379,4.379,0,0,0-.968-8.65Z" transform="translate(-569.037 -606.832)" fill="#ffbc00"/>
      </g>
      <text id="Create_innovation_digital_transformation_investment_plan_with_ROI" data-name="Create 
innovation/ digital 
transformation
investment plan
with ROI" transform="translate(51.225 78.38)" fill="#fff" font-size="12" font-family="Muli-Regular, Muli"><tspan x="0" y="0">Create </tspan><tspan x="0" y="16">innovation/ digital </tspan><tspan x="0" y="32">transformation</tspan><tspan x="0" y="48">investment plan</tspan><tspan x="0" y="64">with ROI</tspan></text>
      <text id="_6" data-name="6" transform="translate(86.984 58.632)" fill="#f70656" font-size="30" font-family="Barlow-Light, Barlow" font-weight="300"><tspan x="0" y="0">6</tspan></text>
      <rect id="Rectangle_86" data-name="Rectangle 86" width="25.375" height="25.375" transform="matrix(0.616, -0.788, 0.788, 0.616, 163.677, 84.009)" fill="#3d1152" opacity="0"/>
      <g id="creative_idea-innovation" data-name="creative idea-innovation" transform="translate(241.205 29.657)" opacity="0">
        <g id="Group_219" data-name="Group 219" transform="translate(25.616)">
          <path id="Path_218" data-name="Path 218" d="M962.208,593.343h0a5.568,5.568,0,0,0,5.568,5.568h5.568a5.569,5.569,0,0,0,5.569-5.568h0" transform="translate(-951.07 -529.86)" fill="none" stroke="#fff" stroke-linecap="round" stroke-linejoin="round" stroke-width="2"/>
          <g id="Group_218" data-name="Group 218" transform="translate(8.966)">
            <line id="Line_41" data-name="Line 41" y2="2.227" transform="translate(11.082)" fill="none" stroke="#fff" stroke-linecap="round" stroke-linejoin="round" stroke-width="2"/>
            <line id="Line_42" data-name="Line 42" y1="1.575" x2="1.638" transform="translate(29.92 8.155)" fill="none" stroke="#fff" stroke-linecap="round" stroke-linejoin="round" stroke-width="2"/>
            <line id="Line_43" data-name="Line 43" y1="2.058" x2="0.888" transform="translate(21.276 2.12)" fill="none" stroke="#fff" stroke-linecap="round" stroke-linejoin="round" stroke-width="2"/>
            <line id="Line_44" data-name="Line 44" x1="0.886" y1="2.058" transform="translate(0 2.12)" fill="none" stroke="#fff" stroke-linecap="round" stroke-linejoin="round" stroke-width="2"/>
          </g>
          <path id="Path_219" data-name="Path 219" d="M957.529,561.506s-.875-4.619-2.638-6.935c-4.045-5.317-8.5-11.836-8.5-18.681a20.047,20.047,0,1,1,40.095,0l3.341,10.024h-5.568V552.6a4.455,4.455,0,0,1-4.455,4.455h-1.847a3.342,3.342,0,0,0-3.241,2.531h0a16.1,16.1,0,0,0-.48,3.908v2.471H957.529" transform="translate(-946.391 -506.932)" fill="none" stroke="#fff" stroke-linecap="round" stroke-linejoin="round" stroke-width="2"/>
          <path id="Path_220" data-name="Path 220" d="M968.244,563.713c0-6.682,0-13.365-4.454-17.82h15.592c-4.455,4.455-4.455,11.138-4.455,17.82" transform="translate(-951.538 -515.822)" fill="none" stroke="#fff" stroke-linecap="round" stroke-linejoin="round" stroke-width="2"/>
        </g>
        <g id="Group_220" data-name="Group 220" transform="translate(0 8.91)">
          <path id="Path_221" data-name="Path 221" d="M940.084,515.842h-3.341a2.227,2.227,0,0,0-2.227,2.227v.936a2.228,2.228,0,0,1-1.375,2.058l-5.719,2.369a2.226,2.226,0,0,1-2.427-.483l-.662-.661a2.228,2.228,0,0,0-3.15,0l-4.724,4.725a2.226,2.226,0,0,0,0,3.15l1.187,1.188a1.114,1.114,0,0,1,.241,1.213l-2.653,6.406a2.226,2.226,0,0,1-2.058,1.375h-.935a2.228,2.228,0,0,0-2.228,2.228v6.682a2.228,2.228,0,0,0,2.228,2.228h.935a2.228,2.228,0,0,1,2.058,1.374l2.369,5.719A2.23,2.23,0,0,1,917.12,561l-.661.662a2.226,2.226,0,0,0,0,3.15l4.724,4.725a2.226,2.226,0,0,0,3.15,0l.662-.661a2.228,2.228,0,0,1,2.427-.483l5.719,2.369a2.229,2.229,0,0,1,1.375,2.058v.935a2.227,2.227,0,0,0,2.227,2.227H941.2" transform="translate(-910.013 -515.842)" fill="none" stroke="#fff" stroke-linecap="round" stroke-linejoin="round" stroke-width="2"/>
          <path id="Path_222" data-name="Path 222" d="M934.952,545.893a15.595,15.595,0,0,0,12.8,24.5h5.568" transform="translate(-916.564 -524.732)" fill="none" stroke="#fff" stroke-linecap="round" stroke-linejoin="round" stroke-width="2"/>
        </g>
      </g>
    </g>
  </g>
</svg>
