<svg xmlns="http://www.w3.org/2000/svg" xmlns:xlink="http://www.w3.org/1999/xlink" width="420.367" height="269.449" viewBox="0 0 420.367 269.449">
  <defs>
    <clipPath id="clip-path">
      <path id="Path_294" data-name="Path 294" d="M2014.1-1092.43a44.775,44.775,0,0,1-44.724-44.725,44.563,44.563,0,0,1,12.415-30.9l-16.005-16.005a59.525,59.525,0,0,1-41.482,16.8,59.525,59.525,0,0,1-41.689-17l-16.2,16.2a44.563,44.563,0,0,1,12.415,30.9,44.776,44.776,0,0,1-44.725,44.725,44.775,44.775,0,0,1-44.724-44.725,44.775,44.775,0,0,1,44.724-44.724,44.565,44.565,0,0,1,30.9,12.415l16.211-16.211a59.526,59.526,0,0,1-16.628-41.309,59.525,59.525,0,0,1,16.8-41.482L1865-1284.845a44.57,44.57,0,0,1-30.9,12.415,44.775,44.775,0,0,1-44.724-44.725,44.775,44.775,0,0,1,44.724-44.724,44.775,44.775,0,0,1,44.725,44.724,44.567,44.567,0,0,1-12.415,30.9l16.378,16.378a59.52,59.52,0,0,1,41.516-16.827,59.519,59.519,0,0,1,41.308,16.628l16.179-16.179a44.567,44.567,0,0,1-12.415-30.9,44.775,44.775,0,0,1,44.724-44.724,44.775,44.775,0,0,1,44.725,44.724,44.776,44.776,0,0,1-44.725,44.725,44.569,44.569,0,0,1-30.9-12.415l-16.172,16.173a59.521,59.521,0,0,1,16.995,41.688,59.52,59.52,0,0,1-16.827,41.515l16,16.005a44.565,44.565,0,0,1,30.9-12.415,44.775,44.775,0,0,1,44.725,44.724A44.776,44.776,0,0,1,2014.1-1092.43Zm0-87.449a42.773,42.773,0,0,0-42.724,42.724,42.773,42.773,0,0,0,42.724,42.725,42.773,42.773,0,0,0,42.725-42.725A42.773,42.773,0,0,0,2014.1-1179.879Zm-180,0a42.773,42.773,0,0,0-42.724,42.724,42.773,42.773,0,0,0,42.724,42.725,42.773,42.773,0,0,0,42.725-42.725A42.773,42.773,0,0,0,1834.1-1179.879Zm90.2-104.829a57.79,57.79,0,0,0-57.725,57.724,57.79,57.79,0,0,0,57.725,57.725,57.79,57.79,0,0,0,57.724-57.725A57.79,57.79,0,0,0,1924.309-1284.708Zm89.8-75.171a42.773,42.773,0,0,0-42.724,42.724,42.773,42.773,0,0,0,42.724,42.725,42.773,42.773,0,0,0,42.725-42.725A42.773,42.773,0,0,0,2014.1-1359.879Zm-180,0a42.773,42.773,0,0,0-42.724,42.724,42.773,42.773,0,0,0,42.724,42.725,42.773,42.773,0,0,0,42.725-42.725A42.773,42.773,0,0,0,1834.1-1359.879Z" fill="none"/>
    </clipPath>
    <linearGradient id="linear-gradient" x1="1.09" y1="0.153" x2="-0.09" y2="0.847" gradientUnits="objectBoundingBox">
      <stop offset="0.125" stop-color="#fdb616"/>
      <stop offset="0.173" stop-color="#fca91a"/>
      <stop offset="0.264" stop-color="#fb8627"/>
      <stop offset="0.385" stop-color="#f94f3b"/>
      <stop offset="0.528" stop-color="#f70656"/>
      <stop offset="0.841" stop-color="#f70656"/>
    </linearGradient>
    <linearGradient id="linear-gradient-2" x1="-0.071" y1="0.103" x2="1.071" y2="0.897" gradientUnits="objectBoundingBox">
      <stop offset="0.127" stop-color="#6b04a8" stop-opacity="0.996"/>
      <stop offset="0.216" stop-color="#6b04a8" stop-opacity="0.922"/>
      <stop offset="0.38" stop-color="#6b04a8" stop-opacity="0.718"/>
      <stop offset="0.602" stop-color="#6b04a8" stop-opacity="0.384"/>
      <stop offset="0.833" stop-color="#6b04a8" stop-opacity="0"/>
    </linearGradient>
  </defs>
  <g id="Group_307" data-name="Group 307" transform="translate(-1717.288 1361.879)">
    <g id="Group_291" data-name="Group 291">
      <path id="Path_339" data-name="Path 339" d="M3.252,0a.14.14,0,0,1-.144-.1L.456-8.268.444-8.316q0-.084.108-.084h.42a.14.14,0,0,1,.144.1L3.444-.984A.038.038,0,0,0,3.48-.96a.038.038,0,0,0,.036-.024L5.868-8.3a.14.14,0,0,1,.144-.1h.4q.132,0,.1.132L3.84-.1A.14.14,0,0,1,3.7,0ZM8.5-7.26a.585.585,0,0,1-.432-.168A.585.585,0,0,1,7.9-7.86a.585.585,0,0,1,.168-.432A.585.585,0,0,1,8.5-8.46a.585.585,0,0,1,.432.168A.585.585,0,0,1,9.1-7.86a.585.585,0,0,1-.168.432A.585.585,0,0,1,8.5-7.26ZM8.268-.012a.106.106,0,0,1-.12-.12V-5.94a.106.106,0,0,1,.12-.12h.4a.106.106,0,0,1,.12.12V-.132a.106.106,0,0,1-.12.12ZM12.96.06a2.928,2.928,0,0,1-1.146-.21,1.858,1.858,0,0,1-.774-.57,1.272,1.272,0,0,1-.276-.792v-.156a.106.106,0,0,1,.12-.12h.372a.106.106,0,0,1,.12.12v.132a.923.923,0,0,0,.444.762,1.89,1.89,0,0,0,1.128.318A1.738,1.738,0,0,0,14.04-.78a.98.98,0,0,0,.42-.8.748.748,0,0,0-.216-.552,1.457,1.457,0,0,0-.51-.33q-.294-.114-.882-.294a9.862,9.862,0,0,1-1.08-.384,1.907,1.907,0,0,1-.69-.51,1.239,1.239,0,0,1-.282-.834,1.391,1.391,0,0,1,.582-1.17,2.48,2.48,0,0,1,1.53-.438,2.807,2.807,0,0,1,1.122.21,1.822,1.822,0,0,1,.756.57,1.325,1.325,0,0,1,.27.816v.036a.106.106,0,0,1-.12.12h-.372a.106.106,0,0,1-.12-.12V-4.5a.91.91,0,0,0-.426-.762A1.882,1.882,0,0,0,12.9-5.568a1.865,1.865,0,0,0-1.08.282.881.881,0,0,0-.408.762.747.747,0,0,0,.378.684,5.429,5.429,0,0,0,1.182.468,9.8,9.8,0,0,1,1.11.384,2.068,2.068,0,0,1,.714.51,1.226,1.226,0,0,1,.3.858A1.479,1.479,0,0,1,14.514-.4,2.429,2.429,0,0,1,12.96.06Zm7.548-5.988a.106.106,0,0,1,.12-.12h.384a.106.106,0,0,1,.12.12V-.12a.106.106,0,0,1-.12.12h-.384a.106.106,0,0,1-.12-.12V-.708q0-.036-.024-.042t-.036.03a1.614,1.614,0,0,1-.678.6,2.3,2.3,0,0,1-1,.2,2.127,2.127,0,0,1-1.476-.528A1.852,1.852,0,0,1,16.7-1.9V-5.928a.106.106,0,0,1,.12-.12h.384a.106.106,0,0,1,.12.12v3.864a1.569,1.569,0,0,0,.426,1.152,1.521,1.521,0,0,0,1.134.432,1.6,1.6,0,0,0,1.176-.438,1.538,1.538,0,0,0,.444-1.146Zm4.716-.216a2.193,2.193,0,0,1,1.608.546,1.974,1.974,0,0,1,.552,1.47V-.12a.106.106,0,0,1-.12.12h-.4a.106.106,0,0,1-.12-.12V-.684A.04.04,0,0,0,26.73-.72q-.018-.012-.042.012a1.95,1.95,0,0,1-.81.6,2.9,2.9,0,0,1-1.11.2,2.318,2.318,0,0,1-1.4-.42,1.484,1.484,0,0,1-.576-1.284,1.687,1.687,0,0,1,.66-1.4,2.871,2.871,0,0,1,1.812-.516H26.7a.042.042,0,0,0,.048-.048v-.54a1.483,1.483,0,0,0-.378-1.068,1.532,1.532,0,0,0-1.158-.4,1.846,1.846,0,0,0-1.008.252,1.058,1.058,0,0,0-.492.672.127.127,0,0,1-.144.108l-.42-.06q-.132-.024-.108-.1a1.522,1.522,0,0,1,.7-1.044A2.615,2.615,0,0,1,25.224-6.144ZM24.876-.456A2.313,2.313,0,0,0,26.19-.828a1.175,1.175,0,0,0,.558-1.032V-2.952A.042.042,0,0,0,26.7-3H25.32a2.375,2.375,0,0,0-1.374.36,1.145,1.145,0,0,0-.522,1,1.032,1.032,0,0,0,.408.888A1.717,1.717,0,0,0,24.876-.456ZM29.412,0a.106.106,0,0,1-.12-.12V-8.28a.106.106,0,0,1,.12-.12h.4a.106.106,0,0,1,.12.12V-.12a.106.106,0,0,1-.12.12ZM39.48,0a.14.14,0,0,1-.144-.1l-.516-1.6a.047.047,0,0,0-.048-.036H35.028a.047.047,0,0,0-.048.036l-.5,1.6a.14.14,0,0,1-.144.1h-.42q-.132,0-.1-.132L36.48-8.3a.14.14,0,0,1,.144-.1h.54a.14.14,0,0,1,.144.1L39.984-.132,40-.084Q40,0,39.888,0ZM35.172-2.316a.033.033,0,0,0,.006.042.058.058,0,0,0,.042.018h3.36a.058.058,0,0,0,.042-.018.033.033,0,0,0,.006-.042l-1.692-5.22A.038.038,0,0,0,36.9-7.56a.038.038,0,0,0-.036.024ZM43.368.06a2.928,2.928,0,0,1-1.146-.21,1.858,1.858,0,0,1-.774-.57,1.272,1.272,0,0,1-.276-.792v-.156a.106.106,0,0,1,.12-.12h.372a.106.106,0,0,1,.12.12v.132a.923.923,0,0,0,.444.762,1.89,1.89,0,0,0,1.128.318A1.738,1.738,0,0,0,44.448-.78a.98.98,0,0,0,.42-.8.748.748,0,0,0-.216-.552,1.457,1.457,0,0,0-.51-.33q-.294-.114-.882-.294a9.862,9.862,0,0,1-1.08-.384,1.907,1.907,0,0,1-.69-.51,1.239,1.239,0,0,1-.282-.834,1.391,1.391,0,0,1,.582-1.17A2.48,2.48,0,0,1,43.32-6.1a2.807,2.807,0,0,1,1.122.21,1.822,1.822,0,0,1,.756.57,1.325,1.325,0,0,1,.27.816v.036a.106.106,0,0,1-.12.12h-.372a.106.106,0,0,1-.12-.12V-4.5a.91.91,0,0,0-.426-.762,1.882,1.882,0,0,0-1.122-.306,1.865,1.865,0,0,0-1.08.282.881.881,0,0,0-.408.762.747.747,0,0,0,.378.684,5.429,5.429,0,0,0,1.182.468,9.8,9.8,0,0,1,1.11.384,2.068,2.068,0,0,1,.714.51,1.226,1.226,0,0,1,.3.858A1.479,1.479,0,0,1,44.922-.4,2.429,2.429,0,0,1,43.368.06Zm5.52,0a2.928,2.928,0,0,1-1.146-.21,1.858,1.858,0,0,1-.774-.57,1.272,1.272,0,0,1-.276-.792v-.156a.106.106,0,0,1,.12-.12h.372a.106.106,0,0,1,.12.12v.132a.923.923,0,0,0,.444.762,1.89,1.89,0,0,0,1.128.318A1.738,1.738,0,0,0,49.968-.78a.98.98,0,0,0,.42-.8.748.748,0,0,0-.216-.552,1.457,1.457,0,0,0-.51-.33q-.294-.114-.882-.294a9.862,9.862,0,0,1-1.08-.384,1.907,1.907,0,0,1-.69-.51,1.239,1.239,0,0,1-.282-.834,1.391,1.391,0,0,1,.582-1.17A2.48,2.48,0,0,1,48.84-6.1a2.807,2.807,0,0,1,1.122.21,1.822,1.822,0,0,1,.756.57,1.325,1.325,0,0,1,.27.816v.036a.106.106,0,0,1-.12.12H50.5a.106.106,0,0,1-.12-.12V-4.5a.91.91,0,0,0-.426-.762,1.882,1.882,0,0,0-1.122-.306,1.865,1.865,0,0,0-1.08.282.881.881,0,0,0-.408.762.747.747,0,0,0,.378.684,5.429,5.429,0,0,0,1.182.468,9.8,9.8,0,0,1,1.11.384,2.068,2.068,0,0,1,.714.51,1.226,1.226,0,0,1,.3.858A1.479,1.479,0,0,1,50.442-.4,2.429,2.429,0,0,1,48.888.06Zm6.1-.528a1.75,1.75,0,0,0,.966-.258,1.766,1.766,0,0,0,.63-.714q.06-.108.156-.06l.312.156q.108.06.06.156a2.073,2.073,0,0,1-.834.936A2.517,2.517,0,0,1,54.936.1a2.443,2.443,0,0,1-1.428-.408,2.042,2.042,0,0,1-.8-1.116,3.226,3.226,0,0,1-.132-.672q-.036-.372-.036-.936,0-.588.018-.888a3.219,3.219,0,0,1,.078-.552,2.147,2.147,0,0,1,.786-1.212,2.323,2.323,0,0,1,1.458-.456,2.315,2.315,0,0,1,1.572.51,2.267,2.267,0,0,1,.732,1.41,4.635,4.635,0,0,1,.048.534q.012.306.012.762a.106.106,0,0,1-.12.12H53.208a.042.042,0,0,0-.048.048,5.438,5.438,0,0,0,.06,1.02,1.534,1.534,0,0,0,.594.93A1.914,1.914,0,0,0,54.984-.468Zm-1.74-3.864a5.26,5.26,0,0,0-.084.936.042.042,0,0,0,.048.048h3.348A.042.042,0,0,0,56.6-3.4a4.971,4.971,0,0,0-.06-.9,1.613,1.613,0,0,0-.576-.93,1.7,1.7,0,0,0-1.092-.354,1.686,1.686,0,0,0-1.08.342A1.521,1.521,0,0,0,53.244-4.332Zm8.3-1.3a.106.106,0,0,1-.12.12h-1.4a.042.042,0,0,0-.048.048v3.792a1.109,1.109,0,0,0,.276.858,1.316,1.316,0,0,0,.888.246h.276a.106.106,0,0,1,.12.12V-.12a.106.106,0,0,1-.12.12l-.36.012A2.073,2.073,0,0,1,59.79-.312,1.44,1.44,0,0,1,59.352-1.5V-5.46a.042.042,0,0,0-.048-.048h-.72a.106.106,0,0,1-.12-.12v-.3a.106.106,0,0,1,.12-.12h.72a.042.042,0,0,0,.048-.048V-7.464a.106.106,0,0,1,.12-.12h.384a.106.106,0,0,1,.12.12V-6.1a.042.042,0,0,0,.048.048h1.4a.106.106,0,0,1,.12.12ZM3.7,14.508a3.081,3.081,0,0,1-1.44-.324,2.326,2.326,0,0,1-.966-.918A2.68,2.68,0,0,1,.948,11.9V8.484a2.615,2.615,0,0,1,.342-1.35,2.349,2.349,0,0,1,.966-.906A3.081,3.081,0,0,1,3.7,5.9a3.1,3.1,0,0,1,1.428.318,2.321,2.321,0,0,1,.966.894,2.559,2.559,0,0,1,.342,1.332V8.46a.13.13,0,0,1-.036.1.115.115,0,0,1-.084.036l-.4.024A.106.106,0,0,1,5.8,8.5V8.46A1.9,1.9,0,0,0,5.22,7.014,2.124,2.124,0,0,0,3.7,6.468a2.141,2.141,0,0,0-1.536.546A1.9,1.9,0,0,0,1.584,8.46v3.48a1.909,1.909,0,0,0,.582,1.452,2.132,2.132,0,0,0,1.53.552,2.111,2.111,0,0,0,1.524-.552A1.919,1.919,0,0,0,5.8,11.94v-.024q0-.108.12-.108l.4.024q.12,0,.12.108a2.591,2.591,0,0,1-.342,1.338,2.349,2.349,0,0,1-.966.906A3.054,3.054,0,0,1,3.7,14.508Zm6.816-.012a2.353,2.353,0,0,1-1.44-.444,2.2,2.2,0,0,1-.816-1.188,6.17,6.17,0,0,1-.132-1.5,6.013,6.013,0,0,1,.132-1.488,2.178,2.178,0,0,1,.81-1.182,2.389,2.389,0,0,1,1.458-.438A2.379,2.379,0,0,1,11.97,8.7a2.124,2.124,0,0,1,.81,1.176,3.4,3.4,0,0,1,.1.618q.024.342.024.87,0,.552-.024.888a3.384,3.384,0,0,1-.1.612,2.125,2.125,0,0,1-.81,1.188A2.4,2.4,0,0,1,10.512,14.5Zm0-.564a1.7,1.7,0,0,0,1.086-.354,1.6,1.6,0,0,0,.582-.93,6.14,6.14,0,0,0,.084-1.272,7.019,7.019,0,0,0-.072-1.272,1.58,1.58,0,0,0-.582-.936,1.741,1.741,0,0,0-1.1-.348,1.716,1.716,0,0,0-1.092.348,1.591,1.591,0,0,0-.576.936,6.58,6.58,0,0,0-.084,1.272,6.58,6.58,0,0,0,.084,1.272,1.591,1.591,0,0,0,.576.936A1.716,1.716,0,0,0,10.512,13.932Zm6.66-5.664a2.032,2.032,0,0,1,1.494.564,2,2,0,0,1,.57,1.488v3.96a.106.106,0,0,1-.12.12h-.4a.106.106,0,0,1-.12-.12V10.44a1.6,1.6,0,0,0-.432-1.158,1.493,1.493,0,0,0-1.128-.45,1.586,1.586,0,0,0-1.164.438,1.538,1.538,0,0,0-.444,1.146V14.28a.106.106,0,0,1-.12.12h-.4a.106.106,0,0,1-.12-.12V8.472a.106.106,0,0,1,.12-.12h.4a.106.106,0,0,1,.12.12V9.06q0,.036.018.042t.03-.018a1.731,1.731,0,0,1,.7-.606A2.251,2.251,0,0,1,17.172,8.268Zm7.74-2.148a.106.106,0,0,1,.12-.12h.4a.106.106,0,0,1,.12.12v8.16a.106.106,0,0,1-.12.12h-.4a.106.106,0,0,1-.12-.12v-.588q0-.036-.018-.042t-.042.018a1.709,1.709,0,0,1-.672.612,2.043,2.043,0,0,1-.948.216,2.2,2.2,0,0,1-1.38-.432,2.145,2.145,0,0,1-.768-1.164,2.8,2.8,0,0,1-.108-.618q-.024-.342-.024-.894t.024-.888a3.412,3.412,0,0,1,.1-.624,2.048,2.048,0,0,1,.75-1.182,2.245,2.245,0,0,1,1.41-.438,2.043,2.043,0,0,1,.948.216,1.709,1.709,0,0,1,.672.612q.012.036.036.03t.024-.042ZM24.756,12.8a2.13,2.13,0,0,0,.114-.516q.03-.288.03-.9a8.515,8.515,0,0,0-.036-.93,2.556,2.556,0,0,0-.12-.534,1.5,1.5,0,0,0-.51-.8,1.43,1.43,0,0,0-.93-.306,1.574,1.574,0,0,0-.972.306,1.5,1.5,0,0,0-.552.786,1.813,1.813,0,0,0-.15.522,7.441,7.441,0,0,0-.042.942,8.01,8.01,0,0,0,.036.906,2.558,2.558,0,0,0,.12.522,1.389,1.389,0,0,0,.54.816,1.643,1.643,0,0,0,1.008.312,1.431,1.431,0,0,0,.942-.312A1.6,1.6,0,0,0,24.756,12.8ZM28.128,7.14a.575.575,0,1,1,.432-.168A.585.585,0,0,1,28.128,7.14ZM27.9,14.388a.106.106,0,0,1-.12-.12V8.46a.106.106,0,0,1,.12-.12h.4a.106.106,0,0,1,.12.12v5.808a.106.106,0,0,1-.12.12Zm5.328-5.616a.106.106,0,0,1-.12.12H31.7a.042.042,0,0,0-.048.048v3.792a1.109,1.109,0,0,0,.276.858,1.316,1.316,0,0,0,.888.246H33.1a.106.106,0,0,1,.12.12v.324a.106.106,0,0,1-.12.12l-.36.012a2.073,2.073,0,0,1-1.266-.324,1.44,1.44,0,0,1-.438-1.188V8.94a.042.042,0,0,0-.048-.048h-.72a.106.106,0,0,1-.12-.12v-.3a.106.106,0,0,1,.12-.12h.72a.042.042,0,0,0,.048-.048V6.936a.106.106,0,0,1,.12-.12h.384a.106.106,0,0,1,.12.12V8.3a.042.042,0,0,0,.048.048h1.4a.106.106,0,0,1,.12.12Zm2.28-1.632a.575.575,0,1,1,.432-.168A.585.585,0,0,1,35.508,7.14Zm-.228,7.248a.106.106,0,0,1-.12-.12V8.46a.106.106,0,0,1,.12-.12h.4a.106.106,0,0,1,.12.12v5.808a.106.106,0,0,1-.12.12Zm4.992.108a2.353,2.353,0,0,1-1.44-.444,2.2,2.2,0,0,1-.816-1.188,6.17,6.17,0,0,1-.132-1.5,6.013,6.013,0,0,1,.132-1.488,2.178,2.178,0,0,1,.81-1.182,2.611,2.611,0,0,1,2.9.006,2.124,2.124,0,0,1,.81,1.176,3.4,3.4,0,0,1,.1.618q.024.342.024.87,0,.552-.024.888a3.384,3.384,0,0,1-.1.612,2.125,2.125,0,0,1-.81,1.188A2.4,2.4,0,0,1,40.272,14.5Zm0-.564a1.7,1.7,0,0,0,1.086-.354,1.6,1.6,0,0,0,.582-.93,6.14,6.14,0,0,0,.084-1.272,7.019,7.019,0,0,0-.072-1.272,1.58,1.58,0,0,0-.582-.936,1.741,1.741,0,0,0-1.1-.348,1.716,1.716,0,0,0-1.092.348,1.591,1.591,0,0,0-.576.936,6.58,6.58,0,0,0-.084,1.272,6.58,6.58,0,0,0,.084,1.272,1.591,1.591,0,0,0,.576.936A1.716,1.716,0,0,0,40.272,13.932Zm6.66-5.664a2.032,2.032,0,0,1,1.494.564A2,2,0,0,1,49,10.32v3.96a.106.106,0,0,1-.12.12h-.4a.106.106,0,0,1-.12-.12V10.44a1.6,1.6,0,0,0-.432-1.158,1.493,1.493,0,0,0-1.128-.45,1.586,1.586,0,0,0-1.164.438,1.538,1.538,0,0,0-.444,1.146V14.28a.106.106,0,0,1-.12.12h-.4a.106.106,0,0,1-.12-.12V8.472a.106.106,0,0,1,.12-.12h.4a.106.106,0,0,1,.12.12V9.06q0,.036.018.042t.03-.018a1.731,1.731,0,0,1,.7-.606A2.251,2.251,0,0,1,46.932,8.268Z" transform="translate(1716.844 -1142.039)" fill="#dfdfdf"/>
    </g>
    <g id="Group_292" data-name="Group 292">
      <path id="Path_338" data-name="Path 338" d="M6.684-8.316A.174.174,0,0,1,6.828-8.4h.408a.106.106,0,0,1,.12.12V-.12a.106.106,0,0,1-.12.12h-.4a.106.106,0,0,1-.12-.12V-7.164q0-.036-.024-.042t-.036.03L4.548-3.912a.174.174,0,0,1-.144.084H4.2a.174.174,0,0,1-.144-.084L1.92-7.164q-.012-.036-.036-.024a.048.048,0,0,0-.024.048V-.12A.106.106,0,0,1,1.74,0h-.4a.106.106,0,0,1-.12-.12V-8.28a.106.106,0,0,1,.12-.12h.42a.174.174,0,0,1,.144.084l2.352,3.6A.049.049,0,0,0,4.3-4.7a.049.049,0,0,0,.036-.012ZM11.64-6.144a2.193,2.193,0,0,1,1.608.546,1.974,1.974,0,0,1,.552,1.47V-.12a.106.106,0,0,1-.12.12h-.4a.106.106,0,0,1-.12-.12V-.684a.04.04,0,0,0-.018-.036q-.018-.012-.042.012a1.95,1.95,0,0,1-.81.6,2.9,2.9,0,0,1-1.11.2,2.318,2.318,0,0,1-1.4-.42A1.484,1.484,0,0,1,9.2-1.608a1.687,1.687,0,0,1,.66-1.4,2.871,2.871,0,0,1,1.812-.516h1.44a.042.042,0,0,0,.048-.048v-.54a1.483,1.483,0,0,0-.378-1.068,1.532,1.532,0,0,0-1.158-.4,1.846,1.846,0,0,0-1.008.252,1.058,1.058,0,0,0-.492.672.127.127,0,0,1-.144.108l-.42-.06q-.132-.024-.108-.1a1.522,1.522,0,0,1,.7-1.044A2.615,2.615,0,0,1,11.64-6.144ZM11.292-.456a2.313,2.313,0,0,0,1.314-.372,1.175,1.175,0,0,0,.558-1.032V-2.952A.042.042,0,0,0,13.116-3h-1.38a2.375,2.375,0,0,0-1.374.36,1.145,1.145,0,0,0-.522,1,1.032,1.032,0,0,0,.408.888A1.717,1.717,0,0,0,11.292-.456ZM16.2-7.26a.585.585,0,0,1-.432-.168A.585.585,0,0,1,15.6-7.86a.585.585,0,0,1,.168-.432A.585.585,0,0,1,16.2-8.46a.585.585,0,0,1,.432.168.585.585,0,0,1,.168.432.585.585,0,0,1-.168.432A.585.585,0,0,1,16.2-7.26ZM15.972-.012a.106.106,0,0,1-.12-.12V-5.94a.106.106,0,0,1,.12-.12h.4a.106.106,0,0,1,.12.12V-.132a.106.106,0,0,1-.12.12Zm5.184-6.12a2.032,2.032,0,0,1,1.494.564,2,2,0,0,1,.57,1.488V-.12A.106.106,0,0,1,23.1,0h-.4a.106.106,0,0,1-.12-.12V-3.96a1.6,1.6,0,0,0-.432-1.158,1.493,1.493,0,0,0-1.128-.45,1.586,1.586,0,0,0-1.164.438,1.538,1.538,0,0,0-.444,1.146V-.12A.106.106,0,0,1,19.3,0h-.4a.106.106,0,0,1-.12-.12V-5.928a.106.106,0,0,1,.12-.12h.4a.106.106,0,0,1,.12.12v.588q0,.036.018.042t.03-.018a1.731,1.731,0,0,1,.7-.606A2.251,2.251,0,0,1,21.156-6.132Zm6.588.5a.106.106,0,0,1-.12.12h-1.4a.042.042,0,0,0-.048.048v3.792a1.109,1.109,0,0,0,.276.858,1.316,1.316,0,0,0,.888.246h.276a.106.106,0,0,1,.12.12V-.12a.106.106,0,0,1-.12.12l-.36.012a2.073,2.073,0,0,1-1.266-.324A1.44,1.44,0,0,1,25.548-1.5V-5.46a.042.042,0,0,0-.048-.048h-.72a.106.106,0,0,1-.12-.12v-.3a.106.106,0,0,1,.12-.12h.72a.042.042,0,0,0,.048-.048V-7.464a.106.106,0,0,1,.12-.12h.384a.106.106,0,0,1,.12.12V-6.1a.042.042,0,0,0,.048.048h1.4a.106.106,0,0,1,.12.12Zm3.84,5.16a1.75,1.75,0,0,0,.966-.258,1.766,1.766,0,0,0,.63-.714q.06-.108.156-.06l.312.156q.108.06.06.156a2.073,2.073,0,0,1-.834.936A2.517,2.517,0,0,1,31.536.1a2.443,2.443,0,0,1-1.428-.408,2.042,2.042,0,0,1-.8-1.116,3.226,3.226,0,0,1-.132-.672q-.036-.372-.036-.936,0-.588.018-.888a3.219,3.219,0,0,1,.078-.552,2.147,2.147,0,0,1,.786-1.212,2.323,2.323,0,0,1,1.458-.456,2.315,2.315,0,0,1,1.572.51,2.267,2.267,0,0,1,.732,1.41,4.634,4.634,0,0,1,.048.534q.012.306.012.762a.106.106,0,0,1-.12.12H29.808a.042.042,0,0,0-.048.048,5.438,5.438,0,0,0,.06,1.02,1.534,1.534,0,0,0,.594.93A1.914,1.914,0,0,0,31.584-.468Zm-1.74-3.864a5.26,5.26,0,0,0-.084.936.042.042,0,0,0,.048.048h3.348A.042.042,0,0,0,33.2-3.4a4.97,4.97,0,0,0-.06-.9,1.613,1.613,0,0,0-.576-.93,1.7,1.7,0,0,0-1.092-.354,1.686,1.686,0,0,0-1.08.342A1.521,1.521,0,0,0,29.844-4.332Zm8.22-1.8a2.032,2.032,0,0,1,1.494.564,2,2,0,0,1,.57,1.488V-.12a.106.106,0,0,1-.12.12h-.4a.106.106,0,0,1-.12-.12V-3.96a1.6,1.6,0,0,0-.432-1.158,1.493,1.493,0,0,0-1.128-.45,1.586,1.586,0,0,0-1.164.438,1.538,1.538,0,0,0-.444,1.146V-.12A.106.106,0,0,1,36.2,0h-.4a.106.106,0,0,1-.12-.12V-5.928a.106.106,0,0,1,.12-.12h.4a.106.106,0,0,1,.12.12v.588q0,.036.018.042t.03-.018a1.731,1.731,0,0,1,.7-.606A2.251,2.251,0,0,1,38.064-6.132Zm6.072-.012a2.193,2.193,0,0,1,1.608.546,1.974,1.974,0,0,1,.552,1.47V-.12a.106.106,0,0,1-.12.12h-.4a.106.106,0,0,1-.12-.12V-.684a.04.04,0,0,0-.018-.036q-.018-.012-.042.012a1.95,1.95,0,0,1-.81.6,2.9,2.9,0,0,1-1.11.2,2.318,2.318,0,0,1-1.4-.42A1.484,1.484,0,0,1,41.7-1.608a1.687,1.687,0,0,1,.66-1.4,2.871,2.871,0,0,1,1.812-.516h1.44a.042.042,0,0,0,.048-.048v-.54a1.483,1.483,0,0,0-.378-1.068,1.532,1.532,0,0,0-1.158-.4,1.846,1.846,0,0,0-1.008.252,1.058,1.058,0,0,0-.492.672.127.127,0,0,1-.144.108l-.42-.06q-.132-.024-.108-.1a1.522,1.522,0,0,1,.7-1.044A2.615,2.615,0,0,1,44.136-6.144ZM43.788-.456A2.313,2.313,0,0,0,45.1-.828,1.175,1.175,0,0,0,45.66-1.86V-2.952A.042.042,0,0,0,45.612-3h-1.38a2.375,2.375,0,0,0-1.374.36,1.145,1.145,0,0,0-.522,1,1.032,1.032,0,0,0,.408.888A1.717,1.717,0,0,0,43.788-.456ZM50.58-6.132a2.032,2.032,0,0,1,1.494.564,2,2,0,0,1,.57,1.488V-.12a.106.106,0,0,1-.12.12h-.4a.106.106,0,0,1-.12-.12V-3.96a1.6,1.6,0,0,0-.432-1.158,1.493,1.493,0,0,0-1.128-.45,1.586,1.586,0,0,0-1.164.438,1.538,1.538,0,0,0-.444,1.146V-.12a.106.106,0,0,1-.12.12h-.4a.106.106,0,0,1-.12-.12V-5.928a.106.106,0,0,1,.12-.12h.4a.106.106,0,0,1,.12.12v.588q0,.036.018.042t.03-.018a1.731,1.731,0,0,1,.7-.606A2.251,2.251,0,0,1,50.58-6.132ZM56.748.1A2.347,2.347,0,0,1,55.3-.348a2.147,2.147,0,0,1-.8-1.188,5.9,5.9,0,0,1-.156-1.5A6.018,6.018,0,0,1,54.5-4.524,2.076,2.076,0,0,1,55.3-5.7a2.373,2.373,0,0,1,1.452-.444,2.5,2.5,0,0,1,1.47.432A1.877,1.877,0,0,1,59-4.632a2.519,2.519,0,0,1,.072.336v.024q0,.084-.108.108l-.384.048H58.56q-.084,0-.108-.108l-.036-.168a1.409,1.409,0,0,0-.564-.846,1.787,1.787,0,0,0-1.1-.342,1.71,1.71,0,0,0-1.1.348,1.542,1.542,0,0,0-.558.924,5.881,5.881,0,0,0-.108,1.284,5.613,5.613,0,0,0,.108,1.272,1.548,1.548,0,0,0,.558.936,1.71,1.71,0,0,0,1.1.348,1.813,1.813,0,0,0,1.11-.342,1.353,1.353,0,0,0,.558-.858l.012-.06q.024-.132.144-.108l.372.06q.12.024.108.132L59-1.428a1.854,1.854,0,0,1-.786,1.1A2.526,2.526,0,0,1,56.748.1Zm6.228-.564a1.75,1.75,0,0,0,.966-.258,1.766,1.766,0,0,0,.63-.714q.06-.108.156-.06l.312.156q.108.06.06.156a2.073,2.073,0,0,1-.834.936A2.517,2.517,0,0,1,62.928.1,2.443,2.443,0,0,1,61.5-.312a2.042,2.042,0,0,1-.8-1.116,3.226,3.226,0,0,1-.132-.672q-.036-.372-.036-.936,0-.588.018-.888a3.219,3.219,0,0,1,.078-.552,2.147,2.147,0,0,1,.786-1.212,2.323,2.323,0,0,1,1.458-.456,2.315,2.315,0,0,1,1.572.51,2.267,2.267,0,0,1,.732,1.41,4.634,4.634,0,0,1,.048.534q.012.306.012.762a.106.106,0,0,1-.12.12H61.2a.042.042,0,0,0-.048.048,5.438,5.438,0,0,0,.06,1.02,1.534,1.534,0,0,0,.594.93A1.914,1.914,0,0,0,62.976-.468Zm-1.74-3.864a5.26,5.26,0,0,0-.084.936.042.042,0,0,0,.048.048h3.348A.042.042,0,0,0,64.6-3.4a4.97,4.97,0,0,0-.06-.9,1.613,1.613,0,0,0-.576-.93,1.7,1.7,0,0,0-1.092-.354,1.686,1.686,0,0,0-1.08.342A1.521,1.521,0,0,0,61.236-4.332ZM6.936,14.256a.1.1,0,0,1,.024.072.069.069,0,0,1-.024.048.1.1,0,0,1-.072.024H6.4a.207.207,0,0,1-.144-.072q-.2-.228-.48-.576l-.288-.336a.045.045,0,0,0-.072,0,3.872,3.872,0,0,1-1.146.828,3.159,3.159,0,0,1-1.29.252A2.62,2.62,0,0,1,1.308,14a1.683,1.683,0,0,1-.624-1.4,2.216,2.216,0,0,1,.48-1.428A6.723,6.723,0,0,1,2.52,9.948q.036-.024,0-.06A10.182,10.182,0,0,1,1.566,8.55a1.855,1.855,0,0,1-.234-.882A1.664,1.664,0,0,1,1.854,6.39,1.953,1.953,0,0,1,3.24,5.9a2.08,2.08,0,0,1,1.416.48,1.589,1.589,0,0,1,.552,1.26A1.885,1.885,0,0,1,4.758,8.9a7.37,7.37,0,0,1-1.29,1.146q-.036.024,0,.06l.216.264q.276.336,1.08,1.284l.66.8a.045.045,0,0,0,.072,0q.492-.612.8-1.044a.113.113,0,0,1,.168-.036l.288.168q.108.072.036.168-.54.756-.924,1.2v.024a.166.166,0,0,0,.06.108Q6.576,13.86,6.936,14.256ZM3.264,6.5a1.357,1.357,0,0,0-.942.318,1.125,1.125,0,0,0-.354.882,1.406,1.406,0,0,0,.2.672,10.107,10.107,0,0,0,.846,1.176.052.052,0,0,0,.072.012,5.884,5.884,0,0,0,1.11-.942,1.46,1.46,0,0,0,.378-.978,1.034,1.034,0,0,0-.366-.828A1.4,1.4,0,0,0,3.264,6.5Zm-.3,7.428a2.486,2.486,0,0,0,1.08-.228,3.7,3.7,0,0,0,1-.744.045.045,0,0,0,0-.072l-.72-.852-.24-.288-1.1-1.308q-.012-.036-.06-.012a6.683,6.683,0,0,0-1.182,1.038,1.664,1.664,0,0,0-.414,1.11,1.215,1.215,0,0,0,.438,1A1.867,1.867,0,0,0,2.964,13.932Zm10.92.564a3.008,3.008,0,0,1-1.458-.342,2.39,2.39,0,0,1-.972-.96,2.888,2.888,0,0,1-.342-1.422V8.628a2.888,2.888,0,0,1,.342-1.422,2.39,2.39,0,0,1,.972-.96A3.008,3.008,0,0,1,13.884,5.9a3.043,3.043,0,0,1,1.464.342,2.42,2.42,0,0,1,.984.96,2.848,2.848,0,0,1,.348,1.422v3.144a2.848,2.848,0,0,1-.348,1.422,2.42,2.42,0,0,1-.984.96A3.043,3.043,0,0,1,13.884,14.5Zm0-.552a2.129,2.129,0,0,0,1.566-.588,2.1,2.1,0,0,0,.594-1.56V8.616a2.04,2.04,0,0,0-2.16-2.148,2.081,2.081,0,0,0-1.548.594,2.113,2.113,0,0,0-.588,1.554V11.8a2.021,2.021,0,0,0,2.136,2.148ZM23.22,9.852a2.8,2.8,0,0,1,.108.618q.024.342.024.894t-.024.894a3.4,3.4,0,0,1-.1.618,2.048,2.048,0,0,1-.75,1.182,2.245,2.245,0,0,1-1.41.438,2.053,2.053,0,0,1-.942-.21,1.675,1.675,0,0,1-.666-.606q-.024-.024-.042-.018T19.4,13.7v2.928a.106.106,0,0,1-.12.12h-.4a.106.106,0,0,1-.12-.12V8.472a.106.106,0,0,1,.12-.12h.4a.106.106,0,0,1,.12.12v.576q0,.036.018.042t.042-.018a1.675,1.675,0,0,1,.666-.606,2.053,2.053,0,0,1,.942-.21,2.2,2.2,0,0,1,1.38.432A2.145,2.145,0,0,1,23.22,9.852Zm-.672,2.928a1.784,1.784,0,0,0,.132-.5,8.033,8.033,0,0,0,.036-.9,8.01,8.01,0,0,0-.036-.906,2.558,2.558,0,0,0-.12-.522,1.389,1.389,0,0,0-.54-.816,1.643,1.643,0,0,0-1.008-.312,1.413,1.413,0,0,0-.942.318,1.56,1.56,0,0,0-.51.81,2.119,2.119,0,0,0-.12.5,8.337,8.337,0,0,0-.036.924,8.337,8.337,0,0,0,.036.924,2.556,2.556,0,0,0,.12.528,1.5,1.5,0,0,0,.51.8,1.449,1.449,0,0,0,.942.306,1.591,1.591,0,0,0,.948-.282,1.4,1.4,0,0,0,.54-.738Zm4.86,1.152A1.687,1.687,0,0,0,29,12.96q.06-.108.156-.06l.312.156q.108.06.06.156a2.073,2.073,0,0,1-.834.936,2.517,2.517,0,0,1-1.338.348,2.443,2.443,0,0,1-1.428-.408,2.042,2.042,0,0,1-.8-1.116A3.226,3.226,0,0,1,25,12.3q-.036-.372-.036-.936,0-.588.018-.888a3.219,3.219,0,0,1,.078-.552,2.147,2.147,0,0,1,.786-1.212,2.619,2.619,0,0,1,3.03.054,2.267,2.267,0,0,1,.732,1.41,4.635,4.635,0,0,1,.048.534q.012.306.012.762a.106.106,0,0,1-.12.12H25.632a.042.042,0,0,0-.048.048,5.438,5.438,0,0,0,.06,1.02,1.534,1.534,0,0,0,.594.93A1.914,1.914,0,0,0,27.408,13.932Zm-1.74-3.864a5.26,5.26,0,0,0-.084.936.042.042,0,0,0,.048.048H28.98A.042.042,0,0,0,29.028,11a4.97,4.97,0,0,0-.06-.9,1.613,1.613,0,0,0-.576-.93,1.869,1.869,0,0,0-2.172-.012A1.521,1.521,0,0,0,25.668,10.068ZM33.792,8.3a1.543,1.543,0,0,1,.7.144.12.12,0,0,1,.072.156l-.108.384a.1.1,0,0,1-.156.072,1.49,1.49,0,0,0-.6-.084,1.451,1.451,0,0,0-1.11.51,1.779,1.779,0,0,0-.438,1.218V14.28a.106.106,0,0,1-.12.12h-.4a.106.106,0,0,1-.12-.12V8.472a.106.106,0,0,1,.12-.12h.4a.106.106,0,0,1,.12.12v.816q0,.036.018.042t.03-.03a1.974,1.974,0,0,1,.654-.732A1.677,1.677,0,0,1,33.792,8.3Zm4.02-.048A2.193,2.193,0,0,1,39.42,8.8a1.974,1.974,0,0,1,.552,1.47V14.28a.106.106,0,0,1-.12.12h-.4a.106.106,0,0,1-.12-.12v-.564a.04.04,0,0,0-.018-.036q-.018-.012-.042.012a1.95,1.95,0,0,1-.81.6,2.9,2.9,0,0,1-1.11.2,2.318,2.318,0,0,1-1.4-.42,1.484,1.484,0,0,1-.576-1.284,1.687,1.687,0,0,1,.66-1.4,2.871,2.871,0,0,1,1.812-.516h1.44a.042.042,0,0,0,.048-.048v-.54a1.483,1.483,0,0,0-.378-1.068,1.532,1.532,0,0,0-1.158-.4,1.846,1.846,0,0,0-1.008.252,1.058,1.058,0,0,0-.492.672.127.127,0,0,1-.144.108l-.42-.06q-.132-.024-.108-.1a1.522,1.522,0,0,1,.7-1.044A2.615,2.615,0,0,1,37.812,8.256Zm-.348,5.688a2.313,2.313,0,0,0,1.314-.372,1.175,1.175,0,0,0,.558-1.032V11.448a.042.042,0,0,0-.048-.048h-1.38a2.375,2.375,0,0,0-1.374.36,1.145,1.145,0,0,0-.522,1,1.032,1.032,0,0,0,.408.888A1.717,1.717,0,0,0,37.464,13.944Zm6.9-5.172a.106.106,0,0,1-.12.12h-1.4a.042.042,0,0,0-.048.048v3.792a1.109,1.109,0,0,0,.276.858,1.316,1.316,0,0,0,.888.246h.276a.106.106,0,0,1,.12.12v.324a.106.106,0,0,1-.12.12l-.36.012a2.073,2.073,0,0,1-1.266-.324,1.44,1.44,0,0,1-.438-1.188V8.94a.042.042,0,0,0-.048-.048H41.4a.106.106,0,0,1-.12-.12v-.3a.106.106,0,0,1,.12-.12h.72a.042.042,0,0,0,.048-.048V6.936a.106.106,0,0,1,.12-.12h.384a.106.106,0,0,1,.12.12V8.3a.042.042,0,0,0,.048.048h1.4a.106.106,0,0,1,.12.12Zm2.28-1.632a.575.575,0,1,1,.432-.168A.585.585,0,0,1,46.644,7.14Zm-.228,7.248a.106.106,0,0,1-.12-.12V8.46a.106.106,0,0,1,.12-.12h.4a.106.106,0,0,1,.12.12v5.808a.106.106,0,0,1-.12.12Zm4.992.108a2.353,2.353,0,0,1-1.44-.444,2.2,2.2,0,0,1-.816-1.188,6.17,6.17,0,0,1-.132-1.5,6.013,6.013,0,0,1,.132-1.488,2.178,2.178,0,0,1,.81-1.182,2.611,2.611,0,0,1,2.9.006,2.124,2.124,0,0,1,.81,1.176,3.4,3.4,0,0,1,.1.618q.024.342.024.87,0,.552-.024.888a3.384,3.384,0,0,1-.1.612,2.125,2.125,0,0,1-.81,1.188A2.4,2.4,0,0,1,51.408,14.5Zm0-.564a1.7,1.7,0,0,0,1.086-.354,1.6,1.6,0,0,0,.582-.93,6.14,6.14,0,0,0,.084-1.272,7.019,7.019,0,0,0-.072-1.272,1.58,1.58,0,0,0-.582-.936,1.741,1.741,0,0,0-1.1-.348,1.716,1.716,0,0,0-1.092.348,1.591,1.591,0,0,0-.576.936,6.58,6.58,0,0,0-.084,1.272,6.58,6.58,0,0,0,.084,1.272,1.591,1.591,0,0,0,.576.936A1.716,1.716,0,0,0,51.408,13.932Zm6.66-5.664a2.032,2.032,0,0,1,1.494.564,2,2,0,0,1,.57,1.488v3.96a.106.106,0,0,1-.12.12h-.4a.106.106,0,0,1-.12-.12V10.44a1.6,1.6,0,0,0-.432-1.158,1.493,1.493,0,0,0-1.128-.45,1.586,1.586,0,0,0-1.164.438,1.538,1.538,0,0,0-.444,1.146V14.28a.106.106,0,0,1-.12.12h-.4a.106.106,0,0,1-.12-.12V8.472a.106.106,0,0,1,.12-.12h.4a.106.106,0,0,1,.12.12V9.06q0,.036.018.042t.03-.018a1.731,1.731,0,0,1,.7-.606A2.251,2.251,0,0,1,58.068,8.268ZM64.02,14.46a2.928,2.928,0,0,1-1.146-.21,1.858,1.858,0,0,1-.774-.57,1.272,1.272,0,0,1-.276-.792v-.156a.106.106,0,0,1,.12-.12h.372a.106.106,0,0,1,.12.12v.132a.923.923,0,0,0,.444.762,1.89,1.89,0,0,0,1.128.318A1.738,1.738,0,0,0,65.1,13.62a.98.98,0,0,0,.42-.8.748.748,0,0,0-.216-.552,1.457,1.457,0,0,0-.51-.33q-.294-.114-.882-.294a9.862,9.862,0,0,1-1.08-.384,1.907,1.907,0,0,1-.69-.51,1.239,1.239,0,0,1-.282-.834,1.391,1.391,0,0,1,.582-1.17,2.48,2.48,0,0,1,1.53-.438,2.807,2.807,0,0,1,1.122.21,1.822,1.822,0,0,1,.756.57,1.325,1.325,0,0,1,.27.816v.036a.106.106,0,0,1-.12.12h-.372a.106.106,0,0,1-.12-.12V9.9a.91.91,0,0,0-.426-.762,2.21,2.21,0,0,0-2.2-.024.881.881,0,0,0-.408.762.747.747,0,0,0,.378.684,5.429,5.429,0,0,0,1.182.468,9.8,9.8,0,0,1,1.11.384,2.068,2.068,0,0,1,.714.51,1.226,1.226,0,0,1,.3.858A1.479,1.479,0,0,1,65.574,14,2.429,2.429,0,0,1,64.02,14.46Z" transform="translate(2067.831 -1142.039)" fill="#dfdfdf"/>
    </g>
    <path id="Path_336" data-name="Path 336" d="M5.256-4.38q-.024.012-.024.024t.024.024a2.214,2.214,0,0,1,1,.8,2.209,2.209,0,0,1,.354,1.26A2.134,2.134,0,0,1,5.946-.606,2.511,2.511,0,0,1,4.188,0H1.344a.106.106,0,0,1-.12-.12V-8.28a.106.106,0,0,1,.12-.12H4.1a2.56,2.56,0,0,1,1.764.576,2.025,2.025,0,0,1,.648,1.6,1.954,1.954,0,0,1-.324,1.14A1.978,1.978,0,0,1,5.256-4.38ZM1.908-7.836a.042.042,0,0,0-.048.048v3.144a.042.042,0,0,0,.048.048H4.1a1.872,1.872,0,0,0,1.3-.438,1.484,1.484,0,0,0,.486-1.158,1.55,1.55,0,0,0-.486-1.194,1.841,1.841,0,0,0-1.3-.45Zm2.28,7.26a1.785,1.785,0,0,0,1.3-.474A1.672,1.672,0,0,0,5.976-2.3a1.67,1.67,0,0,0-.5-1.278,1.882,1.882,0,0,0-1.344-.474H1.908a.042.042,0,0,0-.048.048V-.624a.042.042,0,0,0,.048.048Zm7.92-5.352a.106.106,0,0,1,.12-.12h.384a.106.106,0,0,1,.12.12V-.12a.106.106,0,0,1-.12.12h-.384a.106.106,0,0,1-.12-.12V-.708q0-.036-.024-.042t-.036.03a1.614,1.614,0,0,1-.678.6,2.3,2.3,0,0,1-1,.2A2.127,2.127,0,0,1,8.892-.444,1.852,1.852,0,0,1,8.3-1.9V-5.928a.106.106,0,0,1,.12-.12h.384a.106.106,0,0,1,.12.12v3.864A1.569,1.569,0,0,0,9.354-.912a1.521,1.521,0,0,0,1.134.432,1.6,1.6,0,0,0,1.176-.438,1.538,1.538,0,0,0,.444-1.146ZM16.7.06a2.928,2.928,0,0,1-1.146-.21,1.858,1.858,0,0,1-.774-.57,1.272,1.272,0,0,1-.276-.792v-.156a.106.106,0,0,1,.12-.12H15a.106.106,0,0,1,.12.12v.132a.923.923,0,0,0,.444.762,1.89,1.89,0,0,0,1.128.318A1.738,1.738,0,0,0,17.784-.78a.98.98,0,0,0,.42-.8.748.748,0,0,0-.216-.552,1.457,1.457,0,0,0-.51-.33q-.294-.114-.882-.294a9.862,9.862,0,0,1-1.08-.384,1.907,1.907,0,0,1-.69-.51,1.239,1.239,0,0,1-.282-.834,1.391,1.391,0,0,1,.582-1.17,2.48,2.48,0,0,1,1.53-.438,2.807,2.807,0,0,1,1.122.21,1.822,1.822,0,0,1,.756.57,1.325,1.325,0,0,1,.27.816v.036a.106.106,0,0,1-.12.12h-.372a.106.106,0,0,1-.12-.12V-4.5a.91.91,0,0,0-.426-.762,1.882,1.882,0,0,0-1.122-.306,1.865,1.865,0,0,0-1.08.282.881.881,0,0,0-.408.762.747.747,0,0,0,.378.684,5.429,5.429,0,0,0,1.182.468,9.8,9.8,0,0,1,1.11.384,2.068,2.068,0,0,1,.714.51,1.226,1.226,0,0,1,.3.858A1.479,1.479,0,0,1,18.258-.4,2.429,2.429,0,0,1,16.7.06Zm4.332-7.32a.585.585,0,0,1-.432-.168.585.585,0,0,1-.168-.432.585.585,0,0,1,.168-.432.585.585,0,0,1,.432-.168.585.585,0,0,1,.432.168.585.585,0,0,1,.168.432.585.585,0,0,1-.168.432A.585.585,0,0,1,21.036-7.26ZM20.808-.012a.106.106,0,0,1-.12-.12V-5.94a.106.106,0,0,1,.12-.12h.4a.106.106,0,0,1,.12.12V-.132a.106.106,0,0,1-.12.12Zm5.184-6.12a2.032,2.032,0,0,1,1.494.564,2,2,0,0,1,.57,1.488V-.12a.106.106,0,0,1-.12.12h-.4a.106.106,0,0,1-.12-.12V-3.96a1.6,1.6,0,0,0-.432-1.158,1.493,1.493,0,0,0-1.128-.45A1.586,1.586,0,0,0,24.7-5.13a1.538,1.538,0,0,0-.444,1.146V-.12a.106.106,0,0,1-.12.12h-.4a.106.106,0,0,1-.12-.12V-5.928a.106.106,0,0,1,.12-.12h.4a.106.106,0,0,1,.12.12v.588q0,.036.018.042t.03-.018a1.731,1.731,0,0,1,.7-.606A2.251,2.251,0,0,1,25.992-6.132ZM32.22-.468a1.75,1.75,0,0,0,.966-.258,1.766,1.766,0,0,0,.63-.714q.06-.108.156-.06l.312.156q.108.06.06.156a2.073,2.073,0,0,1-.834.936A2.517,2.517,0,0,1,32.172.1a2.443,2.443,0,0,1-1.428-.408,2.042,2.042,0,0,1-.8-1.116,3.226,3.226,0,0,1-.132-.672q-.036-.372-.036-.936,0-.588.018-.888a3.219,3.219,0,0,1,.078-.552,2.147,2.147,0,0,1,.786-1.212,2.323,2.323,0,0,1,1.458-.456,2.315,2.315,0,0,1,1.572.51,2.267,2.267,0,0,1,.732,1.41,4.635,4.635,0,0,1,.048.534q.012.306.012.762a.106.106,0,0,1-.12.12H30.444a.042.042,0,0,0-.048.048,5.438,5.438,0,0,0,.06,1.02,1.534,1.534,0,0,0,.594.93A1.914,1.914,0,0,0,32.22-.468ZM30.48-4.332A5.26,5.26,0,0,0,30.4-3.4a.042.042,0,0,0,.048.048h3.348A.042.042,0,0,0,33.84-3.4a4.97,4.97,0,0,0-.06-.9,1.613,1.613,0,0,0-.576-.93,1.7,1.7,0,0,0-1.092-.354,1.686,1.686,0,0,0-1.08.342A1.521,1.521,0,0,0,30.48-4.332ZM38.088.06a2.928,2.928,0,0,1-1.146-.21,1.858,1.858,0,0,1-.774-.57,1.272,1.272,0,0,1-.276-.792v-.156a.106.106,0,0,1,.12-.12h.372a.106.106,0,0,1,.12.12v.132a.923.923,0,0,0,.444.762,1.89,1.89,0,0,0,1.128.318A1.738,1.738,0,0,0,39.168-.78a.98.98,0,0,0,.42-.8.748.748,0,0,0-.216-.552,1.457,1.457,0,0,0-.51-.33q-.294-.114-.882-.294a9.862,9.862,0,0,1-1.08-.384,1.907,1.907,0,0,1-.69-.51,1.239,1.239,0,0,1-.282-.834,1.391,1.391,0,0,1,.582-1.17A2.48,2.48,0,0,1,38.04-6.1a2.807,2.807,0,0,1,1.122.21,1.822,1.822,0,0,1,.756.57,1.325,1.325,0,0,1,.27.816v.036a.106.106,0,0,1-.12.12H39.7a.106.106,0,0,1-.12-.12V-4.5a.91.91,0,0,0-.426-.762,1.882,1.882,0,0,0-1.122-.306,1.865,1.865,0,0,0-1.08.282.881.881,0,0,0-.408.762.747.747,0,0,0,.378.684,5.429,5.429,0,0,0,1.182.468,9.8,9.8,0,0,1,1.11.384,2.068,2.068,0,0,1,.714.51,1.226,1.226,0,0,1,.3.858A1.479,1.479,0,0,1,39.642-.4,2.429,2.429,0,0,1,38.088.06Zm5.52,0a2.928,2.928,0,0,1-1.146-.21,1.858,1.858,0,0,1-.774-.57,1.272,1.272,0,0,1-.276-.792v-.156a.106.106,0,0,1,.12-.12H41.9a.106.106,0,0,1,.12.12v.132a.923.923,0,0,0,.444.762A1.89,1.89,0,0,0,43.6-.456,1.738,1.738,0,0,0,44.688-.78a.98.98,0,0,0,.42-.8.748.748,0,0,0-.216-.552,1.457,1.457,0,0,0-.51-.33q-.294-.114-.882-.294a9.862,9.862,0,0,1-1.08-.384,1.907,1.907,0,0,1-.69-.51,1.239,1.239,0,0,1-.282-.834,1.391,1.391,0,0,1,.582-1.17A2.48,2.48,0,0,1,43.56-6.1a2.807,2.807,0,0,1,1.122.21,1.822,1.822,0,0,1,.756.57,1.325,1.325,0,0,1,.27.816v.036a.106.106,0,0,1-.12.12h-.372a.106.106,0,0,1-.12-.12V-4.5a.91.91,0,0,0-.426-.762,1.882,1.882,0,0,0-1.122-.306,1.865,1.865,0,0,0-1.08.282.881.881,0,0,0-.408.762.747.747,0,0,0,.378.684,5.429,5.429,0,0,0,1.182.468,9.8,9.8,0,0,1,1.11.384,2.068,2.068,0,0,1,.714.51,1.226,1.226,0,0,1,.3.858A1.479,1.479,0,0,1,45.162-.4,2.429,2.429,0,0,1,43.608.06ZM3.7,14.508a3.081,3.081,0,0,1-1.44-.324,2.326,2.326,0,0,1-.966-.918A2.68,2.68,0,0,1,.948,11.9V8.484a2.615,2.615,0,0,1,.342-1.35,2.349,2.349,0,0,1,.966-.906A3.081,3.081,0,0,1,3.7,5.9a3.1,3.1,0,0,1,1.428.318,2.321,2.321,0,0,1,.966.894,2.559,2.559,0,0,1,.342,1.332V8.46a.13.13,0,0,1-.036.1.115.115,0,0,1-.084.036l-.4.024A.106.106,0,0,1,5.8,8.5V8.46A1.9,1.9,0,0,0,5.22,7.014,2.124,2.124,0,0,0,3.7,6.468a2.141,2.141,0,0,0-1.536.546A1.9,1.9,0,0,0,1.584,8.46v3.48a1.909,1.909,0,0,0,.582,1.452,2.132,2.132,0,0,0,1.53.552,2.111,2.111,0,0,0,1.524-.552A1.919,1.919,0,0,0,5.8,11.94v-.024q0-.108.12-.108l.4.024q.12,0,.12.108a2.591,2.591,0,0,1-.342,1.338,2.349,2.349,0,0,1-.966.906A3.054,3.054,0,0,1,3.7,14.508Zm6.816-.012a2.353,2.353,0,0,1-1.44-.444,2.2,2.2,0,0,1-.816-1.188,6.17,6.17,0,0,1-.132-1.5,6.013,6.013,0,0,1,.132-1.488,2.178,2.178,0,0,1,.81-1.182,2.389,2.389,0,0,1,1.458-.438A2.379,2.379,0,0,1,11.97,8.7a2.124,2.124,0,0,1,.81,1.176,3.4,3.4,0,0,1,.1.618q.024.342.024.87,0,.552-.024.888a3.384,3.384,0,0,1-.1.612,2.125,2.125,0,0,1-.81,1.188A2.4,2.4,0,0,1,10.512,14.5Zm0-.564a1.7,1.7,0,0,0,1.086-.354,1.6,1.6,0,0,0,.582-.93,6.14,6.14,0,0,0,.084-1.272,7.019,7.019,0,0,0-.072-1.272,1.58,1.58,0,0,0-.582-.936,1.741,1.741,0,0,0-1.1-.348,1.716,1.716,0,0,0-1.092.348,1.591,1.591,0,0,0-.576.936,6.58,6.58,0,0,0-.084,1.272,6.58,6.58,0,0,0,.084,1.272,1.591,1.591,0,0,0,.576.936A1.716,1.716,0,0,0,10.512,13.932Zm6.66-5.664a2.032,2.032,0,0,1,1.494.564,2,2,0,0,1,.57,1.488v3.96a.106.106,0,0,1-.12.12h-.4a.106.106,0,0,1-.12-.12V10.44a1.6,1.6,0,0,0-.432-1.158,1.493,1.493,0,0,0-1.128-.45,1.586,1.586,0,0,0-1.164.438,1.538,1.538,0,0,0-.444,1.146V14.28a.106.106,0,0,1-.12.12h-.4a.106.106,0,0,1-.12-.12V8.472a.106.106,0,0,1,.12-.12h.4a.106.106,0,0,1,.12.12V9.06q0,.036.018.042t.03-.018a1.731,1.731,0,0,1,.7-.606A2.251,2.251,0,0,1,17.172,8.268Zm6.588.5a.106.106,0,0,1-.12.12h-1.4a.042.042,0,0,0-.048.048v3.792a1.109,1.109,0,0,0,.276.858,1.316,1.316,0,0,0,.888.246h.276a.106.106,0,0,1,.12.12v.324a.106.106,0,0,1-.12.12l-.36.012A2.073,2.073,0,0,1,22,14.088a1.44,1.44,0,0,1-.438-1.188V8.94a.042.042,0,0,0-.048-.048H20.8a.106.106,0,0,1-.12-.12v-.3a.106.106,0,0,1,.12-.12h.72a.042.042,0,0,0,.048-.048V6.936a.106.106,0,0,1,.12-.12h.384a.106.106,0,0,1,.12.12V8.3a.042.042,0,0,0,.048.048h1.4a.106.106,0,0,1,.12.12Zm3.84,5.16a1.687,1.687,0,0,0,1.6-.972q.06-.108.156-.06l.312.156q.108.06.06.156a2.073,2.073,0,0,1-.834.936,2.517,2.517,0,0,1-1.338.348,2.443,2.443,0,0,1-1.428-.408,2.042,2.042,0,0,1-.8-1.116,3.226,3.226,0,0,1-.132-.672q-.036-.372-.036-.936,0-.588.018-.888a3.219,3.219,0,0,1,.078-.552,2.147,2.147,0,0,1,.786-1.212,2.619,2.619,0,0,1,3.03.054,2.267,2.267,0,0,1,.732,1.41,4.635,4.635,0,0,1,.048.534q.012.306.012.762a.106.106,0,0,1-.12.12H25.824a.042.042,0,0,0-.048.048,5.438,5.438,0,0,0,.06,1.02,1.534,1.534,0,0,0,.594.93A1.914,1.914,0,0,0,27.6,13.932Zm-1.74-3.864a5.26,5.26,0,0,0-.084.936.042.042,0,0,0,.048.048h3.348A.042.042,0,0,0,29.22,11a4.97,4.97,0,0,0-.06-.9,1.613,1.613,0,0,0-.576-.93,1.869,1.869,0,0,0-2.172-.012A1.521,1.521,0,0,0,25.86,10.068ZM30.984,14.4a.1.1,0,0,1-.1-.048.078.078,0,0,1,.024-.1l2-2.844a.06.06,0,0,0,0-.072l-2-2.844a.1.1,0,0,1-.024-.072.069.069,0,0,1,.024-.048.1.1,0,0,1,.072-.024h.42a.162.162,0,0,1,.144.072l1.692,2.424a.06.06,0,0,0,.072,0l1.68-2.424a.162.162,0,0,1,.144-.072h.456a.1.1,0,0,1,.1.048.078.078,0,0,1-.024.1l-2,2.844a.111.111,0,0,0,0,.072l2,2.844a.1.1,0,0,1,.024.072.069.069,0,0,1-.024.048.1.1,0,0,1-.072.024H35.16a.162.162,0,0,1-.144-.072l-1.68-2.412a.039.039,0,0,0-.072,0l-1.692,2.412a.162.162,0,0,1-.144.072Zm8.64-5.628a.106.106,0,0,1-.12.12H38.1a.042.042,0,0,0-.048.048v3.792a1.109,1.109,0,0,0,.276.858,1.316,1.316,0,0,0,.888.246h.276a.106.106,0,0,1,.12.12v.324a.106.106,0,0,1-.12.12l-.36.012a2.073,2.073,0,0,1-1.266-.324,1.44,1.44,0,0,1-.438-1.188V8.94a.042.042,0,0,0-.048-.048h-.72a.106.106,0,0,1-.12-.12v-.3a.106.106,0,0,1,.12-.12h.72a.042.042,0,0,0,.048-.048V6.936a.106.106,0,0,1,.12-.12h.384a.106.106,0,0,1,.12.12V8.3a.042.042,0,0,0,.048.048h1.4a.106.106,0,0,1,.12.12Z" transform="translate(1736.844 -1321.419)" fill="#dfdfdf"/>
    <path id="Path_337" data-name="Path 337" d="M3.54.1A3.33,3.33,0,0,1,1.452-.5a1.908,1.908,0,0,1-.768-1.59v-.4A.106.106,0,0,1,.8-2.6h.372a.106.106,0,0,1,.12.12v.36a1.426,1.426,0,0,0,.612,1.2,2.756,2.756,0,0,0,1.68.456A2.427,2.427,0,0,0,5.112-.882,1.375,1.375,0,0,0,5.64-2.028,1.3,1.3,0,0,0,5.406-2.8a2.3,2.3,0,0,0-.72-.618,11.624,11.624,0,0,0-1.374-.66A15.522,15.522,0,0,1,1.9-4.74a2.29,2.29,0,0,1-.762-.666A1.741,1.741,0,0,1,.852-6.444,1.82,1.82,0,0,1,1.53-7.962,2.963,2.963,0,0,1,3.408-8.5a3.182,3.182,0,0,1,2.052.6A1.959,1.959,0,0,1,6.2-6.288v.276a.106.106,0,0,1-.12.12h-.4a.106.106,0,0,1-.12-.12v-.24A1.485,1.485,0,0,0,4.992-7.47a2.528,2.528,0,0,0-1.62-.462,2.265,2.265,0,0,0-1.4.378,1.288,1.288,0,0,0-.492,1.086,1.254,1.254,0,0,0,.228.78,1.913,1.913,0,0,0,.654.522q.426.222,1.314.582a10.352,10.352,0,0,1,1.434.69,2.791,2.791,0,0,1,.858.774,1.81,1.81,0,0,1,.312,1.068,1.913,1.913,0,0,1-.72,1.56A3.1,3.1,0,0,1,3.54.1Zm8.2-6.024a.106.106,0,0,1,.12-.12h.384a.106.106,0,0,1,.12.12V-.12a.106.106,0,0,1-.12.12h-.384a.106.106,0,0,1-.12-.12V-.708q0-.036-.024-.042t-.036.03A1.614,1.614,0,0,1,11-.12a2.3,2.3,0,0,1-1,.2A2.127,2.127,0,0,1,8.52-.444,1.852,1.852,0,0,1,7.932-1.9V-5.928a.106.106,0,0,1,.12-.12h.384a.106.106,0,0,1,.12.12v3.864A1.569,1.569,0,0,0,8.982-.912a1.521,1.521,0,0,0,1.134.432,1.6,1.6,0,0,0,1.176-.438,1.538,1.538,0,0,0,.444-1.146ZM16.332.06a2.928,2.928,0,0,1-1.146-.21,1.858,1.858,0,0,1-.774-.57,1.272,1.272,0,0,1-.276-.792v-.156a.106.106,0,0,1,.12-.12h.372a.106.106,0,0,1,.12.12v.132a.923.923,0,0,0,.444.762,1.89,1.89,0,0,0,1.128.318A1.738,1.738,0,0,0,17.412-.78a.98.98,0,0,0,.42-.8.748.748,0,0,0-.216-.552,1.457,1.457,0,0,0-.51-.33q-.294-.114-.882-.294a9.862,9.862,0,0,1-1.08-.384,1.907,1.907,0,0,1-.69-.51,1.239,1.239,0,0,1-.282-.834,1.391,1.391,0,0,1,.582-1.17,2.48,2.48,0,0,1,1.53-.438,2.807,2.807,0,0,1,1.122.21,1.822,1.822,0,0,1,.756.57,1.325,1.325,0,0,1,.27.816v.036a.106.106,0,0,1-.12.12H17.94a.106.106,0,0,1-.12-.12V-4.5a.91.91,0,0,0-.426-.762,1.882,1.882,0,0,0-1.122-.306,1.865,1.865,0,0,0-1.08.282.881.881,0,0,0-.408.762.747.747,0,0,0,.378.684,5.429,5.429,0,0,0,1.182.468,9.8,9.8,0,0,1,1.11.384,2.068,2.068,0,0,1,.714.51,1.226,1.226,0,0,1,.3.858A1.479,1.479,0,0,1,17.886-.4,2.429,2.429,0,0,1,16.332.06Zm6.36-5.688a.106.106,0,0,1-.12.12h-1.4a.042.042,0,0,0-.048.048v3.792A1.109,1.109,0,0,0,21.4-.81a1.316,1.316,0,0,0,.888.246h.276a.106.106,0,0,1,.12.12V-.12a.106.106,0,0,1-.12.12L22.2.012a2.073,2.073,0,0,1-1.266-.324A1.44,1.44,0,0,1,20.5-1.5V-5.46a.042.042,0,0,0-.048-.048h-.72a.106.106,0,0,1-.12-.12v-.3a.106.106,0,0,1,.12-.12h.72A.042.042,0,0,0,20.5-6.1V-7.464a.106.106,0,0,1,.12-.12H21a.106.106,0,0,1,.12.12V-6.1a.042.042,0,0,0,.048.048h1.4a.106.106,0,0,1,.12.12Zm3.792-.516a2.193,2.193,0,0,1,1.608.546,1.974,1.974,0,0,1,.552,1.47V-.12a.106.106,0,0,1-.12.12h-.4a.106.106,0,0,1-.12-.12V-.684A.04.04,0,0,0,27.99-.72q-.018-.012-.042.012a1.95,1.95,0,0,1-.81.6,2.9,2.9,0,0,1-1.11.2,2.318,2.318,0,0,1-1.4-.42,1.484,1.484,0,0,1-.576-1.284,1.687,1.687,0,0,1,.66-1.4,2.871,2.871,0,0,1,1.812-.516h1.44a.042.042,0,0,0,.048-.048v-.54a1.483,1.483,0,0,0-.378-1.068,1.532,1.532,0,0,0-1.158-.4,1.846,1.846,0,0,0-1.008.252,1.058,1.058,0,0,0-.492.672.127.127,0,0,1-.144.108l-.42-.06q-.132-.024-.108-.1A1.522,1.522,0,0,1,25-5.748,2.615,2.615,0,0,1,26.484-6.144ZM26.136-.456A2.313,2.313,0,0,0,27.45-.828a1.175,1.175,0,0,0,.558-1.032V-2.952A.042.042,0,0,0,27.96-3H26.58a2.375,2.375,0,0,0-1.374.36,1.145,1.145,0,0,0-.522,1,1.032,1.032,0,0,0,.408.888A1.717,1.717,0,0,0,26.136-.456Zm4.908-6.8a.585.585,0,0,1-.432-.168.585.585,0,0,1-.168-.432.585.585,0,0,1,.168-.432.585.585,0,0,1,.432-.168.585.585,0,0,1,.432.168.585.585,0,0,1,.168.432.585.585,0,0,1-.168.432A.585.585,0,0,1,31.044-7.26ZM30.816-.012a.106.106,0,0,1-.12-.12V-5.94a.106.106,0,0,1,.12-.12h.4a.106.106,0,0,1,.12.12V-.132a.106.106,0,0,1-.12.12ZM36-6.132a2.032,2.032,0,0,1,1.494.564,2,2,0,0,1,.57,1.488V-.12a.106.106,0,0,1-.12.12h-.4a.106.106,0,0,1-.12-.12V-3.96A1.6,1.6,0,0,0,37-5.118a1.493,1.493,0,0,0-1.128-.45A1.586,1.586,0,0,0,34.7-5.13a1.538,1.538,0,0,0-.444,1.146V-.12a.106.106,0,0,1-.12.12h-.4a.106.106,0,0,1-.12-.12V-5.928a.106.106,0,0,1,.12-.12h.4a.106.106,0,0,1,.12.12v.588q0,.036.018.042t.03-.018a1.731,1.731,0,0,1,.7-.606A2.251,2.251,0,0,1,36-6.132Zm6.072-.012A2.193,2.193,0,0,1,43.68-5.6a1.974,1.974,0,0,1,.552,1.47V-.12a.106.106,0,0,1-.12.12h-.4a.106.106,0,0,1-.12-.12V-.684a.04.04,0,0,0-.018-.036q-.018-.012-.042.012a1.95,1.95,0,0,1-.81.6,2.9,2.9,0,0,1-1.11.2,2.318,2.318,0,0,1-1.4-.42,1.484,1.484,0,0,1-.576-1.284,1.687,1.687,0,0,1,.66-1.4,2.871,2.871,0,0,1,1.812-.516h1.44a.042.042,0,0,0,.048-.048v-.54a1.483,1.483,0,0,0-.378-1.068,1.532,1.532,0,0,0-1.158-.4,1.846,1.846,0,0,0-1.008.252,1.058,1.058,0,0,0-.492.672.127.127,0,0,1-.144.108L40-4.608q-.132-.024-.108-.1a1.522,1.522,0,0,1,.7-1.044A2.615,2.615,0,0,1,42.072-6.144ZM41.724-.456a2.313,2.313,0,0,0,1.314-.372A1.175,1.175,0,0,0,43.6-1.86V-2.952A.042.042,0,0,0,43.548-3h-1.38a2.375,2.375,0,0,0-1.374.36,1.145,1.145,0,0,0-.522,1,1.032,1.032,0,0,0,.408.888A1.717,1.717,0,0,0,41.724-.456Zm8.892-4.068a3.412,3.412,0,0,1,.1.624q.024.348.024.888A6.421,6.421,0,0,1,50.6-1.5a2.145,2.145,0,0,1-.768,1.164A2.2,2.2,0,0,1,48.456.1a2.043,2.043,0,0,1-.948-.216,1.709,1.709,0,0,1-.672-.612q-.024-.024-.042-.018t-.018.042V-.12a.106.106,0,0,1-.12.12h-.4a.106.106,0,0,1-.12-.12V-8.28a.106.106,0,0,1,.12-.12h.4a.106.106,0,0,1,.12.12v2.952q0,.036.024.042t.036-.03a1.709,1.709,0,0,1,.672-.612,2.043,2.043,0,0,1,.948-.216,2.22,2.22,0,0,1,1.4.438A2.117,2.117,0,0,1,50.616-4.524ZM49.944-1.6a2.558,2.558,0,0,0,.12-.522,8.011,8.011,0,0,0,.036-.906,7.155,7.155,0,0,0-.042-.924,2.153,2.153,0,0,0-.15-.54,1.5,1.5,0,0,0-.552-.786,1.574,1.574,0,0,0-.972-.306,1.43,1.43,0,0,0-.93.306,1.5,1.5,0,0,0-.51.8,2.556,2.556,0,0,0-.12.534,8.515,8.515,0,0,0-.036.93q0,.612.03.9a2.13,2.13,0,0,0,.114.516,1.53,1.53,0,0,0,.51.816,1.449,1.449,0,0,0,.954.312,1.624,1.624,0,0,0,1-.312A1.445,1.445,0,0,0,49.944-1.6Zm3.18-5.664a.585.585,0,0,1-.432-.168.585.585,0,0,1-.168-.432.585.585,0,0,1,.168-.432.585.585,0,0,1,.432-.168.585.585,0,0,1,.432.168.585.585,0,0,1,.168.432.585.585,0,0,1-.168.432A.585.585,0,0,1,53.124-7.26ZM52.9-.012a.106.106,0,0,1-.12-.12V-5.94a.106.106,0,0,1,.12-.12h.4a.106.106,0,0,1,.12.12V-.132a.106.106,0,0,1-.12.12ZM55.824,0a.106.106,0,0,1-.12-.12V-8.28a.106.106,0,0,1,.12-.12h.4a.106.106,0,0,1,.12.12V-.12a.106.106,0,0,1-.12.12Zm3.084-7.26a.585.585,0,0,1-.432-.168.585.585,0,0,1-.168-.432.585.585,0,0,1,.168-.432.585.585,0,0,1,.432-.168.585.585,0,0,1,.432.168.585.585,0,0,1,.168.432.585.585,0,0,1-.168.432A.585.585,0,0,1,58.908-7.26ZM58.68-.012a.106.106,0,0,1-.12-.12V-5.94a.106.106,0,0,1,.12-.12h.4a.106.106,0,0,1,.12.12V-.132a.106.106,0,0,1-.12.12Zm5.328-5.616a.106.106,0,0,1-.12.12h-1.4a.042.042,0,0,0-.048.048v3.792a1.109,1.109,0,0,0,.276.858,1.316,1.316,0,0,0,.888.246h.276a.106.106,0,0,1,.12.12V-.12a.106.106,0,0,1-.12.12l-.36.012A2.073,2.073,0,0,1,62.25-.312,1.44,1.44,0,0,1,61.812-1.5V-5.46a.042.042,0,0,0-.048-.048h-.72a.106.106,0,0,1-.12-.12v-.3a.106.106,0,0,1,.12-.12h.72a.042.042,0,0,0,.048-.048V-7.464a.106.106,0,0,1,.12-.12h.384a.106.106,0,0,1,.12.12V-6.1a.042.042,0,0,0,.048.048h1.4a.106.106,0,0,1,.12.12ZM65.46,2.4q-.084,0-.084-.12V1.968a.106.106,0,0,1,.12-.12h.048a1.622,1.622,0,0,0,.714-.15,1.116,1.116,0,0,0,.444-.51A8.881,8.881,0,0,0,67.14.036q.024-.048,0-.072l-2.052-5.88-.012-.048q0-.084.108-.084h.408a.14.14,0,0,1,.144.1l1.7,5.088a.038.038,0,0,0,.036.024.038.038,0,0,0,.036-.024l1.656-5.088a.14.14,0,0,1,.144-.1h.408q.132,0,.1.132L67.548.612a5.826,5.826,0,0,1-.516,1.152,1.235,1.235,0,0,1-.57.5,2.549,2.549,0,0,1-.918.132Z" transform="translate(2067.831 -1321.383)" fill="#dfdfdf"/>
    <path id="Path_340" data-name="Path 340" d="M13.3-4.392H4.368L2.472,0H.432L7.944-17.088H9.672L17.184,0H15.168Zm-.7-1.632L8.832-14.808,5.064-6.024Zm7.128-11.064h6.816a6.107,6.107,0,0,1,4.116,1.272,4.381,4.381,0,0,1,1.476,3.5A4.4,4.4,0,0,1,30.648-8.8a6.078,6.078,0,0,1-4.1,1.284H21.7V0H19.728Zm6.648,7.944a4.313,4.313,0,0,0,2.856-.816,2.916,2.916,0,0,0,.96-2.352,2.88,2.88,0,0,0-.96-2.34,4.359,4.359,0,0,0-2.856-.8H21.7v6.312ZM51.5-17.088V0H49.68V-12.7L44.136,0H42.744L37.152-12.6,37.176,0H35.352V-17.088h1.632l6.48,14.736,6.408-14.736Z" transform="translate(1897.501 -1219.988)" fill="#fff"/>
    <g id="Group_295" data-name="Group 295">
      <g id="Group_294" data-name="Group 294" clip-path="url(#clip-path)">
        <g id="Group_293" data-name="Group 293">
          <rect id="Rectangle_111" data-name="Rectangle 111" width="274.676" height="274.676" transform="translate(1786.767 -1364.493)" fill="url(#linear-gradient)"/>
          <rect id="Rectangle_112" data-name="Rectangle 112" width="274.676" height="274.676" transform="translate(1786.767 -1364.493)" opacity="0.998" fill="url(#linear-gradient-2)" style="isolation: isolate"/>
        </g>
      </g>
    </g>
    <g id="industrial_engineer_" data-name="industrial engineer
">
      <path id="Path_295" data-name="Path 295" d="M2032.792-1142.406l-1.761-4.25a1.454,1.454,0,0,1,.315-1.582l.722-.721a1.451,1.451,0,0,0,0-2.053l-4.106-4.106a1.452,1.452,0,0,0-2.052,0l-.723.722a1.451,1.451,0,0,1-1.582.315l-4.249-1.761a1.451,1.451,0,0,1-.9-1.341v-1.02a1.452,1.452,0,0,0-1.451-1.452H2011.2a1.452,1.452,0,0,0-1.451,1.452v1.02a1.451,1.451,0,0,1-.9,1.341l-4.25,1.761a1.451,1.451,0,0,1-1.582-.315l-.722-.722a1.453,1.453,0,0,0-2.053,0l-4.106,4.106a1.451,1.451,0,0,0,0,2.053l.723.721a1.453,1.453,0,0,1,.314,1.582l-1.76,4.25a1.451,1.451,0,0,1-1.341.9h-1.021a1.452,1.452,0,0,0-1.452,1.452v5.806a1.452,1.452,0,0,0,1.452,1.452h1.021a1.452,1.452,0,0,1,1.341.9l1.76,4.25a1.453,1.453,0,0,1-.314,1.582l-.723.721a1.451,1.451,0,0,0,0,2.053l4.106,4.106a1.453,1.453,0,0,0,2.053,0l.722-.722a1.453,1.453,0,0,1,1.582-.315l4.25,1.761a1.452,1.452,0,0,1,.9,1.341v1.021a1.451,1.451,0,0,0,1.451,1.451h5.807a1.451,1.451,0,0,0,1.451-1.451v-1.021a1.452,1.452,0,0,1,.9-1.341l4.249-1.761a1.453,1.453,0,0,1,1.582.315l.723.722a1.452,1.452,0,0,0,2.052,0l4.106-4.106a1.451,1.451,0,0,0,0-2.053l-.722-.721a1.454,1.454,0,0,1-.315-1.582l1.761-4.25a1.452,1.452,0,0,1,1.341-.9h1.021a1.452,1.452,0,0,0,1.451-1.452v-5.806a1.452,1.452,0,0,0-1.451-1.452h-1.021A1.451,1.451,0,0,1,2032.792-1142.406Z" fill="none" stroke="#fff" stroke-linecap="round" stroke-linejoin="round" stroke-width="2"/>
      <path id="Path_296" data-name="Path 296" d="M2023.142-1127.719a13.021,13.021,0,0,1-9.037,3.629,13.023,13.023,0,0,1-9.035-3.628" fill="none" stroke="#fff" stroke-linecap="round" stroke-linejoin="round" stroke-width="2"/>
      <g id="Group_296" data-name="Group 296">
        <path id="Path_297" data-name="Path 297" d="M2029.347-1135.7v.8l-4.354,2.69s-2.9.864-10.888.864-10.889-.864-10.889-.864l-4.353-2.69v-1.527" fill="none" stroke="#fff" stroke-linecap="round" stroke-linejoin="round" stroke-width="2"/>
        <path id="Path_298" data-name="Path 298" d="M2023.541-1136.429a58.4,58.4,0,0,1-9.436.726,58.391,58.391,0,0,1-9.435-.726" fill="none" stroke="#fff" stroke-linecap="round" stroke-linejoin="round" stroke-width="2"/>
        <path id="Path_299" data-name="Path 299" d="M2026.444-1137.155c0-4.834-1.9-9.055-5.8-11.315a.22.22,0,0,1-.091-.153,1.357,1.357,0,0,0-1.263-.971l-1.552-.115" fill="none" stroke="#fff" stroke-linecap="round" stroke-linejoin="round" stroke-width="2"/>
        <path id="Path_300" data-name="Path 300" d="M2001.767-1137.155c0-4.835,1.9-9.058,5.806-11.316a.219.219,0,0,0,.089-.147,1.366,1.366,0,0,1,1.264-.976l1.551-.115" fill="none" stroke="#fff" stroke-linecap="round" stroke-linejoin="round" stroke-width="2"/>
        <line id="Line_127" data-name="Line 127" y1="2.177" transform="translate(2008.299 -1148.768)" fill="none" stroke="#fff" stroke-linecap="round" stroke-linejoin="round" stroke-width="2"/>
        <line id="Line_128" data-name="Line 128" y1="2.177" transform="translate(2019.912 -1148.768)" fill="none" stroke="#fff" stroke-linecap="round" stroke-linejoin="round" stroke-width="2"/>
        <path id="Path_301" data-name="Path 301" d="M2016.283-1145.139l.726-5.737a1,1,0,0,0-.842-.957,14.808,14.808,0,0,0-2.062-.144,14.8,14.8,0,0,0-2.061.144,1,1,0,0,0-.842.957l.726,5.737" fill="none" stroke="#fff" stroke-linecap="round" stroke-linejoin="round" stroke-width="2"/>
      </g>
    </g>
    <g id="tools">
      <path id="Path_302" data-name="Path 302" d="M2030.792-1314.517a1.452,1.452,0,0,1,1.341-.9h1.021a1.452,1.452,0,0,0,1.451-1.452v-5.806a1.452,1.452,0,0,0-1.451-1.452h-1.021a1.45,1.45,0,0,1-1.341-.9l-1.761-4.249a1.453,1.453,0,0,1,.315-1.582l.722-.722a1.451,1.451,0,0,0,0-2.053l-4.106-4.106a1.45,1.45,0,0,0-2.052,0l-.722.723a1.453,1.453,0,0,1-1.582.314l-4.25-1.76a1.453,1.453,0,0,1-.9-1.341v-1.021a1.452,1.452,0,0,0-1.451-1.452H2009.2a1.452,1.452,0,0,0-1.451,1.452v1.021a1.453,1.453,0,0,1-.9,1.341l-4.25,1.76a1.453,1.453,0,0,1-1.582-.314l-.722-.723a1.451,1.451,0,0,0-2.053,0l-4.106,4.106a1.453,1.453,0,0,0,0,2.053l.723.722a1.453,1.453,0,0,1,.314,1.582l-1.76,4.249a1.45,1.45,0,0,1-1.341.9h-1.021a1.452,1.452,0,0,0-1.452,1.452v5.806a1.452,1.452,0,0,0,1.452,1.452h1.021a1.451,1.451,0,0,1,1.341.9l1.76,4.249a1.452,1.452,0,0,1-.314,1.582l-.723.723a1.452,1.452,0,0,0,0,2.052l4.106,4.106a1.451,1.451,0,0,0,2.053,0l.722-.722a1.453,1.453,0,0,1,1.582-.315l4.25,1.761a1.452,1.452,0,0,1,.9,1.341v1.021a1.452,1.452,0,0,0,1.451,1.451h5.807a1.451,1.451,0,0,0,1.451-1.451v-1.021a1.452,1.452,0,0,1,.9-1.341" fill="none" stroke="#fff" stroke-linecap="round" stroke-linejoin="round" stroke-width="2"/>
      <g id="Group_297" data-name="Group 297">
        <path id="Path_303" data-name="Path 303" d="M2017.954-1308.91a12.344,12.344,0,0,1-14.537-2.163,12.333,12.333,0,0,1-3.078-12.317l6.441,6.531,3.874-.006,4.355-4.354c0-1.569,0-2.288,0-3.856l-6.459-6.526a12.336,12.336,0,0,1,12.317,3.078,12.345,12.345,0,0,1,2.166,14.531" fill="none" stroke="#fff" stroke-linecap="round" stroke-linejoin="round" stroke-width="2"/>
        <path id="Path_304" data-name="Path 304" d="M2024.195-1315.89l8.6,8.6a5.808,5.808,0,0,1,0,8.212h0a5.808,5.808,0,0,1-8.212,0l-8.595-8.6" fill="none" stroke="#fff" stroke-linecap="round" stroke-linejoin="round" stroke-width="2"/>
        <circle id="Ellipse_106" data-name="Ellipse 106" cx="2.54" cy="2.54" r="2.54" transform="translate(2025.896 -1305.977)" stroke-width="2" stroke="#fff" stroke-linecap="round" stroke-linejoin="round" fill="none"/>
      </g>
    </g>
    <g id="exam-test-quiz">
      <g id="_Grupo_" data-name="&lt;Grupo&gt;">
        <g id="Group_298" data-name="Group 298">
          <path id="Path_305" data-name="Path 305" d="M1850.8-1325.139a2.9,2.9,0,0,1,2.9,2.9v21.048" fill="none" stroke="#fff" stroke-linejoin="round" stroke-width="2"/>
          <path id="Path_306" data-name="Path 306" d="M1814.509-1301.187v-21.048a2.9,2.9,0,0,1,2.9-2.9" fill="none" stroke="#fff" stroke-linejoin="round" stroke-width="2"/>
          <path id="Path_307" data-name="Path 307" d="M1852.251-1294.655H1815.96a4.355,4.355,0,0,1-4.355-4.355h17.42v1.452h10.161v-1.452H1856.6A4.354,4.354,0,0,1,1852.251-1294.655Z" fill="none" stroke="#fff" stroke-linecap="round" stroke-linejoin="round" stroke-width="2"/>
        </g>
      </g>
      <g id="Group_305" data-name="Group 305">
        <g id="Group_299" data-name="Group 299">
          <path id="Path_308" data-name="Path 308" d="M1848.622-1304.09V-1338.2a1.452,1.452,0,0,0-1.452-1.452h-26.129a1.452,1.452,0,0,0-1.452,1.452v34.113" fill="none" stroke="#fff" stroke-linecap="square" stroke-linejoin="round" stroke-width="2"/>
        </g>
        <g id="Group_304" data-name="Group 304">
          <g id="Group_300" data-name="Group 300">
            <rect id="Rectangle_113" data-name="Rectangle 113" width="5.081" height="5.081" transform="translate(1825.396 -1333.123)" stroke-width="2" stroke="#fff" stroke-linecap="round" stroke-linejoin="round" fill="none"/>
            <line id="Line_129" data-name="Line 129" x2="8.71" transform="translate(1834.831 -1330.219)" fill="none" stroke="#fff" stroke-linecap="round" stroke-linejoin="round" stroke-width="2"/>
          </g>
          <g id="Group_301" data-name="Group 301">
            <rect id="Rectangle_114" data-name="Rectangle 114" width="5.081" height="5.081" transform="translate(1825.396 -1312.074)" stroke-width="2" stroke="#fff" stroke-linecap="round" stroke-linejoin="round" fill="none"/>
            <line id="Line_130" data-name="Line 130" x2="8.71" transform="translate(1834.831 -1309.897)" fill="none" stroke="#fff" stroke-linecap="round" stroke-linejoin="round" stroke-width="2"/>
          </g>
          <g id="Group_303" data-name="Group 303">
            <g id="Group_302" data-name="Group 302">
              <path id="Path_309" data-name="Path 309" d="M1825.4-1320.784l2.177,2.177,2.9-4.355" fill="none" stroke="#fff" stroke-linecap="round" stroke-linejoin="round" stroke-width="2"/>
            </g>
            <line id="Line_131" data-name="Line 131" x2="8.71" transform="translate(1834.831 -1320.058)" fill="none" stroke="#fff" stroke-linecap="round" stroke-linejoin="round" stroke-width="2"/>
          </g>
        </g>
      </g>
    </g>
    <g id="Group_306" data-name="Group 306">
      <path id="Path_310" data-name="Path 310" d="M1813.057-1158.749a5.936,5.936,0,0,0,1.452.175c2.177,0,3.4-.726,5.806-.726a4.355,4.355,0,0,1,4.355,4.355" fill="none" stroke="#fff" stroke-linecap="square" stroke-linejoin="round" stroke-width="2"/>
      <line id="Line_132" data-name="Line 132" x1="45" transform="translate(1811.605 -1118.655)" fill="none" stroke="#fff" stroke-linecap="square" stroke-linejoin="round" stroke-width="2"/>
      <path id="Path_311" data-name="Path 311" d="M1854.428-1118.655v-15.968l2.177-2.177v-2.9h-25.4v2.9l2.177,2.177v15.723" fill="none" stroke="#fff" stroke-linecap="square" stroke-linejoin="round" stroke-width="2"/>
      <line id="Line_133" data-name="Line 133" x1="7.984" transform="translate(1846.444 -1134.623)" fill="none" stroke="#fff" stroke-linecap="square" stroke-linejoin="round" stroke-width="2"/>
      <line id="Line_134" data-name="Line 134" x1="3.629" transform="translate(1833.38 -1134.623)" fill="none" stroke="#fff" stroke-linecap="square" stroke-linejoin="round" stroke-width="2"/>
      <line id="Line_135" data-name="Line 135" y2="7.984" transform="translate(1853.702 -1148.413)" fill="none" stroke="#fff" stroke-linecap="square" stroke-linejoin="round" stroke-width="2"/>
      <line id="Line_136" data-name="Line 136" y2="1.452" transform="translate(1817.412 -1125.187)" fill="none" stroke="#fff" stroke-linecap="square" stroke-linejoin="round" stroke-width="2"/>
      <line id="Line_137" data-name="Line 137" y2="1.452" transform="translate(1821.767 -1125.187)" fill="none" stroke="#fff" stroke-linecap="square" stroke-linejoin="round" stroke-width="2"/>
      <line id="Line_138" data-name="Line 138" y2="1.452" transform="translate(1826.122 -1125.187)" fill="none" stroke="#fff" stroke-linecap="square" stroke-linejoin="round" stroke-width="2"/>
      <line id="Line_139" data-name="Line 139" y2="1.452" transform="translate(1830.476 -1125.187)" fill="none" stroke="#fff" stroke-linecap="square" stroke-linejoin="round" stroke-width="2"/>
      <line id="Line_140" data-name="Line 140" y2="1.452" transform="translate(1837.734 -1127.365)" fill="none" stroke="#fff" stroke-linecap="square" stroke-linejoin="round" stroke-width="2"/>
      <line id="Line_141" data-name="Line 141" y2="1.452" transform="translate(1842.089 -1127.365)" fill="none" stroke="#fff" stroke-linecap="square" stroke-linejoin="round" stroke-width="2"/>
      <line id="Line_142" data-name="Line 142" y2="1.452" transform="translate(1846.444 -1127.365)" fill="none" stroke="#fff" stroke-linecap="square" stroke-linejoin="round" stroke-width="2"/>
      <line id="Line_143" data-name="Line 143" y2="1.452" transform="translate(1850.799 -1127.365)" fill="none" stroke="#fff" stroke-linecap="square" stroke-linejoin="round" stroke-width="2"/>
      <path id="Path_312" data-name="Path 312" d="M1813.783-1118.655v-10.887h16.694" fill="none" stroke="#fff" stroke-linecap="square" stroke-linejoin="round" stroke-width="2"/>
      <line id="Line_144" data-name="Line 144" y2="10.161" transform="translate(1816.686 -1139.703)" fill="none" stroke="#fff" stroke-linecap="square" stroke-linejoin="round" stroke-width="2"/>
      <rect id="Rectangle_115" data-name="Rectangle 115" width="5.806" height="23.226" transform="translate(1821.767 -1152.768)" stroke-width="2" stroke="#fff" stroke-linecap="square" stroke-linejoin="round" fill="none"/>
      <line id="Line_145" data-name="Line 145" x2="2.177" transform="translate(1847.896 -1152.768)" fill="none" stroke="#fff" stroke-linecap="square" stroke-linejoin="round" stroke-width="2"/>
      <line id="Line_146" data-name="Line 146" x2="2.177" transform="translate(1847.896 -1146.961)" fill="none" stroke="#fff" stroke-linecap="square" stroke-linejoin="round" stroke-width="2"/>
      <path id="Path_313" data-name="Path 313" d="M1844.993-1153.494" fill="none" stroke="#fff" stroke-linecap="square" stroke-linejoin="round" stroke-width="2"/>
      <path id="Path_314" data-name="Path 314" d="M1850.8-1142.606v-18.146a2.9,2.9,0,0,0-2.9-2.9h-4.355a2.9,2.9,0,0,0-2.9,2.9v.726" fill="none" stroke="#fff" stroke-linecap="square" stroke-linejoin="round" stroke-width="2"/>
      <path id="Path_315" data-name="Path 315" d="M1845.718-1140.429v-12.339a5.08,5.08,0,0,0-5.08-5.08,5.08,5.08,0,0,0-5.081,5.08v11.744" fill="none" stroke="#fff" stroke-linecap="square" stroke-linejoin="round" stroke-width="2"/>
    </g>
  </g>
</svg>
