<svg xmlns="http://www.w3.org/2000/svg" width="76" height="76" viewBox="0 0 76 76">
  <g id="Group_288" data-name="Group 288" transform="translate(-318 -1814)">
    <path id="Path_278" data-name="Path 278" d="M321,1821.906a9.768,9.768,0,0,0,2.387.288c3.581,0,5.593-1.194,9.548-1.194a7.161,7.161,0,0,1,7.161,7.161" transform="translate(0.387 1.161)" fill="none" stroke="#3d1152" stroke-linecap="square" stroke-linejoin="round" stroke-width="2"/>
    <line id="Line_110" data-name="Line 110" x1="74" transform="translate(319 1889)" fill="none" stroke="#3d1152" stroke-linecap="square" stroke-linejoin="round" stroke-width="2"/>
    <path id="Path_279" data-name="Path 279" d="M384.194,1882.613v-26.258l3.581-3.581V1848H346v4.774l3.581,3.581v25.856" transform="translate(5.226 6.387)" fill="none" stroke="#3d1152" stroke-linecap="square" stroke-linejoin="round" stroke-width="2"/>
    <line id="Line_111" data-name="Line 111" x1="13" transform="translate(376 1863)" fill="none" stroke="#3d1152" stroke-linecap="square" stroke-linejoin="round" stroke-width="2"/>
    <line id="Line_112" data-name="Line 112" x1="6" transform="translate(355 1863)" fill="none" stroke="#3d1152" stroke-linecap="square" stroke-linejoin="round" stroke-width="2"/>
    <line id="Line_113" data-name="Line 113" y2="13" transform="translate(388 1840)" fill="none" stroke="#3d1152" stroke-linecap="square" stroke-linejoin="round" stroke-width="2"/>
    <line id="Line_114" data-name="Line 114" y2="3" transform="translate(329 1878)" fill="none" stroke="#3d1152" stroke-linecap="square" stroke-linejoin="round" stroke-width="2"/>
    <line id="Line_115" data-name="Line 115" y2="3" transform="translate(336 1878)" fill="none" stroke="#3d1152" stroke-linecap="square" stroke-linejoin="round" stroke-width="2"/>
    <line id="Line_116" data-name="Line 116" y2="3" transform="translate(343 1878)" fill="none" stroke="#3d1152" stroke-linecap="square" stroke-linejoin="round" stroke-width="2"/>
    <line id="Line_117" data-name="Line 117" y2="3" transform="translate(350 1878)" fill="none" stroke="#3d1152" stroke-linecap="square" stroke-linejoin="round" stroke-width="2"/>
    <line id="Line_118" data-name="Line 118" y2="2" transform="translate(362 1875)" fill="none" stroke="#3d1152" stroke-linecap="square" stroke-linejoin="round" stroke-width="2"/>
    <line id="Line_119" data-name="Line 119" y2="2" transform="translate(369 1875)" fill="none" stroke="#3d1152" stroke-linecap="square" stroke-linejoin="round" stroke-width="2"/>
    <line id="Line_120" data-name="Line 120" y2="2" transform="translate(376 1875)" fill="none" stroke="#3d1152" stroke-linecap="square" stroke-linejoin="round" stroke-width="2"/>
    <line id="Line_121" data-name="Line 121" y2="2" transform="translate(383 1875)" fill="none" stroke="#3d1152" stroke-linecap="square" stroke-linejoin="round" stroke-width="2"/>
    <path id="Path_280" data-name="Path 280" d="M322,1879.9V1862h27.452" transform="translate(0.581 9.097)" fill="none" stroke="#3d1152" stroke-linecap="square" stroke-linejoin="round" stroke-width="2"/>
    <line id="Line_122" data-name="Line 122" y2="17" transform="translate(327 1854)" fill="none" stroke="#3d1152" stroke-linecap="square" stroke-linejoin="round" stroke-width="2"/>
    <rect id="Rectangle_110" data-name="Rectangle 110" width="9" height="38" transform="translate(336 1833)" stroke-width="2" stroke="#3d1152" stroke-linecap="square" stroke-linejoin="round" fill="none"/>
    <line id="Line_123" data-name="Line 123" x2="3" transform="translate(379 1833)" fill="none" stroke="#3d1152" stroke-linecap="square" stroke-linejoin="round" stroke-width="2"/>
    <line id="Line_124" data-name="Line 124" x2="3" transform="translate(379 1842)" fill="none" stroke="#3d1152" stroke-linecap="square" stroke-linejoin="round" stroke-width="2"/>
    <path id="Path_281" data-name="Path 281" d="M365,1829" transform="translate(8.903 2.71)" fill="none" stroke="#3d1152" stroke-linecap="square" stroke-linejoin="round" stroke-width="2"/>
    <path id="Path_282" data-name="Path 282" d="M375.71,1849.613v-29.839a4.774,4.774,0,0,0-4.774-4.774h-7.161a4.774,4.774,0,0,0-4.774,4.774v1.193" transform="translate(7.742 0)" fill="none" stroke="#3d1152" stroke-linecap="square" stroke-linejoin="round" stroke-width="2"/>
    <path id="Path_283" data-name="Path 283" d="M368.71,1851.645v-20.29a8.355,8.355,0,0,0-16.71,0v19.312" transform="translate(6.387 1.548)" fill="none" stroke="#3d1152" stroke-linecap="square" stroke-linejoin="round" stroke-width="2"/>
  </g>
</svg>
