<svg xmlns="http://www.w3.org/2000/svg" width="76" height="76" viewBox="0 0 76 76">
  <g id="industrial_engineer_" data-name="industrial engineer
" transform="translate(-630 -410)">
    <path id="Path_284" data-name="Path 284" d="M698.729,439.366l-2.9-6.989a2.392,2.392,0,0,1,.518-2.6l1.188-1.186a2.389,2.389,0,0,0,0-3.375l-6.752-6.752a2.389,2.389,0,0,0-3.375,0l-1.188,1.188a2.391,2.391,0,0,1-2.6.518l-6.988-2.9a2.387,2.387,0,0,1-1.473-2.206v-1.678A2.387,2.387,0,0,0,672.774,411h-9.548a2.386,2.386,0,0,0-2.387,2.387v1.678a2.387,2.387,0,0,1-1.473,2.206l-6.988,2.9a2.391,2.391,0,0,1-2.6-.518l-1.188-1.188a2.389,2.389,0,0,0-3.375,0l-6.752,6.752a2.387,2.387,0,0,0,0,3.375l1.188,1.186a2.392,2.392,0,0,1,.518,2.6l-2.9,6.989a2.387,2.387,0,0,1-2.206,1.473h-1.678A2.386,2.386,0,0,0,631,443.226v9.548a2.386,2.386,0,0,0,2.387,2.387h1.678a2.387,2.387,0,0,1,2.206,1.473l2.9,6.989a2.392,2.392,0,0,1-.518,2.6l-1.187,1.186a2.387,2.387,0,0,0,0,3.375l6.752,6.752a2.389,2.389,0,0,0,3.375,0l1.188-1.188a2.391,2.391,0,0,1,2.6-.518l6.988,2.9a2.387,2.387,0,0,1,1.473,2.206v1.678A2.386,2.386,0,0,0,663.226,485h9.548a2.387,2.387,0,0,0,2.387-2.387v-1.678a2.387,2.387,0,0,1,1.473-2.206l6.988-2.9a2.391,2.391,0,0,1,2.6.518l1.188,1.188a2.389,2.389,0,0,0,3.375,0l6.752-6.752a2.389,2.389,0,0,0,0-3.375l-1.188-1.186a2.392,2.392,0,0,1-.518-2.6l2.9-6.989a2.385,2.385,0,0,1,2.206-1.473h1.678A2.387,2.387,0,0,0,705,452.774v-9.548a2.387,2.387,0,0,0-2.387-2.387h-1.678A2.387,2.387,0,0,1,698.729,439.366Z" fill="none" stroke="#3d1152" stroke-linecap="round" stroke-linejoin="round" stroke-width="2"/>
    <path id="Path_285" data-name="Path 285" d="M679.269,455a21.484,21.484,0,0,1-29.717,0" transform="translate(3.591 8.516)" fill="none" stroke="#3d1152" stroke-linecap="round" stroke-linejoin="round" stroke-width="2"/>
    <g id="Group_289" data-name="Group 289" transform="translate(642.935 423.625)">
      <path id="Path_286" data-name="Path 286" d="M691.129,444.194v1.318l-7.161,4.423s-4.774,1.42-17.9,1.42-17.907-1.42-17.907-1.42L641,445.511V443" transform="translate(-641 -417.432)" fill="none" stroke="#3d1152" stroke-linecap="round" stroke-linejoin="round" stroke-width="2"/>
      <path id="Path_287" data-name="Path 287" d="M680.032,443A101.452,101.452,0,0,1,649,443" transform="translate(-639.452 -417.432)" fill="none" stroke="#3d1152" stroke-linecap="round" stroke-linejoin="round" stroke-width="2"/>
      <path id="Path_288" data-name="Path 288" d="M681.322,445.348c0-7.949-3.125-14.892-9.542-18.607a.355.355,0,0,1-.149-.252,2.232,2.232,0,0,0-2.077-1.6L667,424.7" transform="translate(-635.968 -420.973)" fill="none" stroke="#3d1152" stroke-linecap="round" stroke-linejoin="round" stroke-width="2"/>
      <path id="Path_289" data-name="Path 289" d="M645,445.348c0-7.951,3.127-14.9,9.548-18.61a.355.355,0,0,0,.146-.24,2.249,2.249,0,0,1,2.078-1.607l2.552-.189" transform="translate(-640.226 -420.973)" fill="none" stroke="#3d1152" stroke-linecap="round" stroke-linejoin="round" stroke-width="2"/>
      <line id="Line_125" data-name="Line 125" y1="4" transform="translate(16.065 5.375)" fill="none" stroke="#3d1152" stroke-linecap="round" stroke-linejoin="round" stroke-width="2"/>
      <line id="Line_126" data-name="Line 126" y1="4" transform="translate(34.065 5.375)" fill="none" stroke="#3d1152" stroke-linecap="round" stroke-linejoin="round" stroke-width="2"/>
      <path id="Path_290" data-name="Path 290" d="M666.355,432.824l1.194-9.435a1.64,1.64,0,0,0-1.383-1.573,24.323,24.323,0,0,0-6.782,0A1.64,1.64,0,0,0,658,423.389l1.194,9.435" transform="translate(-637.71 -421.578)" fill="none" stroke="#3d1152" stroke-linecap="round" stroke-linejoin="round" stroke-width="2"/>
    </g>
  </g>
</svg>
