<svg id="Component_44_1" data-name="Component 44 – 1" xmlns="http://www.w3.org/2000/svg" width="73.016" height="44.707" viewBox="0 0 73.016 44.707">
  <g id="Group_241" data-name="Group 241" transform="translate(-469 -662)">
    <path id="Path_329" data-name="Path 329" d="M5.056.128A7.9,7.9,0,0,1,2.632-.224,5.27,5.27,0,0,1,.736-1.28L1.328-2.5a5.635,5.635,0,0,0,1.728.976,6.253,6.253,0,0,0,2.016.3A3.5,3.5,0,0,0,7.056-1.7a1.55,1.55,0,0,0,.7-1.36A1.208,1.208,0,0,0,7.1-4.168a7.931,7.931,0,0,0-2.08-.7A11.824,11.824,0,0,1,2.8-5.528,3.42,3.42,0,0,1,1.44-6.536a2.552,2.552,0,0,1-.5-1.624,3,3,0,0,1,.528-1.752,3.455,3.455,0,0,1,1.5-1.184A5.518,5.518,0,0,1,5.2-11.52a6.737,6.737,0,0,1,2.248.368A4.8,4.8,0,0,1,9.2-10.112L8.608-8.9a5.581,5.581,0,0,0-1.616-.968,5.016,5.016,0,0,0-1.776-.312,3.2,3.2,0,0,0-1.936.52,1.667,1.667,0,0,0-.7,1.416,1.306,1.306,0,0,0,.616,1.168,6.576,6.576,0,0,0,1.976.72,15.578,15.578,0,0,1,2.3.672,3.588,3.588,0,0,1,1.408.96,2.305,2.305,0,0,1,.528,1.568A2.886,2.886,0,0,1,8.88-1.424,3.41,3.41,0,0,1,7.368-.28,6.009,6.009,0,0,1,5.056.128Zm9.76-.016A4.23,4.23,0,0,1,12.7-.4a3.421,3.421,0,0,1-1.384-1.448,4.724,4.724,0,0,1-.48-2.184,4.68,4.68,0,0,1,.5-2.208,3.629,3.629,0,0,1,1.416-1.488,4.171,4.171,0,0,1,2.128-.528,4.816,4.816,0,0,1,1.632.28,3.347,3.347,0,0,1,1.264.76l-.5,1.168a3.685,3.685,0,0,0-2.288-.9,2.281,2.281,0,0,0-1.824.76,3.168,3.168,0,0,0-.656,2.136,3.1,3.1,0,0,0,.656,2.12,2.3,2.3,0,0,0,1.824.744,3.6,3.6,0,0,0,2.288-.9l.5,1.168a3.572,3.572,0,0,1-1.3.752A5.063,5.063,0,0,1,14.816.112Zm8.5-8.368a2.846,2.846,0,0,1,.768.112l-.032,1.472a2.7,2.7,0,0,0-.944-.16,2.03,2.03,0,0,0-1.656.664A2.527,2.527,0,0,0,20.9-4.5V0H19.3V-5.792a18.172,18.172,0,0,0-.128-2.272h1.5l.144,1.456a2.5,2.5,0,0,1,.992-1.224A2.76,2.76,0,0,1,23.312-8.256ZM28.624.112A4.119,4.119,0,0,1,26.544-.4,3.474,3.474,0,0,1,25.16-1.856a4.745,4.745,0,0,1-.488-2.208A4.794,4.794,0,0,1,25.16-6.28a3.464,3.464,0,0,1,1.384-1.464,4.119,4.119,0,0,1,2.08-.512,4.086,4.086,0,0,1,2.064.512A3.464,3.464,0,0,1,32.072-6.28a4.794,4.794,0,0,1,.488,2.216,4.745,4.745,0,0,1-.488,2.208A3.474,3.474,0,0,1,30.688-.4,4.086,4.086,0,0,1,28.624.112Zm-.016-1.28A2.068,2.068,0,0,0,30.32-1.9a3.385,3.385,0,0,0,.592-2.16,3.365,3.365,0,0,0-.6-2.144,2.036,2.036,0,0,0-1.688-.752,2.077,2.077,0,0,0-1.712.752A3.333,3.333,0,0,0,26.3-4.064a3.353,3.353,0,0,0,.6,2.16A2.073,2.073,0,0,0,28.608-1.168Zm5.84-10.608h1.6V0h-1.6Zm3.968,0h1.6V0h-1.6Z" transform="translate(502 686)" fill="#fff"/>
  </g>
  <g id="Group_242" data-name="Group 242" transform="translate(-393.129 -1143.834)">
    <g id="Rectangle_93" data-name="Rectangle 93" transform="translate(393.129 1143.834)" fill="none" stroke="#fff" stroke-width="1">
      <rect width="19" height="35" rx="9.5" stroke="none"/>
      <rect x="0.5" y="0.5" width="18" height="34" rx="9" fill="none"/>
    </g>
    <path id="Path_227" data-name="Path 227" d="M324.863,669.238l5.1,5.1,5.1-5.1" transform="translate(72.912 513.493)" fill="none" stroke="#fff" stroke-width="1"/>
  </g>
</svg>
