<svg xmlns="http://www.w3.org/2000/svg" width="76" height="76" viewBox="0 0 76 76">
  <g id="tools" transform="translate(-156 -404)">
    <path id="Path_291" data-name="Path 291" d="M224.729,450.635a2.387,2.387,0,0,1,2.206-1.474h1.678A2.387,2.387,0,0,0,231,446.774v-9.548a2.387,2.387,0,0,0-2.387-2.387h-1.678a2.387,2.387,0,0,1-2.206-1.474l-2.9-6.987a2.389,2.389,0,0,1,.517-2.6l1.188-1.188a2.388,2.388,0,0,0,0-3.375l-6.752-6.752a2.385,2.385,0,0,0-3.375,0l-1.187,1.188a2.39,2.39,0,0,1-2.6.517l-6.988-2.895a2.387,2.387,0,0,1-1.474-2.2v-1.679A2.387,2.387,0,0,0,198.774,405h-9.548a2.387,2.387,0,0,0-2.387,2.387v1.679a2.387,2.387,0,0,1-1.474,2.2l-6.988,2.895a2.39,2.39,0,0,1-2.6-.517l-1.187-1.188a2.385,2.385,0,0,0-3.375,0l-6.752,6.752a2.388,2.388,0,0,0,0,3.375l1.188,1.188a2.389,2.389,0,0,1,.517,2.6l-2.9,6.987a2.387,2.387,0,0,1-2.205,1.474h-1.679A2.387,2.387,0,0,0,157,437.226v9.548a2.387,2.387,0,0,0,2.387,2.387h1.679a2.387,2.387,0,0,1,2.205,1.474l2.9,6.987a2.389,2.389,0,0,1-.517,2.6l-1.188,1.188a2.388,2.388,0,0,0,0,3.375l6.752,6.752a2.388,2.388,0,0,0,3.375,0l1.187-1.188a2.39,2.39,0,0,1,2.6-.517l6.988,2.895a2.387,2.387,0,0,1,1.474,2.206v1.678A2.387,2.387,0,0,0,189.226,479h9.548a2.387,2.387,0,0,0,2.387-2.387v-1.678a2.387,2.387,0,0,1,1.474-2.206" fill="none" stroke="#3d1152" stroke-linecap="round" stroke-linejoin="round" stroke-width="2"/>
    <g id="Group_290" data-name="Group 290">
      <path id="Path_292" data-name="Path 292" d="M203.618,459.854a20.292,20.292,0,0,1-28.968-23.81l10.592,10.74,6.371-.01,7.161-7.161c-.006-2.579.006-3.761,0-6.341l-10.62-10.731A20.293,20.293,0,0,1,211.97,451.5" fill="none" stroke="#3d1152" stroke-linecap="round" stroke-linejoin="round" stroke-width="2"/>
      <path id="Path_293" data-name="Path 293" d="M213.88,448.377l14.136,14.136a9.548,9.548,0,0,1,0,13.5h0a9.548,9.548,0,0,1-13.5,0l-14.135-14.135" fill="none" stroke="#3d1152" stroke-linecap="round" stroke-linejoin="round" stroke-width="2"/>
      <circle id="Ellipse_105" data-name="Ellipse 105" cx="4.177" cy="4.177" r="4.177" transform="translate(216.678 464.678)" stroke-width="2" stroke="#3d1152" stroke-linecap="round" stroke-linejoin="round" fill="none"/>
    </g>
  </g>
</svg>
