<svg xmlns="http://www.w3.org/2000/svg" xmlns:xlink="http://www.w3.org/1999/xlink" width="5" height="406" viewBox="0 0 5 406">
  <defs>
    <linearGradient id="linear-gradient" x1="0.5" x2="0.5" y2="1" gradientUnits="objectBoundingBox">
      <stop offset="0" stop-color="#ffb939"/>
      <stop offset="1" stop-color="#f9275a"/>
    </linearGradient>
  </defs>
  <g id="Group_277" data-name="Group 277" transform="translate(0 0.5)">
    <path id="Path_255" data-name="Path 255" d="M-969.956,409.486a2.508,2.508,0,0,0-2-2.455V345.778a2.51,2.51,0,0,0,2-2.456,2.508,2.508,0,0,0-2-2.455V278.661h-1v62.205a2.508,2.508,0,0,0-2,2.455,2.509,2.509,0,0,0,2,2.456v61.253a2.508,2.508,0,0,0-2,2.455,2.509,2.509,0,0,0,2,2.456V474.2a2.508,2.508,0,0,0-2,2.455,2.509,2.509,0,0,0,2,2.456v62.255a2.508,2.508,0,0,0-2,2.455,2.509,2.509,0,0,0,2,2.456v61.253a2.508,2.508,0,0,0-2,2.455,2.509,2.509,0,0,0,2,2.456V676.7a2.508,2.508,0,0,0-2,2.455,2.506,2.506,0,0,0,2.5,2.506,2.506,2.506,0,0,0,2.5-2.506,2.508,2.508,0,0,0-2-2.455v-64.26a2.51,2.51,0,0,0,2-2.456,2.508,2.508,0,0,0-2-2.455V546.275a2.51,2.51,0,0,0,2-2.456,2.508,2.508,0,0,0-2-2.455V479.108a2.51,2.51,0,0,0,2-2.456,2.508,2.508,0,0,0-2-2.455V411.942A2.51,2.51,0,0,0-969.956,409.486Zm-4-66.164a1.5,1.5,0,0,1,1-1.412,1.479,1.479,0,0,1,.5-.092,1.48,1.48,0,0,1,.5.092h0a1.5,1.5,0,0,1,1,1.412,1.5,1.5,0,0,1-1,1.411h0a1.48,1.48,0,0,1-.5.092,1.479,1.479,0,0,1-.5-.092A1.5,1.5,0,0,1-973.956,343.321Zm0,66.164a1.5,1.5,0,0,1,1-1.411,1.479,1.479,0,0,1,.5-.092,1.48,1.48,0,0,1,.5.092h0a1.5,1.5,0,0,1,1,1.411,1.5,1.5,0,0,1-1,1.411h0a1.48,1.48,0,0,1-.5.092,1.479,1.479,0,0,1-.5-.092A1.5,1.5,0,0,1-973.956,409.486Zm3,269.669a1.5,1.5,0,0,1-1.5,1.5,1.5,1.5,0,0,1-1.5-1.5,1.5,1.5,0,0,1,1-1.411,1.479,1.479,0,0,1,.5-.092,1.48,1.48,0,0,1,.5.092h0A1.5,1.5,0,0,1-970.956,679.155Zm0-69.172a1.5,1.5,0,0,1-1,1.411h0a1.478,1.478,0,0,1-.5.092,1.478,1.478,0,0,1-.5-.092,1.5,1.5,0,0,1-1-1.411,1.5,1.5,0,0,1,1-1.412,1.481,1.481,0,0,1,.5-.092,1.481,1.481,0,0,1,.5.092h0A1.5,1.5,0,0,1-970.956,609.983Zm0-66.164a1.5,1.5,0,0,1-1,1.411h0a1.478,1.478,0,0,1-.5.092,1.478,1.478,0,0,1-.5-.092,1.5,1.5,0,0,1-1-1.411,1.5,1.5,0,0,1,1-1.411,1.479,1.479,0,0,1,.5-.092,1.48,1.48,0,0,1,.5.092h0A1.5,1.5,0,0,1-970.956,543.819Zm0-67.167a1.5,1.5,0,0,1-1,1.411h0a1.48,1.48,0,0,1-.5.092,1.479,1.479,0,0,1-.5-.092,1.5,1.5,0,0,1-1-1.411,1.5,1.5,0,0,1,1-1.412,1.479,1.479,0,0,1,.5-.092,1.48,1.48,0,0,1,.5.092h0A1.5,1.5,0,0,1-970.956,476.652Z" transform="translate(974.956 -276.161)" fill="url(#linear-gradient)"/>
    <circle id="Ellipse_82" data-name="Ellipse 82" cx="2" cy="2" r="2" transform="translate(0.5)" fill="#fff" stroke="#fff" stroke-miterlimit="10" stroke-width="1"/>
  </g>
</svg>
